<?xml version="1.0" encoding="UTF-8"?>
<svg xmlns="http://www.w3.org/2000/svg" xmlns:xlink="http://www.w3.org/1999/xlink" width="433.71pt" height="137.84pt" viewBox="0 0 433.71 137.84" version="1.2">
<defs>
<clipPath id="clip1">
  <path d="M 396 47 L 433.3125 47 L 433.3125 93 L 396 93 Z M 396 47 "/>
</clipPath>
<clipPath id="clip2">
  <path d="M 0.105469 0 L 122 0 L 122 137.679688 L 0.105469 137.679688 Z M 0.105469 0 "/>
</clipPath>
</defs>
<g id="surface1">
<path style=" stroke:none;fill-rule:nonzero;fill:rgb(12.452698%,9.849548%,8.714294%);fill-opacity:1;" d="M 143.863281 47.277344 L 154.664062 47.277344 L 169.558594 69.78125 L 169.558594 47.277344 L 180.871094 47.277344 L 180.871094 92.023438 L 170.644531 92.023438 L 155.175781 68.566406 L 155.175781 92.023438 L 143.863281 92.023438 L 143.863281 47.277344 "/>
<path style=" stroke:none;fill-rule:nonzero;fill:rgb(12.452698%,9.849548%,8.714294%);fill-opacity:1;" d="M 188.867188 47.277344 L 219.675781 47.277344 L 219.675781 57.378906 L 200.242188 57.378906 L 200.242188 64.730469 L 217.757812 64.730469 L 217.757812 74.253906 L 200.242188 74.253906 L 200.242188 81.925781 L 219.929688 81.925781 L 219.929688 92.023438 L 188.867188 92.023438 L 188.867188 47.277344 "/>
<path style=" stroke:none;fill-rule:nonzero;fill:rgb(12.452698%,9.849548%,8.714294%);fill-opacity:1;" d="M 226.261719 74.316406 L 226.261719 47.277344 L 237.828125 47.277344 L 237.828125 74.445312 C 237.828125 79.816406 240.453125 82.371094 244.414062 82.371094 C 248.441406 82.371094 250.996094 79.941406 250.996094 74.636719 L 250.996094 47.277344 L 262.632812 47.277344 L 262.632812 74.125 C 262.632812 87.101562 255.28125 92.789062 244.351562 92.789062 C 233.417969 92.789062 226.261719 87.039062 226.261719 74.316406 "/>
<path style=" stroke:none;fill-rule:nonzero;fill:rgb(12.452698%,9.849548%,8.714294%);fill-opacity:1;" d="M 279.253906 57.632812 L 268.195312 57.632812 L 268.195312 47.277344 L 301.816406 47.277344 L 301.816406 57.632812 L 290.757812 57.632812 L 290.757812 92.023438 L 279.253906 92.023438 L 279.253906 57.632812 "/>
<path style=" stroke:none;fill-rule:nonzero;fill:rgb(12.452698%,9.849548%,8.714294%);fill-opacity:1;" d="M 324.960938 69.011719 C 328.859375 69.011719 331.160156 66.773438 331.160156 63.195312 L 331.160156 63.066406 C 331.160156 59.234375 328.730469 57.316406 324.894531 57.316406 L 319.269531 57.316406 L 319.269531 69.011719 Z M 307.828125 47.277344 L 325.40625 47.277344 C 331.417969 47.277344 335.953125 48.878906 338.832031 51.816406 C 341.324219 54.3125 342.730469 57.761719 342.730469 62.300781 L 342.730469 62.621094 C 342.730469 69.269531 339.46875 73.421875 334.738281 75.789062 L 343.945312 92.023438 L 330.96875 92.023438 L 323.363281 78.152344 L 319.269531 78.152344 L 319.269531 92.023438 L 307.828125 92.023438 L 307.828125 47.277344 "/>
<path style=" stroke:none;fill-rule:nonzero;fill:rgb(12.452698%,9.849548%,8.714294%);fill-opacity:1;" d="M 377.761719 70.035156 L 377.761719 69.332031 C 377.761719 61.597656 374.054688 56.867188 368.75 56.867188 C 363.441406 56.867188 359.800781 61.535156 359.800781 69.269531 L 359.800781 69.972656 C 359.800781 77.707031 363.507812 82.4375 368.8125 82.4375 C 374.179688 82.4375 377.761719 77.769531 377.761719 70.035156 Z M 348.039062 70.164062 L 348.039062 69.203125 C 348.039062 55.84375 356.796875 46.449219 368.8125 46.449219 C 380.894531 46.449219 389.523438 55.714844 389.523438 69.140625 L 389.523438 70.101562 C 389.523438 83.460938 380.765625 92.855469 368.75 92.855469 C 356.667969 92.855469 348.039062 83.585938 348.039062 70.164062 "/>
<g clip-path="url(#clip1)" clip-rule="nonzero">
<path style=" stroke:none;fill-rule:nonzero;fill:rgb(12.452698%,9.849548%,8.714294%);fill-opacity:1;" d="M 396.300781 47.277344 L 407.105469 47.277344 L 421.996094 69.78125 L 421.996094 47.277344 L 433.3125 47.277344 L 433.3125 92.023438 L 423.085938 92.023438 L 407.617188 68.566406 L 407.617188 92.023438 L 396.300781 92.023438 L 396.300781 47.277344 "/>
</g>
<path style=" stroke:none;fill-rule:nonzero;fill:rgb(12.452698%,9.849548%,8.714294%);fill-opacity:1;" d="M 149.15625 107.925781 C 149.15625 107.078125 148.847656 106.621094 148.277344 106.621094 C 146.824219 106.621094 145.863281 109.328125 145.863281 110.648438 C 145.863281 111.609375 146.203125 112.101562 146.808594 112.101562 C 148.128906 112.101562 149.15625 109.246094 149.15625 107.925781 Z M 150.414062 110.730469 C 150.28125 111.152344 150.234375 111.449219 150.234375 111.660156 C 150.234375 111.9375 150.363281 112.082031 150.609375 112.082031 C 150.96875 112.082031 151.324219 111.53125 151.699219 110.4375 L 152.484375 110.679688 C 151.847656 112.671875 150.96875 113.40625 149.972656 113.40625 C 149.207031 113.40625 148.636719 112.914062 148.636719 111.96875 C 148.636719 111.855469 148.636719 111.773438 148.652344 111.609375 L 148.539062 111.5625 C 147.917969 112.785156 146.988281 113.40625 146.058594 113.40625 C 144.65625 113.40625 143.890625 112.246094 143.890625 110.8125 C 143.890625 109.148438 144.558594 107.664062 145.4375 106.800781 C 146.203125 106.019531 147.070312 105.558594 147.984375 105.558594 C 148.894531 105.558594 149.417969 106.195312 149.5625 106.929688 L 149.890625 105.675781 L 151.75 105.675781 L 150.414062 110.730469 "/>
<path style=" stroke:none;fill-rule:nonzero;fill:rgb(12.452698%,9.849548%,8.714294%);fill-opacity:1;" d="M 160.652344 112.082031 C 160.996094 112.082031 161.335938 111.5625 161.777344 110.4375 L 162.542969 110.679688 C 161.890625 112.652344 160.980469 113.40625 160.050781 113.40625 C 159.167969 113.40625 158.597656 112.835938 158.597656 111.886719 C 158.597656 110.257812 159.675781 108.644531 159.675781 107.53125 C 159.675781 107.160156 159.511719 106.996094 159.234375 106.996094 C 158.484375 106.996094 157.082031 108.234375 155.777344 113.242188 L 153.820312 113.242188 L 155.222656 107.957031 C 155.46875 107.027344 155.417969 106.769531 155.125 106.769531 C 154.75 106.769531 154.324219 107.46875 153.851562 108.480469 L 153.085938 108.152344 C 153.789062 106.523438 154.601562 105.578125 155.695312 105.578125 C 156.394531 105.578125 156.886719 106.082031 156.886719 107.09375 C 156.886719 107.566406 156.789062 108.152344 156.542969 108.902344 L 156.65625 108.953125 C 157.734375 106.652344 158.941406 105.558594 160.097656 105.558594 C 161.011719 105.558594 161.582031 106.277344 161.582031 107.257812 C 161.582031 108.644531 160.375 110.730469 160.375 111.726562 C 160.375 111.96875 160.472656 112.082031 160.652344 112.082031 "/>
<path style=" stroke:none;fill-rule:nonzero;fill:rgb(12.452698%,9.849548%,8.714294%);fill-opacity:1;" d="M 168.789062 109.507812 C 168.789062 111.398438 169.71875 112.3125 171.25 112.3125 C 173.910156 112.3125 174.984375 108.347656 174.984375 106.246094 C 174.984375 104.355469 174.039062 103.441406 172.523438 103.441406 C 169.847656 103.441406 168.789062 107.40625 168.789062 109.507812 Z M 172.605469 102.25 C 175.277344 102.25 177.152344 104.15625 177.152344 106.960938 C 177.152344 110.109375 174.789062 113.503906 171.171875 113.503906 C 168.496094 113.503906 166.601562 111.59375 166.601562 108.789062 C 166.601562 105.640625 168.96875 102.25 172.605469 102.25 "/>
<path style=" stroke:none;fill-rule:nonzero;fill:rgb(12.452698%,9.849548%,8.714294%);fill-opacity:1;" d="M 181 110.894531 C 181 111.691406 181.34375 112.246094 182.0625 112.246094 C 183.515625 112.246094 184.328125 109.507812 184.328125 108.21875 C 184.328125 107.304688 184.035156 106.832031 183.433594 106.832031 C 182.128906 106.832031 181 109.457031 181 110.894531 Z M 179.679688 106.914062 C 179.304688 106.914062 179.011719 107.386719 178.492188 108.480469 L 177.722656 108.152344 C 178.507812 106.359375 179.273438 105.578125 180.300781 105.578125 C 181.035156 105.578125 181.523438 106.113281 181.523438 107.042969 C 181.523438 107.160156 181.507812 107.304688 181.492188 107.453125 L 181.621094 107.5 C 182.242188 106.210938 183.234375 105.558594 184.132812 105.558594 C 185.503906 105.558594 186.285156 106.6875 186.285156 108.203125 C 186.285156 110.828125 184.476562 113.257812 182.46875 113.257812 C 181.605469 113.257812 180.921875 112.816406 180.609375 112.164062 L 179.957031 114.597656 L 181.492188 114.597656 L 181.164062 115.800781 L 176.648438 115.800781 L 176.972656 114.597656 L 178.082031 114.597656 L 179.8125 108.136719 C 180.054688 107.222656 179.976562 106.914062 179.679688 106.914062 "/>
<path style=" stroke:none;fill-rule:nonzero;fill:rgb(12.452698%,9.849548%,8.714294%);fill-opacity:1;" d="M 189.316406 109.410156 C 191.585938 109.164062 192.417969 108.285156 192.417969 107.273438 C 192.417969 106.816406 192.15625 106.457031 191.667969 106.457031 C 190.523438 106.457031 189.660156 108.007812 189.316406 109.410156 Z M 189.171875 110.175781 C 189.15625 110.308594 189.15625 110.4375 189.15625 110.550781 C 189.15625 111.902344 189.855469 112.328125 190.671875 112.328125 C 191.46875 112.328125 192.269531 111.789062 192.953125 110.828125 L 193.640625 111.316406 C 192.808594 112.507812 191.796875 113.40625 190.066406 113.40625 C 188.386719 113.40625 187.214844 112.230469 187.214844 110.4375 C 187.214844 107.925781 189.382812 105.558594 191.945312 105.558594 C 193.347656 105.558594 194.128906 106.261719 194.128906 107.257812 C 194.128906 108.726562 192.597656 109.980469 189.171875 110.175781 "/>
<path style=" stroke:none;fill-rule:nonzero;fill:rgb(12.452698%,9.849548%,8.714294%);fill-opacity:1;" d="M 202.527344 112.082031 C 202.867188 112.082031 203.210938 111.5625 203.652344 110.4375 L 204.417969 110.679688 C 203.765625 112.652344 202.851562 113.40625 201.921875 113.40625 C 201.042969 113.40625 200.472656 112.835938 200.472656 111.886719 C 200.472656 110.257812 201.546875 108.644531 201.546875 107.53125 C 201.546875 107.160156 201.382812 106.996094 201.105469 106.996094 C 200.355469 106.996094 198.953125 108.234375 197.648438 113.242188 L 195.691406 113.242188 L 197.09375 107.957031 C 197.339844 107.027344 197.292969 106.769531 197 106.769531 C 196.621094 106.769531 196.199219 107.46875 195.726562 108.480469 L 194.960938 108.152344 C 195.660156 106.523438 196.476562 105.578125 197.570312 105.578125 C 198.269531 105.578125 198.757812 106.082031 198.757812 107.09375 C 198.757812 107.566406 198.660156 108.152344 198.417969 108.902344 L 198.53125 108.953125 C 199.605469 106.652344 200.8125 105.558594 201.972656 105.558594 C 202.882812 105.558594 203.453125 106.277344 203.453125 107.257812 C 203.453125 108.644531 202.246094 110.730469 202.246094 111.726562 C 202.246094 111.96875 202.347656 112.082031 202.527344 112.082031 "/>
<path style=" stroke:none;fill-rule:nonzero;fill:rgb(12.452698%,9.849548%,8.714294%);fill-opacity:1;" d="M 206.113281 109.425781 L 207.269531 109.425781 C 207.578125 111.382812 208.722656 112.34375 210.15625 112.34375 C 211.445312 112.34375 212.195312 111.53125 212.195312 110.679688 C 212.195312 109.734375 211.117188 109.296875 209.960938 108.757812 C 208.609375 108.152344 207.121094 107.4375 207.121094 105.707031 C 207.121094 103.878906 208.769531 102.25 210.941406 102.25 C 212.097656 102.25 213.171875 102.722656 213.710938 103.488281 L 214.378906 102.300781 L 215.601562 102.300781 L 214.640625 106.164062 L 213.5 106.164062 C 213.15625 104.140625 212.339844 103.390625 210.941406 103.390625 C 209.878906 103.390625 209.128906 104.15625 209.128906 105.007812 C 209.128906 106.03125 210.238281 106.472656 211.414062 106.996094 C 212.75 107.566406 214.183594 108.25 214.183594 109.964844 C 214.183594 111.96875 212.40625 113.503906 210.171875 113.503906 C 208.753906 113.503906 207.695312 112.980469 207.074219 112.199219 L 206.355469 113.453125 L 205.132812 113.453125 L 206.113281 109.425781 "/>
<path style=" stroke:none;fill-rule:nonzero;fill:rgb(12.452698%,9.849548%,8.714294%);fill-opacity:1;" d="M 219.53125 106.898438 L 218.554688 110.46875 C 218.4375 110.878906 218.355469 111.25 218.355469 111.449219 C 218.355469 111.886719 218.585938 112.035156 218.929688 112.035156 C 219.515625 112.035156 220.003906 111.316406 220.460938 110.273438 L 221.242188 110.535156 C 220.445312 112.851562 219.1875 113.40625 218.308594 113.40625 C 217.230469 113.40625 216.464844 112.867188 216.464844 111.757812 C 216.464844 111.285156 216.644531 110.601562 216.761719 110.144531 L 217.640625 106.898438 L 216.203125 106.898438 L 216.464844 105.902344 L 217.902344 105.902344 L 218.4375 103.945312 L 220.378906 103.734375 L 219.792969 105.902344 L 222.109375 105.902344 L 221.847656 106.898438 L 219.53125 106.898438 "/>
<path style=" stroke:none;fill-rule:nonzero;fill:rgb(12.452698%,9.849548%,8.714294%);fill-opacity:1;" d="M 227.785156 107.925781 C 227.785156 107.078125 227.472656 106.621094 226.902344 106.621094 C 225.449219 106.621094 224.488281 109.328125 224.488281 110.648438 C 224.488281 111.609375 224.832031 112.101562 225.433594 112.101562 C 226.753906 112.101562 227.785156 109.246094 227.785156 107.925781 Z M 229.039062 110.730469 C 228.90625 111.152344 228.859375 111.449219 228.859375 111.660156 C 228.859375 111.9375 228.988281 112.082031 229.234375 112.082031 C 229.59375 112.082031 229.953125 111.53125 230.328125 110.4375 L 231.109375 110.679688 C 230.472656 112.671875 229.59375 113.40625 228.597656 113.40625 C 227.832031 113.40625 227.261719 112.914062 227.261719 111.96875 C 227.261719 111.855469 227.261719 111.773438 227.277344 111.609375 L 227.164062 111.5625 C 226.542969 112.785156 225.613281 113.40625 224.683594 113.40625 C 223.28125 113.40625 222.515625 112.246094 222.515625 110.8125 C 222.515625 109.148438 223.183594 107.664062 224.066406 106.800781 C 224.832031 106.019531 225.695312 105.558594 226.609375 105.558594 C 227.523438 105.558594 228.042969 106.195312 228.191406 106.929688 L 228.515625 105.675781 L 230.375 105.675781 L 229.039062 110.730469 "/>
<path style=" stroke:none;fill-rule:nonzero;fill:rgb(12.452698%,9.849548%,8.714294%);fill-opacity:1;" d="M 238.578125 107.484375 C 238.578125 108.1875 238.136719 108.886719 237.4375 108.886719 C 236.847656 108.886719 236.472656 108.496094 236.472656 108.007812 C 236.472656 107.550781 236.75 107.175781 237.140625 106.898438 C 237.011719 106.667969 236.734375 106.488281 236.246094 106.488281 C 234.617188 106.488281 233.652344 108.984375 233.652344 110.402344 C 233.652344 111.808594 234.402344 112.246094 235.136719 112.246094 C 235.886719 112.246094 236.605469 111.707031 237.257812 110.699219 L 237.957031 111.171875 C 237.257812 112.394531 236.292969 113.40625 234.695312 113.40625 C 232.902344 113.40625 231.695312 112.183594 231.695312 110.402344 C 231.695312 107.859375 233.878906 105.558594 236.210938 105.558594 C 237.582031 105.558594 238.578125 106.328125 238.578125 107.484375 "/>
<path style=" stroke:none;fill-rule:nonzero;fill:rgb(12.452698%,9.849548%,8.714294%);fill-opacity:1;" d="M 245.492188 112.082031 C 245.851562 112.082031 246.160156 111.5625 246.582031 110.4375 L 247.351562 110.679688 C 246.730469 112.652344 245.882812 113.40625 244.9375 113.40625 C 244.023438 113.40625 243.421875 112.800781 243.421875 111.742188 C 243.421875 111.285156 243.601562 110.632812 243.601562 110.273438 C 243.601562 109.671875 243.339844 109.523438 242.148438 109.523438 L 242.117188 109.523438 L 241.121094 113.242188 L 239.277344 113.242188 L 241.917969 103.277344 L 240.566406 103.277344 L 240.890625 102.003906 L 244.136719 102.003906 L 242.3125 108.789062 L 242.390625 108.789062 C 243.257812 108.789062 243.613281 108.300781 244.332031 107.109375 C 244.871094 106.230469 245.410156 105.558594 246.371094 105.558594 C 247.152344 105.558594 247.578125 106.050781 247.578125 106.75 C 247.578125 107.4375 247.140625 108.121094 246.46875 108.121094 C 245.816406 108.121094 245.476562 107.550781 245.703125 106.882812 C 245.476562 106.929688 245.230469 107.207031 244.855469 107.828125 C 244.53125 108.429688 244.269531 108.773438 243.78125 109.035156 C 244.9375 109.132812 245.3125 109.636719 245.3125 110.402344 C 245.3125 110.878906 245.179688 111.351562 245.179688 111.644531 C 245.179688 111.96875 245.3125 112.082031 245.492188 112.082031 "/>
<path style=" stroke:none;fill-rule:nonzero;fill:rgb(12.452698%,9.849548%,8.714294%);fill-opacity:1;" d="M 254.410156 108.953125 C 254.410156 105.675781 256.824219 102.25 260.410156 102.25 C 261.765625 102.25 262.777344 102.738281 263.328125 103.570312 L 264 102.300781 L 265.253906 102.300781 L 264.210938 106.539062 L 262.988281 106.539062 C 262.824219 104.191406 261.796875 103.441406 260.476562 103.441406 C 257.589844 103.441406 256.597656 107.320312 256.597656 109.117188 C 256.597656 111.285156 257.703125 112.199219 259.121094 112.199219 C 260.851562 112.199219 261.863281 110.894531 262.679688 108.96875 L 263.835938 109.378906 C 263.019531 111.660156 261.503906 113.503906 258.894531 113.503906 C 255.894531 113.503906 254.410156 111.59375 254.410156 108.953125 "/>
<path style=" stroke:none;fill-rule:nonzero;fill:rgb(12.452698%,9.849548%,8.714294%);fill-opacity:1;" d="M 269.214844 106.457031 C 267.699219 106.457031 266.835938 109.425781 266.835938 111.007812 C 266.835938 112.050781 267.277344 112.492188 267.976562 112.492188 C 269.492188 112.492188 270.359375 109.523438 270.359375 107.941406 C 270.359375 106.898438 269.917969 106.457031 269.214844 106.457031 Z M 272.296875 108.707031 C 272.296875 111.25 270.257812 113.40625 267.992188 113.40625 C 266.117188 113.40625 264.894531 112.082031 264.894531 110.242188 C 264.894531 107.695312 266.933594 105.558594 269.199219 105.558594 C 271.074219 105.558594 272.296875 106.863281 272.296875 108.707031 "/>
<path style=" stroke:none;fill-rule:nonzero;fill:rgb(12.452698%,9.849548%,8.714294%);fill-opacity:1;" d="M 282.898438 111.886719 C 282.898438 110.257812 283.972656 108.644531 283.972656 107.53125 C 283.972656 107.160156 283.8125 106.996094 283.535156 106.996094 C 282.816406 106.996094 281.398438 108.234375 280.09375 113.242188 L 278.167969 113.242188 L 279.308594 108.9375 C 279.457031 108.398438 279.539062 108.007812 279.539062 107.695312 C 279.539062 107.304688 279.40625 106.996094 279.046875 106.996094 C 278.296875 106.996094 276.894531 108.234375 275.589844 113.242188 L 273.632812 113.242188 L 275.039062 107.957031 C 275.28125 107.027344 275.234375 106.769531 274.941406 106.769531 C 274.5625 106.769531 274.140625 107.46875 273.667969 108.480469 L 272.902344 108.152344 C 273.601562 106.523438 274.417969 105.578125 275.511719 105.578125 C 276.210938 105.578125 276.699219 106.082031 276.699219 107.09375 C 276.699219 107.566406 276.601562 108.152344 276.359375 108.902344 L 276.472656 108.953125 C 277.546875 106.652344 278.753906 105.558594 279.863281 105.558594 C 280.761719 105.558594 281.234375 106.164062 281.234375 107.144531 C 281.234375 107.597656 281.101562 108.152344 280.859375 108.902344 L 280.972656 108.953125 C 282.050781 106.652344 283.257812 105.558594 284.414062 105.558594 C 285.3125 105.558594 285.882812 106.277344 285.882812 107.257812 C 285.882812 108.644531 284.675781 110.730469 284.675781 111.726562 C 284.675781 111.96875 284.773438 112.082031 284.953125 112.082031 C 285.292969 112.082031 285.636719 111.5625 286.078125 110.4375 L 286.84375 110.679688 C 286.191406 112.652344 285.277344 113.40625 284.351562 113.40625 C 283.46875 113.40625 282.898438 112.835938 282.898438 111.886719 "/>
<path style=" stroke:none;fill-rule:nonzero;fill:rgb(12.452698%,9.849548%,8.714294%);fill-opacity:1;" d="M 297.199219 111.886719 C 297.199219 110.257812 298.273438 108.644531 298.273438 107.53125 C 298.273438 107.160156 298.109375 106.996094 297.835938 106.996094 C 297.117188 106.996094 295.699219 108.234375 294.390625 113.242188 L 292.46875 113.242188 L 293.609375 108.9375 C 293.757812 108.398438 293.839844 108.007812 293.839844 107.695312 C 293.839844 107.304688 293.707031 106.996094 293.347656 106.996094 C 292.597656 106.996094 291.195312 108.234375 289.890625 113.242188 L 287.933594 113.242188 L 289.335938 107.957031 C 289.582031 107.027344 289.53125 106.769531 289.238281 106.769531 C 288.863281 106.769531 288.441406 107.46875 287.96875 108.480469 L 287.199219 108.152344 C 287.902344 106.523438 288.71875 105.578125 289.808594 105.578125 C 290.511719 105.578125 291 106.082031 291 107.09375 C 291 107.566406 290.902344 108.152344 290.660156 108.902344 L 290.773438 108.953125 C 291.847656 106.652344 293.054688 105.558594 294.164062 105.558594 C 295.0625 105.558594 295.535156 106.164062 295.535156 107.144531 C 295.535156 107.597656 295.402344 108.152344 295.160156 108.902344 L 295.273438 108.953125 C 296.351562 106.652344 297.554688 105.558594 298.714844 105.558594 C 299.609375 105.558594 300.183594 106.277344 300.183594 107.257812 C 300.183594 108.644531 298.976562 110.730469 298.976562 111.726562 C 298.976562 111.96875 299.074219 112.082031 299.253906 112.082031 C 299.59375 112.082031 299.9375 111.5625 300.378906 110.4375 L 301.144531 110.679688 C 300.492188 112.652344 299.578125 113.40625 298.648438 113.40625 C 297.769531 113.40625 297.199219 112.835938 297.199219 111.886719 "/>
<path style=" stroke:none;fill-rule:nonzero;fill:rgb(12.452698%,9.849548%,8.714294%);fill-opacity:1;" d="M 307.226562 111.871094 C 307.226562 111.464844 307.324219 110.84375 307.585938 110.011719 L 307.472656 109.964844 C 306.394531 112.328125 305.253906 113.40625 304.078125 113.40625 C 303.179688 113.40625 302.59375 112.703125 302.59375 111.691406 C 302.59375 110.320312 303.753906 108.152344 303.753906 107.222656 C 303.753906 106.996094 303.652344 106.882812 303.507812 106.882812 C 303.164062 106.882812 302.886719 107.238281 302.300781 108.464844 L 301.535156 108.136719 C 302.203125 106.523438 303.066406 105.558594 304.191406 105.558594 C 305.054688 105.558594 305.5625 106.097656 305.5625 107.042969 C 305.5625 108.5625 304.484375 110.289062 304.484375 111.332031 C 304.484375 111.789062 304.667969 111.96875 304.941406 111.96875 C 305.675781 111.96875 307.03125 110.761719 308.367188 105.675781 L 310.324219 105.675781 L 308.988281 110.730469 C 308.855469 111.171875 308.808594 111.449219 308.808594 111.660156 C 308.808594 111.9375 308.957031 112.082031 309.183594 112.082031 C 309.558594 112.082031 309.902344 111.53125 310.277344 110.4375 L 311.058594 110.679688 C 310.421875 112.671875 309.542969 113.40625 308.613281 113.40625 C 307.761719 113.40625 307.226562 112.933594 307.226562 111.871094 "/>
<path style=" stroke:none;fill-rule:nonzero;fill:rgb(12.452698%,9.849548%,8.714294%);fill-opacity:1;" d="M 318.851562 112.082031 C 319.195312 112.082031 319.535156 111.5625 319.976562 110.4375 L 320.742188 110.679688 C 320.09375 112.652344 319.179688 113.40625 318.25 113.40625 C 317.367188 113.40625 316.796875 112.835938 316.796875 111.886719 C 316.796875 110.257812 317.875 108.644531 317.875 107.53125 C 317.875 107.160156 317.710938 106.996094 317.433594 106.996094 C 316.683594 106.996094 315.28125 108.234375 313.976562 113.242188 L 312.019531 113.242188 L 313.421875 107.957031 C 313.664062 107.027344 313.617188 106.769531 313.324219 106.769531 C 312.949219 106.769531 312.523438 107.46875 312.050781 108.480469 L 311.285156 108.152344 C 311.988281 106.523438 312.800781 105.578125 313.894531 105.578125 C 314.59375 105.578125 315.085938 106.082031 315.085938 107.09375 C 315.085938 107.566406 314.988281 108.152344 314.742188 108.902344 L 314.855469 108.953125 C 315.933594 106.652344 317.140625 105.558594 318.296875 105.558594 C 319.210938 105.558594 319.78125 106.277344 319.78125 107.257812 C 319.78125 108.644531 318.574219 110.730469 318.574219 111.726562 C 318.574219 111.96875 318.671875 112.082031 318.851562 112.082031 "/>
<path style=" stroke:none;fill-rule:nonzero;fill:rgb(12.452698%,9.849548%,8.714294%);fill-opacity:1;" d="M 324.851562 104.417969 C 324.28125 104.417969 323.839844 104.027344 323.839844 103.375 C 323.839844 102.707031 324.347656 101.941406 325.210938 101.941406 C 325.832031 101.941406 326.253906 102.332031 326.253906 102.984375 C 326.253906 103.636719 325.714844 104.417969 324.851562 104.417969 Z M 324.070312 111.691406 C 324.070312 111.96875 324.183594 112.082031 324.394531 112.082031 C 324.703125 112.082031 325.0625 111.644531 325.554688 110.4375 L 326.320312 110.679688 C 325.683594 112.605469 324.769531 113.40625 323.726562 113.40625 C 322.878906 113.40625 322.257812 112.851562 322.257812 111.871094 C 322.257812 110.320312 323.613281 108.136719 323.613281 107.125 C 323.613281 106.863281 323.515625 106.769531 323.367188 106.769531 C 322.910156 106.769531 322.503906 107.46875 322.046875 108.480469 L 321.265625 108.152344 C 321.964844 106.523438 322.828125 105.558594 323.9375 105.558594 C 324.785156 105.558594 325.390625 106.164062 325.390625 107.207031 C 325.390625 108.480469 324.070312 110.746094 324.070312 111.691406 "/>
<path style=" stroke:none;fill-rule:nonzero;fill:rgb(12.452698%,9.849548%,8.714294%);fill-opacity:1;" d="M 330.609375 106.898438 L 329.628906 110.46875 C 329.515625 110.878906 329.433594 111.25 329.433594 111.449219 C 329.433594 111.886719 329.664062 112.035156 330.003906 112.035156 C 330.59375 112.035156 331.082031 111.316406 331.539062 110.273438 L 332.320312 110.535156 C 331.523438 112.851562 330.265625 113.40625 329.386719 113.40625 C 328.308594 113.40625 327.542969 112.867188 327.542969 111.757812 C 327.542969 111.285156 327.722656 110.601562 327.835938 110.144531 L 328.71875 106.898438 L 327.28125 106.898438 L 327.542969 105.902344 L 328.976562 105.902344 L 329.515625 103.945312 L 331.457031 103.734375 L 330.871094 105.902344 L 333.183594 105.902344 L 332.925781 106.898438 L 330.609375 106.898438 "/>
<path style=" stroke:none;fill-rule:nonzero;fill:rgb(12.452698%,9.849548%,8.714294%);fill-opacity:1;" d="M 337.03125 106.980469 C 337.03125 108.480469 336.085938 109.949219 336.085938 110.894531 C 336.085938 111.300781 336.265625 111.464844 336.625 111.464844 C 337.488281 111.464844 338.648438 110.484375 339.886719 105.675781 L 341.714844 105.675781 L 340.210938 111.96875 C 339.511719 114.96875 337.863281 116.015625 335.824219 116.015625 C 334.683594 116.015625 333.316406 115.703125 333.316406 114.496094 C 333.316406 113.976562 333.707031 113.324219 334.441406 113.324219 C 335.09375 113.324219 335.417969 113.78125 335.386719 114.316406 C 335.371094 114.578125 335.222656 114.871094 335.058594 115.019531 C 335.253906 115.085938 335.5 115.132812 335.808594 115.132812 C 337.082031 115.132812 337.945312 114.105469 338.5 111.839844 L 338.828125 110.550781 L 338.730469 110.5 C 337.785156 112.230469 336.773438 112.867188 335.824219 112.867188 C 334.75 112.867188 334.210938 112.117188 334.210938 111.171875 C 334.210938 109.914062 335.253906 108.152344 335.253906 107.222656 C 335.253906 107.011719 335.15625 106.882812 335.011719 106.882812 C 334.601562 106.882812 334.210938 107.550781 333.769531 108.480469 L 333.003906 108.152344 C 333.722656 106.523438 334.621094 105.558594 335.695312 105.558594 C 336.527344 105.558594 337.03125 106.113281 337.03125 106.980469 "/>
<path style=" stroke:none;fill-rule:nonzero;fill:rgb(12.452698%,9.849548%,8.714294%);fill-opacity:1;" d="M 350.371094 107.796875 C 352.457031 107.796875 353.191406 106.488281 353.191406 105.234375 C 353.191406 104.289062 352.621094 103.71875 351.007812 103.71875 L 350.304688 103.71875 L 349.292969 107.796875 Z M 348.234375 112.019531 L 350.011719 112.019531 L 349.734375 113.242188 L 344.253906 113.242188 L 344.535156 112.019531 L 346.179688 112.019531 L 348.234375 103.734375 L 346.570312 103.734375 L 346.882812 102.511719 L 351.398438 102.511719 C 354.351562 102.511719 355.476562 103.71875 355.476562 105.25 C 355.476562 106.882812 354.351562 108.953125 350.304688 108.953125 L 349 108.953125 L 348.234375 112.019531 "/>
<path style=" stroke:none;fill-rule:nonzero;fill:rgb(12.452698%,9.849548%,8.714294%);fill-opacity:1;" d="M 358.019531 107.957031 C 358.261719 107.027344 358.214844 106.769531 357.921875 106.769531 C 357.546875 106.769531 357.121094 107.46875 356.648438 108.480469 L 355.882812 108.152344 C 356.582031 106.523438 357.398438 105.578125 358.492188 105.578125 C 359.191406 105.578125 359.683594 106.082031 359.683594 107.09375 C 359.683594 107.566406 359.585938 108.136719 359.355469 108.855469 L 359.484375 108.902344 C 360.433594 106.75 361.214844 105.558594 362.355469 105.558594 C 363.042969 105.558594 363.546875 106.03125 363.546875 106.800781 C 363.546875 107.613281 363.023438 108.269531 362.375 108.269531 C 361.800781 108.269531 361.359375 107.894531 361.394531 107.207031 C 360.921875 107.40625 359.746094 108.789062 358.574219 113.242188 L 356.617188 113.242188 L 358.019531 107.957031 "/>
<path style=" stroke:none;fill-rule:nonzero;fill:rgb(12.452698%,9.849548%,8.714294%);fill-opacity:1;" d="M 368.210938 106.457031 C 366.691406 106.457031 365.828125 109.425781 365.828125 111.007812 C 365.828125 112.050781 366.269531 112.492188 366.972656 112.492188 C 368.488281 112.492188 369.351562 109.523438 369.351562 107.941406 C 369.351562 106.898438 368.910156 106.457031 368.210938 106.457031 Z M 371.292969 108.707031 C 371.292969 111.25 369.253906 113.40625 366.988281 113.40625 C 365.109375 113.40625 363.886719 112.082031 363.886719 110.242188 C 363.886719 107.695312 365.925781 105.558594 368.191406 105.558594 C 370.070312 105.558594 371.292969 106.863281 371.292969 108.707031 "/>
<path style=" stroke:none;fill-rule:nonzero;fill:rgb(12.452698%,9.849548%,8.714294%);fill-opacity:1;" d="M 376.296875 104.417969 C 375.726562 104.417969 375.285156 104.027344 375.285156 103.375 C 375.285156 102.707031 375.808594 101.941406 376.65625 101.941406 C 377.277344 101.941406 377.699219 102.332031 377.699219 102.984375 C 377.699219 103.636719 377.160156 104.417969 376.296875 104.417969 Z M 376.605469 108.496094 L 375.578125 112.394531 C 374.894531 114.988281 373.621094 116.015625 372.121094 116.015625 C 370.980469 116.015625 370.492188 115.476562 370.492188 114.855469 C 370.492188 114.253906 370.929688 113.699219 371.566406 113.699219 C 372.121094 113.699219 372.417969 114.105469 372.417969 114.53125 C 372.417969 114.871094 372.285156 115.148438 372.15625 115.3125 C 372.855469 115.328125 373.132812 114.90625 373.738281 112.574219 L 374.8125 108.445312 C 374.910156 108.054688 375.058594 107.484375 375.058594 107.144531 C 375.058594 106.847656 374.925781 106.769531 374.78125 106.769531 C 374.390625 106.769531 373.964844 107.46875 373.492188 108.480469 L 372.726562 108.152344 C 373.425781 106.523438 374.273438 105.558594 375.417969 105.558594 C 376.25 105.558594 376.835938 106.195312 376.835938 107.109375 C 376.835938 107.484375 376.753906 107.941406 376.605469 108.496094 "/>
<path style=" stroke:none;fill-rule:nonzero;fill:rgb(12.452698%,9.849548%,8.714294%);fill-opacity:1;" d="M 380.277344 109.410156 C 382.542969 109.164062 383.375 108.285156 383.375 107.273438 C 383.375 106.816406 383.113281 106.457031 382.625 106.457031 C 381.484375 106.457031 380.617188 108.007812 380.277344 109.410156 Z M 380.128906 110.175781 C 380.113281 110.308594 380.113281 110.4375 380.113281 110.550781 C 380.113281 111.902344 380.816406 112.328125 381.628906 112.328125 C 382.429688 112.328125 383.226562 111.789062 383.910156 110.828125 L 384.597656 111.316406 C 383.765625 112.507812 382.753906 113.40625 381.027344 113.40625 C 379.347656 113.40625 378.171875 112.230469 378.171875 110.4375 C 378.171875 107.925781 380.339844 105.558594 382.902344 105.558594 C 384.304688 105.558594 385.085938 106.261719 385.085938 107.257812 C 385.085938 108.726562 383.554688 109.980469 380.128906 110.175781 "/>
<path style=" stroke:none;fill-rule:nonzero;fill:rgb(12.452698%,9.849548%,8.714294%);fill-opacity:1;" d="M 392.945312 107.484375 C 392.945312 108.1875 392.507812 108.886719 391.804688 108.886719 C 391.21875 108.886719 390.84375 108.496094 390.84375 108.007812 C 390.84375 107.550781 391.121094 107.175781 391.511719 106.898438 C 391.378906 106.667969 391.105469 106.488281 390.613281 106.488281 C 388.984375 106.488281 388.019531 108.984375 388.019531 110.402344 C 388.019531 111.808594 388.769531 112.246094 389.503906 112.246094 C 390.253906 112.246094 390.972656 111.707031 391.625 110.699219 L 392.328125 111.171875 C 391.625 112.394531 390.664062 113.40625 389.066406 113.40625 C 387.269531 113.40625 386.066406 112.183594 386.066406 110.402344 C 386.066406 107.859375 388.25 105.558594 390.582031 105.558594 C 391.953125 105.558594 392.945312 106.328125 392.945312 107.484375 "/>
<path style=" stroke:none;fill-rule:nonzero;fill:rgb(12.452698%,9.849548%,8.714294%);fill-opacity:1;" d="M 397.496094 106.898438 L 396.515625 110.46875 C 396.402344 110.878906 396.320312 111.25 396.320312 111.449219 C 396.320312 111.886719 396.550781 112.035156 396.890625 112.035156 C 397.476562 112.035156 397.96875 111.316406 398.425781 110.273438 L 399.207031 110.535156 C 398.410156 112.851562 397.152344 113.40625 396.273438 113.40625 C 395.195312 113.40625 394.429688 112.867188 394.429688 111.757812 C 394.429688 111.285156 394.609375 110.601562 394.722656 110.144531 L 395.601562 106.898438 L 394.167969 106.898438 L 394.429688 105.902344 L 395.863281 105.902344 L 396.402344 103.945312 L 398.34375 103.734375 L 397.757812 105.902344 L 400.070312 105.902344 L 399.8125 106.898438 L 397.496094 106.898438 "/>
<g clip-path="url(#clip2)" clip-rule="nonzero">
<path style=" stroke:none;fill-rule:nonzero;fill:rgb(12.452698%,9.849548%,8.714294%);fill-opacity:1;" d="M 106.75 90.503906 C 106.925781 91.375 105.992188 92.046875 105.230469 91.601562 L 99.75 88.4375 C 99.480469 88.273438 99.285156 88.003906 99.242188 87.695312 C 97.289062 75.171875 97.289062 62.507812 99.242188 49.988281 C 99.285156 49.679688 99.480469 49.398438 99.75 49.246094 L 105.230469 46.082031 C 106.003906 45.636719 106.925781 46.296875 106.757812 47.175781 C 104.019531 61.476562 104.019531 76.199219 106.75 90.503906 Z M 102.449219 97.9375 C 88.707031 102.726562 75.949219 110.085938 64.941406 119.597656 C 64.269531 120.1875 63.222656 119.722656 63.222656 118.832031 L 63.222656 112.507812 C 63.222656 112.1875 63.367188 111.886719 63.617188 111.6875 C 73.480469 103.738281 84.449219 97.402344 96.265625 92.84375 C 96.554688 92.726562 96.894531 92.75 97.164062 92.914062 L 102.644531 96.066406 C 103.410156 96.511719 103.296875 97.648438 102.449219 97.9375 Z M 61.28125 106.921875 C 60.90625 107.210938 60.378906 107.210938 60.007812 106.921875 C 55.613281 103.4375 51.015625 100.285156 46.226562 97.433594 C 45.84375 97.203125 45.648438 96.75 45.742188 96.316406 C 46.476562 92.882812 47.457031 89.730469 48.644531 86.960938 C 48.957031 86.234375 49.9375 86.101562 50.414062 86.734375 C 52.75 89.832031 56.453125 91.851562 60.628906 91.851562 C 64.804688 91.851562 68.515625 89.832031 70.855469 86.734375 C 71.320312 86.101562 72.300781 86.234375 72.609375 86.960938 C 73.800781 89.730469 74.792969 92.894531 75.527344 96.335938 C 75.621094 96.769531 75.421875 97.214844 75.039062 97.441406 C 70.265625 100.296875 65.664062 103.449219 61.28125 106.921875 Z M 58.054688 118.824219 C 58.054688 119.710938 57.011719 120.175781 56.339844 119.597656 C 45.328125 110.085938 32.582031 102.726562 18.832031 97.9375 C 17.992188 97.648438 17.878906 96.511719 18.644531 96.066406 L 24.125 92.914062 C 24.390625 92.75 24.722656 92.726562 25.023438 92.84375 C 36.839844 97.402344 47.808594 103.738281 57.671875 111.6875 C 57.921875 111.886719 58.054688 112.1875 58.054688 112.507812 Z M 14.53125 90.503906 C 17.269531 76.199219 17.269531 61.476562 14.53125 47.175781 C 14.363281 46.308594 15.285156 45.636719 16.058594 46.082031 L 21.539062 49.246094 C 21.808594 49.398438 21.992188 49.679688 22.046875 49.988281 C 24 62.507812 24 75.171875 22.046875 87.695312 C 21.992188 88.003906 21.808594 88.273438 21.539062 88.429688 L 16.058594 91.589844 C 15.285156 92.035156 14.363281 91.375 14.53125 90.503906 Z M 18.832031 39.734375 C 32.582031 34.957031 45.316406 27.597656 56.339844 18.085938 C 57.011719 17.507812 58.054688 17.972656 58.054688 18.859375 L 58.054688 25.1875 C 58.054688 25.496094 57.910156 25.796875 57.660156 25.992188 C 47.800781 33.945312 36.839844 40.269531 25.023438 44.839844 C 24.722656 44.953125 24.390625 44.921875 24.125 44.769531 L 18.644531 41.605469 C 17.867188 41.160156 17.992188 40.035156 18.832031 39.734375 Z M 30.566406 49.441406 C 30.234375 48.914062 30.472656 48.210938 31.050781 47.964844 C 33.964844 46.722656 36.828125 45.378906 39.632812 43.929688 C 40.230469 43.621094 40.945312 43.953125 41.109375 44.601562 C 43 52.234375 46.101562 58.496094 49.992188 62.5625 C 50.746094 63.347656 49.90625 64.597656 48.882812 64.234375 C 41.222656 61.527344 34.773438 56.253906 30.566406 49.441406 Z M 30.566406 88.230469 C 34.421875 81.996094 40.160156 77.046875 46.980469 74.179688 C 47.777344 73.839844 48.617188 74.59375 48.367188 75.421875 C 48.128906 76.21875 47.972656 77.035156 47.890625 77.882812 C 45.019531 81.789062 42.703125 87 41.160156 93.109375 C 41.007812 93.761719 40.28125 94.09375 39.695312 93.78125 C 36.871094 92.316406 33.988281 90.960938 31.050781 89.710938 C 30.472656 89.472656 30.234375 88.769531 30.566406 88.230469 Z M 28.25 58.199219 C 28.164062 57.214844 29.394531 56.6875 30.046875 57.433594 C 33.894531 61.878906 38.699219 65.464844 44.140625 67.90625 C 44.945312 68.269531 44.945312 69.40625 44.140625 69.777344 C 38.699219 72.207031 33.894531 75.804688 30.046875 80.242188 C 29.394531 80.984375 28.164062 80.457031 28.25 79.472656 C 28.847656 72.394531 28.847656 65.289062 28.25 58.199219 Z M 57.15625 62.777344 C 57.15625 60.867188 58.714844 59.316406 60.628906 59.316406 C 62.542969 59.316406 64.101562 60.867188 64.101562 62.777344 C 64.101562 64.699219 62.542969 66.25 60.628906 66.25 C 58.714844 66.25 57.15625 64.699219 57.15625 62.777344 Z M 60.628906 71.421875 C 64.835938 71.421875 68.257812 74.84375 68.257812 79.050781 C 68.257812 83.257812 64.835938 86.679688 60.628906 86.679688 C 56.421875 86.679688 53.007812 83.257812 53.007812 79.050781 C 53.007812 74.84375 56.421875 71.421875 60.628906 71.421875 Z M 60.007812 30.757812 C 60.378906 30.46875 60.90625 30.46875 61.28125 30.757812 C 65.675781 34.242188 70.296875 37.40625 75.082031 40.261719 C 75.464844 40.488281 75.660156 40.933594 75.578125 41.367188 C 74.183594 47.984375 71.867188 53.585938 69.003906 57.359375 C 68.578125 57.910156 67.78125 57.898438 67.347656 57.371094 C 65.765625 55.40625 63.347656 54.144531 60.628906 54.144531 C 57.921875 54.144531 55.5 55.40625 53.910156 57.371094 C 53.484375 57.898438 52.679688 57.910156 52.265625 57.359375 C 49.402344 53.597656 47.085938 47.996094 45.6875 41.378906 C 45.597656 40.953125 45.792969 40.5 46.175781 40.28125 C 50.984375 37.417969 55.605469 34.242188 60.007812 30.757812 Z M 72.382812 64.234375 C 71.351562 64.597656 70.511719 63.347656 71.265625 62.5625 C 75.152344 58.488281 78.265625 52.222656 80.15625 44.59375 C 80.3125 43.941406 81.027344 43.601562 81.625 43.910156 C 84.4375 45.367188 87.300781 46.710938 90.21875 47.953125 C 90.796875 48.199219 91.035156 48.902344 90.703125 49.429688 C 86.496094 56.242188 80.042969 61.527344 72.382812 64.234375 Z M 74.285156 74.179688 C 81.109375 77.046875 86.847656 81.996094 90.703125 88.242188 C 91.035156 88.777344 90.796875 89.472656 90.21875 89.71875 C 87.28125 90.972656 84.398438 92.324219 81.574219 93.792969 C 80.972656 94.105469 80.261719 93.773438 80.097656 93.121094 C 78.566406 87.011719 76.238281 81.789062 73.367188 77.882812 C 73.292969 77.035156 73.128906 76.21875 72.890625 75.421875 C 72.640625 74.59375 73.480469 73.839844 74.285156 74.179688 Z M 93.039062 79.503906 C 93.121094 80.488281 91.890625 81.023438 91.242188 80.28125 C 87.382812 75.824219 82.578125 72.21875 77.128906 69.777344 C 76.3125 69.40625 76.3125 68.269531 77.128906 67.90625 C 82.578125 65.464844 87.382812 61.859375 91.242188 57.402344 C 91.890625 56.65625 93.121094 57.183594 93.039062 58.167969 C 92.441406 65.28125 92.441406 72.402344 93.039062 79.503906 Z M 63.222656 18.851562 C 63.222656 17.949219 64.257812 17.484375 64.929688 18.074219 C 75.949219 27.585938 88.699219 34.957031 102.449219 39.734375 C 103.296875 40.023438 103.410156 41.160156 102.644531 41.605469 L 97.164062 44.769531 C 96.894531 44.921875 96.554688 44.953125 96.265625 44.839844 C 84.449219 40.269531 73.46875 33.933594 63.605469 25.984375 C 63.359375 25.785156 63.222656 25.488281 63.222656 25.167969 Z M 120.644531 100.503906 L 113.738281 96.511719 C 113.5 96.378906 113.324219 96.140625 113.25 95.863281 C 108.765625 78.152344 108.765625 59.53125 113.25 41.8125 C 113.3125 41.542969 113.5 41.304688 113.738281 41.160156 L 120.644531 37.179688 C 121.140625 36.890625 121.304688 36.261719 121.027344 35.761719 L 119.476562 33.074219 C 119.183594 32.578125 118.554688 32.414062 118.058594 32.703125 L 111.152344 36.695312 C 110.90625 36.828125 110.617188 36.871094 110.347656 36.789062 C 92.761719 31.824219 76.632812 22.511719 63.535156 9.761719 C 63.335938 9.566406 63.222656 9.296875 63.222656 9.007812 L 63.222656 1.035156 C 63.222656 0.46875 62.757812 0.00390625 62.191406 0.00390625 L 59.089844 0.00390625 C 58.507812 0.00390625 58.054688 0.46875 58.054688 1.035156 L 58.054688 9.027344 C 58.054688 9.308594 57.941406 9.585938 57.734375 9.785156 C 44.636719 22.519531 28.515625 31.824219 10.933594 36.796875 C 10.664062 36.871094 10.375 36.839844 10.125 36.695312 L 3.207031 32.703125 C 2.710938 32.414062 2.082031 32.578125 1.792969 33.074219 L 0.242188 35.761719 C -0.0390625 36.261719 0.128906 36.890625 0.625 37.179688 L 7.539062 41.171875 C 7.789062 41.316406 7.964844 41.542969 8.035156 41.824219 C 12.523438 59.53125 12.523438 78.140625 8.035156 95.863281 C 7.976562 96.128906 7.789062 96.367188 7.550781 96.503906 L 0.625 100.503906 C 0.128906 100.792969 -0.0390625 101.421875 0.242188 101.917969 L 1.792969 104.597656 C 2.082031 105.09375 2.710938 105.269531 3.207031 104.980469 L 10.125 100.988281 C 10.375 100.84375 10.664062 100.8125 10.933594 100.886719 C 28.515625 105.859375 44.636719 115.164062 57.734375 127.898438 C 57.941406 128.097656 58.054688 128.363281 58.054688 128.65625 L 58.054688 136.644531 C 58.054688 137.214844 58.507812 137.679688 59.089844 137.679688 L 62.191406 137.679688 C 62.757812 137.679688 63.222656 137.214844 63.222656 136.644531 L 63.222656 128.664062 C 63.222656 128.386719 63.335938 128.105469 63.535156 127.910156 C 76.632812 115.171875 92.761719 105.859375 110.347656 100.886719 C 110.617188 100.8125 110.90625 100.84375 111.152344 100.988281 L 118.058594 104.980469 C 118.554688 105.269531 119.183594 105.09375 119.476562 104.597656 L 121.027344 101.917969 C 121.304688 101.421875 121.140625 100.792969 120.644531 100.503906 "/>
</g>
</g>
</svg>
