<?xml version="1.0" encoding="UTF-8"?>
<svg xmlns="http://www.w3.org/2000/svg" xmlns:xlink="http://www.w3.org/1999/xlink" width="289.79pt" height="258.36pt" viewBox="0 0 289.79 258.36" version="1.2">
<defs>
<clipPath id="clip1">
  <path d="M 52 247 L 62 247 L 62 257.722656 L 52 257.722656 Z M 52 247 "/>
</clipPath>
<clipPath id="clip2">
  <path d="M 204 247 L 213 247 L 213 257.722656 L 204 257.722656 Z M 204 247 "/>
</clipPath>
<clipPath id="clip3">
  <path d="M 240 244 L 248 244 L 248 257.722656 L 240 257.722656 Z M 240 244 "/>
</clipPath>
<clipPath id="clip4">
  <path d="M 0.253906 187 L 38 187 L 38 233 L 0.253906 233 Z M 0.253906 187 "/>
</clipPath>
<clipPath id="clip5">
  <path d="M 252 187 L 289.328125 187 L 289.328125 233 L 252 233 Z M 252 187 "/>
</clipPath>
</defs>
<g id="surface1">
<path style=" stroke:none;fill-rule:nonzero;fill:rgb(92.871094%,13.111877%,17.172241%);fill-opacity:1;" d="M 25.800781 249.863281 C 25.800781 249.039062 25.496094 248.59375 24.941406 248.59375 C 23.53125 248.59375 22.597656 251.226562 22.597656 252.507812 C 22.597656 253.441406 22.929688 253.917969 23.515625 253.917969 C 24.800781 253.917969 25.800781 251.144531 25.800781 249.863281 Z M 27.019531 252.585938 C 26.890625 253 26.84375 253.285156 26.84375 253.492188 C 26.84375 253.761719 26.972656 253.902344 27.210938 253.902344 C 27.558594 253.902344 27.90625 253.363281 28.269531 252.300781 L 29.03125 252.539062 C 28.414062 254.472656 27.558594 255.1875 26.589844 255.1875 C 25.847656 255.1875 25.292969 254.710938 25.292969 253.792969 C 25.292969 253.679688 25.292969 253.601562 25.308594 253.441406 L 25.195312 253.394531 C 24.59375 254.585938 23.691406 255.1875 22.789062 255.1875 C 21.425781 255.1875 20.679688 254.0625 20.679688 252.667969 C 20.679688 251.050781 21.332031 249.609375 22.1875 248.769531 C 22.929688 248.007812 23.769531 247.566406 24.65625 247.566406 C 25.546875 247.566406 26.050781 248.183594 26.195312 248.894531 L 26.511719 247.675781 L 28.316406 247.675781 L 27.019531 252.585938 "/>
<path style=" stroke:none;fill-rule:nonzero;fill:rgb(92.871094%,13.111877%,17.172241%);fill-opacity:1;" d="M 36.96875 253.902344 C 37.300781 253.902344 37.636719 253.394531 38.0625 252.300781 L 38.808594 252.539062 C 38.175781 254.457031 37.285156 255.1875 36.382812 255.1875 C 35.527344 255.1875 34.972656 254.632812 34.972656 253.710938 C 34.972656 252.128906 36.019531 250.558594 36.019531 249.480469 C 36.019531 249.117188 35.859375 248.960938 35.589844 248.960938 C 34.863281 248.960938 33.5 250.164062 32.230469 255.027344 L 30.332031 255.027344 L 31.691406 249.894531 C 31.929688 248.992188 31.882812 248.738281 31.597656 248.738281 C 31.234375 248.738281 30.820312 249.417969 30.363281 250.402344 L 29.617188 250.085938 C 30.296875 248.5 31.089844 247.582031 32.152344 247.582031 C 32.835938 247.582031 33.308594 248.070312 33.308594 249.054688 C 33.308594 249.515625 33.214844 250.085938 32.976562 250.8125 L 33.085938 250.859375 C 34.132812 248.625 35.304688 247.566406 36.429688 247.566406 C 37.316406 247.566406 37.871094 248.261719 37.871094 249.214844 C 37.871094 250.558594 36.699219 252.585938 36.699219 253.554688 C 36.699219 253.792969 36.796875 253.902344 36.96875 253.902344 "/>
<path style=" stroke:none;fill-rule:nonzero;fill:rgb(92.871094%,13.111877%,17.172241%);fill-opacity:1;" d="M 44.875 251.398438 C 44.875 253.238281 45.777344 254.125 47.269531 254.125 C 49.851562 254.125 50.898438 250.273438 50.898438 248.230469 C 50.898438 246.390625 49.976562 245.503906 48.503906 245.503906 C 45.90625 245.503906 44.875 249.355469 44.875 251.398438 Z M 48.582031 244.347656 C 51.183594 244.347656 53.003906 246.203125 53.003906 248.925781 C 53.003906 251.984375 50.707031 255.28125 47.1875 255.28125 C 44.589844 255.28125 42.753906 253.425781 42.753906 250.703125 C 42.753906 247.644531 45.050781 244.347656 48.582031 244.347656 "/>
<g clip-path="url(#clip1)" clip-rule="nonzero">
<path style=" stroke:none;fill-rule:nonzero;fill:rgb(92.871094%,13.111877%,17.172241%);fill-opacity:1;" d="M 56.742188 252.746094 C 56.742188 253.523438 57.074219 254.0625 57.773438 254.0625 C 59.183594 254.0625 59.976562 251.398438 59.976562 250.148438 C 59.976562 249.257812 59.691406 248.800781 59.105469 248.800781 C 57.835938 248.800781 56.742188 251.351562 56.742188 252.746094 Z M 55.460938 248.878906 C 55.09375 248.878906 54.808594 249.339844 54.304688 250.402344 L 53.558594 250.085938 C 54.320312 248.339844 55.0625 247.582031 56.0625 247.582031 C 56.773438 247.582031 57.25 248.101562 57.25 249.007812 C 57.25 249.117188 57.234375 249.257812 57.21875 249.402344 L 57.34375 249.449219 C 57.945312 248.199219 58.914062 247.566406 59.785156 247.566406 C 61.117188 247.566406 61.878906 248.65625 61.878906 250.132812 C 61.878906 252.683594 60.117188 255.042969 58.167969 255.042969 C 57.328125 255.042969 56.664062 254.617188 56.363281 253.980469 L 55.730469 256.34375 L 57.21875 256.34375 L 56.902344 257.515625 L 52.511719 257.515625 L 52.828125 256.34375 L 53.90625 256.34375 L 55.585938 250.070312 C 55.824219 249.179688 55.746094 248.878906 55.460938 248.878906 "/>
</g>
<path style=" stroke:none;fill-rule:nonzero;fill:rgb(92.871094%,13.111877%,17.172241%);fill-opacity:1;" d="M 64.824219 251.304688 C 67.027344 251.066406 67.832031 250.210938 67.832031 249.230469 C 67.832031 248.785156 67.582031 248.4375 67.105469 248.4375 C 65.996094 248.4375 65.15625 249.941406 64.824219 251.304688 Z M 64.679688 252.046875 C 64.664062 252.175781 64.664062 252.300781 64.664062 252.414062 C 64.664062 253.726562 65.347656 254.140625 66.136719 254.140625 C 66.914062 254.140625 67.691406 253.617188 68.355469 252.683594 L 69.023438 253.160156 C 68.214844 254.316406 67.230469 255.1875 65.550781 255.1875 C 63.921875 255.1875 62.78125 254.046875 62.78125 252.300781 C 62.78125 249.863281 64.886719 247.566406 67.375 247.566406 C 68.738281 247.566406 69.496094 248.246094 69.496094 249.214844 C 69.496094 250.636719 68.007812 251.859375 64.679688 252.046875 "/>
<path style=" stroke:none;fill-rule:nonzero;fill:rgb(92.871094%,13.111877%,17.172241%);fill-opacity:1;" d="M 77.65625 253.902344 C 77.992188 253.902344 78.324219 253.394531 78.75 252.300781 L 79.496094 252.539062 C 78.863281 254.457031 77.976562 255.1875 77.070312 255.1875 C 76.214844 255.1875 75.660156 254.632812 75.660156 253.710938 C 75.660156 252.128906 76.707031 250.558594 76.707031 249.480469 C 76.707031 249.117188 76.546875 248.960938 76.28125 248.960938 C 75.550781 248.960938 74.1875 250.164062 72.921875 255.027344 L 71.019531 255.027344 L 72.382812 249.894531 C 72.617188 248.992188 72.570312 248.738281 72.285156 248.738281 C 71.921875 248.738281 71.511719 249.417969 71.050781 250.402344 L 70.304688 250.085938 C 70.988281 248.5 71.777344 247.582031 72.839844 247.582031 C 73.523438 247.582031 73.996094 248.070312 73.996094 249.054688 C 73.996094 249.515625 73.902344 250.085938 73.664062 250.8125 L 73.777344 250.859375 C 74.820312 248.625 75.992188 247.566406 77.121094 247.566406 C 78.007812 247.566406 78.5625 248.261719 78.5625 249.214844 C 78.5625 250.558594 77.386719 252.585938 77.386719 253.554688 C 77.386719 253.792969 77.484375 253.902344 77.65625 253.902344 "/>
<path style=" stroke:none;fill-rule:nonzero;fill:rgb(92.871094%,13.111877%,17.172241%);fill-opacity:1;" d="M 81.144531 251.320312 L 82.269531 251.320312 C 82.570312 253.222656 83.679688 254.15625 85.074219 254.15625 C 86.324219 254.15625 87.054688 253.363281 87.054688 252.539062 C 87.054688 251.621094 86.007812 251.195312 84.882812 250.667969 C 83.566406 250.085938 82.125 249.386719 82.125 247.707031 C 82.125 245.933594 83.726562 244.347656 85.832031 244.347656 C 86.957031 244.347656 88.003906 244.808594 88.527344 245.554688 L 89.175781 244.394531 L 90.367188 244.394531 L 89.429688 248.152344 L 88.320312 248.152344 C 87.988281 246.1875 87.195312 245.457031 85.832031 245.457031 C 84.804688 245.457031 84.074219 246.203125 84.074219 247.027344 C 84.074219 248.023438 85.152344 248.453125 86.292969 248.960938 C 87.59375 249.515625 88.988281 250.179688 88.988281 251.84375 C 88.988281 253.792969 87.257812 255.28125 85.089844 255.28125 C 83.710938 255.28125 82.679688 254.773438 82.078125 254.011719 L 81.378906 255.234375 L 80.191406 255.234375 L 81.144531 251.320312 "/>
<path style=" stroke:none;fill-rule:nonzero;fill:rgb(92.871094%,13.111877%,17.172241%);fill-opacity:1;" d="M 94.183594 248.863281 L 93.230469 252.332031 C 93.121094 252.730469 93.042969 253.09375 93.042969 253.285156 C 93.042969 253.710938 93.265625 253.855469 93.597656 253.855469 C 94.167969 253.855469 94.644531 253.160156 95.085938 252.144531 L 95.847656 252.398438 C 95.070312 254.648438 93.851562 255.1875 92.996094 255.1875 C 91.949219 255.1875 91.203125 254.664062 91.203125 253.585938 C 91.203125 253.125 91.378906 252.460938 91.488281 252.019531 L 92.34375 248.863281 L 90.949219 248.863281 L 91.203125 247.898438 L 92.597656 247.898438 L 93.121094 245.996094 L 95.007812 245.789062 L 94.4375 247.898438 L 96.6875 247.898438 L 96.433594 248.863281 L 94.183594 248.863281 "/>
<path style=" stroke:none;fill-rule:nonzero;fill:rgb(92.871094%,13.111877%,17.172241%);fill-opacity:1;" d="M 102.199219 249.863281 C 102.199219 249.039062 101.898438 248.59375 101.34375 248.59375 C 99.933594 248.59375 99 251.226562 99 252.507812 C 99 253.441406 99.332031 253.917969 99.917969 253.917969 C 101.203125 253.917969 102.199219 251.144531 102.199219 249.863281 Z M 103.421875 252.585938 C 103.292969 253 103.246094 253.285156 103.246094 253.492188 C 103.246094 253.761719 103.371094 253.902344 103.609375 253.902344 C 103.960938 253.902344 104.308594 253.363281 104.671875 252.300781 L 105.433594 252.539062 C 104.816406 254.472656 103.960938 255.1875 102.992188 255.1875 C 102.25 255.1875 101.691406 254.710938 101.691406 253.792969 C 101.691406 253.679688 101.691406 253.601562 101.710938 253.441406 L 101.597656 253.394531 C 100.996094 254.585938 100.09375 255.1875 99.191406 255.1875 C 97.828125 255.1875 97.082031 254.0625 97.082031 252.667969 C 97.082031 251.050781 97.730469 249.609375 98.585938 248.769531 C 99.332031 248.007812 100.171875 247.566406 101.058594 247.566406 C 101.949219 247.566406 102.453125 248.183594 102.597656 248.894531 L 102.914062 247.675781 L 104.71875 247.675781 L 103.421875 252.585938 "/>
<path style=" stroke:none;fill-rule:nonzero;fill:rgb(92.871094%,13.111877%,17.172241%);fill-opacity:1;" d="M 112.691406 249.433594 C 112.691406 250.117188 112.261719 250.796875 111.582031 250.796875 C 111.011719 250.796875 110.644531 250.417969 110.644531 249.941406 C 110.644531 249.496094 110.914062 249.132812 111.296875 248.863281 C 111.167969 248.640625 110.898438 248.46875 110.421875 248.46875 C 108.839844 248.46875 107.90625 250.890625 107.90625 252.269531 C 107.90625 253.632812 108.632812 254.0625 109.347656 254.0625 C 110.074219 254.0625 110.773438 253.539062 111.40625 252.554688 L 112.085938 253.015625 C 111.40625 254.203125 110.472656 255.1875 108.917969 255.1875 C 107.175781 255.1875 106.003906 253.996094 106.003906 252.269531 C 106.003906 249.796875 108.125 247.566406 110.390625 247.566406 C 111.722656 247.566406 112.691406 248.308594 112.691406 249.433594 "/>
<path style=" stroke:none;fill-rule:nonzero;fill:rgb(92.871094%,13.111877%,17.172241%);fill-opacity:1;" d="M 119.40625 253.902344 C 119.757812 253.902344 120.058594 253.394531 120.46875 252.300781 L 121.214844 252.539062 C 120.613281 254.457031 119.789062 255.1875 118.871094 255.1875 C 117.980469 255.1875 117.394531 254.601562 117.394531 253.570312 C 117.394531 253.125 117.570312 252.492188 117.570312 252.144531 C 117.570312 251.558594 117.316406 251.414062 116.160156 251.414062 L 116.128906 251.414062 L 115.160156 255.027344 L 113.371094 255.027344 L 115.9375 245.347656 L 114.621094 245.347656 L 114.9375 244.109375 L 118.09375 244.109375 L 116.320312 250.703125 L 116.398438 250.703125 C 117.238281 250.703125 117.585938 250.226562 118.28125 249.070312 C 118.804688 248.214844 119.328125 247.566406 120.265625 247.566406 C 121.023438 247.566406 121.4375 248.039062 121.4375 248.722656 C 121.4375 249.386719 121.007812 250.050781 120.359375 250.050781 C 119.726562 250.050781 119.390625 249.496094 119.613281 248.847656 C 119.390625 248.894531 119.15625 249.164062 118.789062 249.765625 C 118.472656 250.355469 118.21875 250.6875 117.746094 250.941406 C 118.871094 251.035156 119.234375 251.527344 119.234375 252.269531 C 119.234375 252.730469 119.105469 253.191406 119.105469 253.476562 C 119.105469 253.792969 119.234375 253.902344 119.40625 253.902344 "/>
<path style=" stroke:none;fill-rule:nonzero;fill:rgb(92.871094%,13.111877%,17.172241%);fill-opacity:1;" d="M 128.074219 250.859375 C 128.074219 247.675781 130.417969 244.347656 133.90625 244.347656 C 135.222656 244.347656 136.203125 244.824219 136.742188 245.632812 L 137.390625 244.394531 L 138.613281 244.394531 L 137.597656 248.515625 L 136.410156 248.515625 C 136.25 246.234375 135.25 245.503906 133.96875 245.503906 C 131.164062 245.503906 130.199219 249.277344 130.199219 251.019531 C 130.199219 253.125 131.273438 254.011719 132.652344 254.011719 C 134.332031 254.011719 135.316406 252.746094 136.109375 250.875 L 137.234375 251.273438 C 136.441406 253.492188 134.964844 255.28125 132.433594 255.28125 C 129.515625 255.28125 128.074219 253.425781 128.074219 250.859375 "/>
<path style=" stroke:none;fill-rule:nonzero;fill:rgb(92.871094%,13.111877%,17.172241%);fill-opacity:1;" d="M 142.460938 248.4375 C 140.988281 248.4375 140.148438 251.320312 140.148438 252.859375 C 140.148438 253.871094 140.574219 254.300781 141.257812 254.300781 C 142.730469 254.300781 143.570312 251.414062 143.570312 249.878906 C 143.570312 248.863281 143.144531 248.4375 142.460938 248.4375 Z M 145.457031 250.625 C 145.457031 253.09375 143.476562 255.1875 141.273438 255.1875 C 139.449219 255.1875 138.261719 253.902344 138.261719 252.113281 C 138.261719 249.640625 140.242188 247.566406 142.445312 247.566406 C 144.265625 247.566406 145.457031 248.832031 145.457031 250.625 "/>
<path style=" stroke:none;fill-rule:nonzero;fill:rgb(92.871094%,13.111877%,17.172241%);fill-opacity:1;" d="M 155.753906 253.710938 C 155.753906 252.128906 156.800781 250.558594 156.800781 249.480469 C 156.800781 249.117188 156.640625 248.960938 156.371094 248.960938 C 155.675781 248.960938 154.296875 250.164062 153.03125 255.027344 L 151.160156 255.027344 L 152.269531 250.84375 C 152.410156 250.320312 152.492188 249.941406 152.492188 249.640625 C 152.492188 249.257812 152.363281 248.960938 152.015625 248.960938 C 151.289062 248.960938 149.925781 250.164062 148.65625 255.027344 L 146.753906 255.027344 L 148.117188 249.894531 C 148.355469 248.992188 148.308594 248.738281 148.023438 248.738281 C 147.65625 248.738281 147.246094 249.417969 146.785156 250.402344 L 146.042969 250.085938 C 146.722656 248.5 147.515625 247.582031 148.578125 247.582031 C 149.257812 247.582031 149.734375 248.070312 149.734375 249.054688 C 149.734375 249.515625 149.636719 250.085938 149.402344 250.8125 L 149.511719 250.859375 C 150.558594 248.625 151.730469 247.566406 152.808594 247.566406 C 153.679688 247.566406 154.140625 248.152344 154.140625 249.101562 C 154.140625 249.546875 154.011719 250.085938 153.773438 250.8125 L 153.886719 250.859375 C 154.929688 248.625 156.101562 247.566406 157.226562 247.566406 C 158.101562 247.566406 158.65625 248.261719 158.65625 249.214844 C 158.65625 250.558594 157.480469 252.585938 157.480469 253.554688 C 157.480469 253.792969 157.578125 253.902344 157.75 253.902344 C 158.085938 253.902344 158.417969 253.394531 158.84375 252.300781 L 159.589844 252.539062 C 158.957031 254.457031 158.070312 255.1875 157.164062 255.1875 C 156.308594 255.1875 155.753906 254.632812 155.753906 253.710938 "/>
<path style=" stroke:none;fill-rule:nonzero;fill:rgb(92.871094%,13.111877%,17.172241%);fill-opacity:1;" d="M 169.652344 253.710938 C 169.652344 252.128906 170.695312 250.558594 170.695312 249.480469 C 170.695312 249.117188 170.539062 248.960938 170.269531 248.960938 C 169.570312 248.960938 168.191406 250.164062 166.925781 255.027344 L 165.054688 255.027344 L 166.164062 250.84375 C 166.308594 250.320312 166.386719 249.941406 166.386719 249.640625 C 166.386719 249.257812 166.257812 248.960938 165.910156 248.960938 C 165.183594 248.960938 163.820312 250.164062 162.550781 255.027344 L 160.648438 255.027344 L 162.011719 249.894531 C 162.25 248.992188 162.203125 248.738281 161.917969 248.738281 C 161.554688 248.738281 161.144531 249.417969 160.683594 250.402344 L 159.9375 250.085938 C 160.617188 248.5 161.410156 247.582031 162.472656 247.582031 C 163.152344 247.582031 163.628906 248.070312 163.628906 249.054688 C 163.628906 249.515625 163.535156 250.085938 163.296875 250.8125 L 163.40625 250.859375 C 164.453125 248.625 165.625 247.566406 166.703125 247.566406 C 167.574219 247.566406 168.035156 248.152344 168.035156 249.101562 C 168.035156 249.546875 167.90625 250.085938 167.671875 250.8125 L 167.78125 250.859375 C 168.828125 248.625 170 247.566406 171.125 247.566406 C 171.996094 247.566406 172.550781 248.261719 172.550781 249.214844 C 172.550781 250.558594 171.378906 252.585938 171.378906 253.554688 C 171.378906 253.792969 171.472656 253.902344 171.648438 253.902344 C 171.980469 253.902344 172.3125 253.394531 172.742188 252.300781 L 173.484375 252.539062 C 172.851562 254.457031 171.964844 255.1875 171.0625 255.1875 C 170.207031 255.1875 169.652344 254.632812 169.652344 253.710938 "/>
<path style=" stroke:none;fill-rule:nonzero;fill:rgb(92.871094%,13.111877%,17.172241%);fill-opacity:1;" d="M 179.394531 253.699219 C 179.394531 253.300781 179.492188 252.699219 179.742188 251.890625 L 179.632812 251.84375 C 178.585938 254.140625 177.476562 255.1875 176.335938 255.1875 C 175.464844 255.1875 174.894531 254.503906 174.894531 253.523438 C 174.894531 252.191406 176.019531 250.085938 176.019531 249.179688 C 176.019531 248.960938 175.925781 248.847656 175.78125 248.847656 C 175.449219 248.847656 175.179688 249.195312 174.609375 250.382812 L 173.867188 250.070312 C 174.515625 248.5 175.355469 247.566406 176.449219 247.566406 C 177.289062 247.566406 177.78125 248.089844 177.78125 249.007812 C 177.78125 250.480469 176.734375 252.160156 176.734375 253.175781 C 176.734375 253.617188 176.90625 253.792969 177.175781 253.792969 C 177.890625 253.792969 179.203125 252.621094 180.503906 247.675781 L 182.40625 247.675781 L 181.105469 252.585938 C 180.980469 253.015625 180.933594 253.285156 180.933594 253.492188 C 180.933594 253.761719 181.074219 253.902344 181.296875 253.902344 C 181.660156 253.902344 181.992188 253.363281 182.359375 252.300781 L 183.121094 252.539062 C 182.5 254.472656 181.644531 255.1875 180.742188 255.1875 C 179.917969 255.1875 179.394531 254.726562 179.394531 253.699219 "/>
<path style=" stroke:none;fill-rule:nonzero;fill:rgb(92.871094%,13.111877%,17.172241%);fill-opacity:1;" d="M 190.695312 253.902344 C 191.027344 253.902344 191.359375 253.394531 191.785156 252.300781 L 192.53125 252.539062 C 191.898438 254.457031 191.011719 255.1875 190.105469 255.1875 C 189.25 255.1875 188.695312 254.632812 188.695312 253.710938 C 188.695312 252.128906 189.742188 250.558594 189.742188 249.480469 C 189.742188 249.117188 189.582031 248.960938 189.316406 248.960938 C 188.585938 248.960938 187.222656 250.164062 185.957031 255.027344 L 184.054688 255.027344 L 185.417969 249.894531 C 185.652344 248.992188 185.605469 248.738281 185.320312 248.738281 C 184.957031 248.738281 184.546875 249.417969 184.085938 250.402344 L 183.339844 250.085938 C 184.023438 248.5 184.8125 247.582031 185.875 247.582031 C 186.558594 247.582031 187.03125 248.070312 187.03125 249.054688 C 187.03125 249.515625 186.9375 250.085938 186.699219 250.8125 L 186.8125 250.859375 C 187.855469 248.625 189.03125 247.566406 190.15625 247.566406 C 191.039062 247.566406 191.597656 248.261719 191.597656 249.214844 C 191.597656 250.558594 190.421875 252.585938 190.421875 253.554688 C 190.421875 253.792969 190.519531 253.902344 190.695312 253.902344 "/>
<path style=" stroke:none;fill-rule:nonzero;fill:rgb(92.871094%,13.111877%,17.172241%);fill-opacity:1;" d="M 196.523438 246.457031 C 195.96875 246.457031 195.539062 246.074219 195.539062 245.441406 C 195.539062 244.792969 196.03125 244.046875 196.871094 244.046875 C 197.472656 244.046875 197.886719 244.425781 197.886719 245.0625 C 197.886719 245.695312 197.363281 246.457031 196.523438 246.457031 Z M 195.761719 253.523438 C 195.761719 253.792969 195.875 253.902344 196.078125 253.902344 C 196.378906 253.902344 196.730469 253.476562 197.203125 252.300781 L 197.949219 252.539062 C 197.332031 254.410156 196.441406 255.1875 195.429688 255.1875 C 194.605469 255.1875 194.003906 254.648438 194.003906 253.699219 C 194.003906 252.191406 195.316406 250.070312 195.316406 249.085938 C 195.316406 248.832031 195.222656 248.738281 195.082031 248.738281 C 194.636719 248.738281 194.242188 249.417969 193.796875 250.402344 L 193.035156 250.085938 C 193.71875 248.5 194.558594 247.566406 195.636719 247.566406 C 196.460938 247.566406 197.046875 248.152344 197.046875 249.164062 C 197.046875 250.402344 195.761719 252.601562 195.761719 253.523438 "/>
<path style=" stroke:none;fill-rule:nonzero;fill:rgb(92.871094%,13.111877%,17.172241%);fill-opacity:1;" d="M 202.117188 248.863281 L 201.164062 252.332031 C 201.054688 252.730469 200.972656 253.09375 200.972656 253.285156 C 200.972656 253.710938 201.195312 253.855469 201.53125 253.855469 C 202.097656 253.855469 202.574219 253.160156 203.019531 252.144531 L 203.78125 252.398438 C 203.003906 254.648438 201.78125 255.1875 200.925781 255.1875 C 199.882812 255.1875 199.136719 254.664062 199.136719 253.585938 C 199.136719 253.125 199.3125 252.460938 199.421875 252.019531 L 200.277344 248.863281 L 198.882812 248.863281 L 199.136719 247.898438 L 200.53125 247.898438 L 201.054688 245.996094 L 202.9375 245.789062 L 202.371094 247.898438 L 204.621094 247.898438 L 204.367188 248.863281 L 202.117188 248.863281 "/>
<g clip-path="url(#clip2)" clip-rule="nonzero">
<path style=" stroke:none;fill-rule:nonzero;fill:rgb(92.871094%,13.111877%,17.172241%);fill-opacity:1;" d="M 208.359375 248.941406 C 208.359375 250.402344 207.441406 251.828125 207.441406 252.746094 C 207.441406 253.140625 207.613281 253.300781 207.960938 253.300781 C 208.800781 253.300781 209.929688 252.351562 211.132812 247.675781 L 212.90625 247.675781 L 211.449219 253.792969 C 210.769531 256.707031 209.167969 257.722656 207.1875 257.722656 C 206.078125 257.722656 204.746094 257.421875 204.746094 256.246094 C 204.746094 255.742188 205.125 255.105469 205.839844 255.105469 C 206.472656 255.105469 206.789062 255.550781 206.757812 256.074219 C 206.742188 256.328125 206.601562 256.613281 206.441406 256.753906 C 206.632812 256.820312 206.871094 256.867188 207.171875 256.867188 C 208.40625 256.867188 209.246094 255.867188 209.785156 253.664062 L 210.101562 252.414062 L 210.007812 252.367188 C 209.089844 254.046875 208.105469 254.664062 207.1875 254.664062 C 206.140625 254.664062 205.617188 253.933594 205.617188 253.015625 C 205.617188 251.796875 206.632812 250.085938 206.632812 249.179688 C 206.632812 248.976562 206.535156 248.847656 206.394531 248.847656 C 205.996094 248.847656 205.617188 249.496094 205.191406 250.402344 L 204.445312 250.085938 C 205.144531 248.5 206.011719 247.566406 207.058594 247.566406 C 207.867188 247.566406 208.359375 248.101562 208.359375 248.941406 "/>
</g>
<path style=" stroke:none;fill-rule:nonzero;fill:rgb(92.871094%,13.111877%,17.172241%);fill-opacity:1;" d="M 221.320312 249.734375 C 223.347656 249.734375 224.0625 248.46875 224.0625 247.25 C 224.0625 246.328125 223.503906 245.773438 221.9375 245.773438 L 221.253906 245.773438 L 220.273438 249.734375 Z M 219.242188 253.839844 L 220.96875 253.839844 L 220.703125 255.027344 L 215.378906 255.027344 L 215.648438 253.839844 L 217.246094 253.839844 L 219.242188 245.789062 L 217.628906 245.789062 L 217.929688 244.601562 L 222.316406 244.601562 C 225.1875 244.601562 226.277344 245.773438 226.277344 247.261719 C 226.277344 248.847656 225.1875 250.859375 221.253906 250.859375 L 219.988281 250.859375 L 219.242188 253.839844 "/>
<path style=" stroke:none;fill-rule:nonzero;fill:rgb(92.871094%,13.111877%,17.172241%);fill-opacity:1;" d="M 228.75 249.894531 C 228.988281 248.992188 228.941406 248.738281 228.65625 248.738281 C 228.289062 248.738281 227.878906 249.417969 227.417969 250.402344 L 226.675781 250.085938 C 227.355469 248.5 228.148438 247.582031 229.210938 247.582031 C 229.890625 247.582031 230.367188 248.070312 230.367188 249.054688 C 230.367188 249.515625 230.273438 250.070312 230.050781 250.765625 L 230.175781 250.8125 C 231.09375 248.722656 231.855469 247.566406 232.964844 247.566406 C 233.632812 247.566406 234.121094 248.023438 234.121094 248.769531 C 234.121094 249.5625 233.613281 250.195312 232.980469 250.195312 C 232.425781 250.195312 232 249.832031 232.03125 249.164062 C 231.570312 249.355469 230.429688 250.703125 229.289062 255.027344 L 227.386719 255.027344 L 228.75 249.894531 "/>
<path style=" stroke:none;fill-rule:nonzero;fill:rgb(92.871094%,13.111877%,17.172241%);fill-opacity:1;" d="M 238.652344 248.4375 C 237.179688 248.4375 236.339844 251.320312 236.339844 252.859375 C 236.339844 253.871094 236.765625 254.300781 237.449219 254.300781 C 238.921875 254.300781 239.761719 251.414062 239.761719 249.878906 C 239.761719 248.863281 239.335938 248.4375 238.652344 248.4375 Z M 241.648438 250.625 C 241.648438 253.09375 239.667969 255.1875 237.464844 255.1875 C 235.640625 255.1875 234.453125 253.902344 234.453125 252.113281 C 234.453125 249.640625 236.433594 247.566406 238.636719 247.566406 C 240.460938 247.566406 241.648438 248.832031 241.648438 250.625 "/>
<g clip-path="url(#clip3)" clip-rule="nonzero">
<path style=" stroke:none;fill-rule:nonzero;fill:rgb(92.871094%,13.111877%,17.172241%);fill-opacity:1;" d="M 246.511719 246.457031 C 245.957031 246.457031 245.53125 246.074219 245.53125 245.441406 C 245.53125 244.792969 246.039062 244.046875 246.859375 244.046875 C 247.464844 244.046875 247.875 244.425781 247.875 245.0625 C 247.875 245.695312 247.351562 246.457031 246.511719 246.457031 Z M 246.8125 250.417969 L 245.816406 254.203125 C 245.148438 256.722656 243.914062 257.722656 242.457031 257.722656 C 241.347656 257.722656 240.871094 257.199219 240.871094 256.597656 C 240.871094 256.011719 241.300781 255.472656 241.917969 255.472656 C 242.457031 255.472656 242.742188 255.867188 242.742188 256.28125 C 242.742188 256.613281 242.613281 256.882812 242.488281 257.039062 C 243.167969 257.054688 243.4375 256.644531 244.023438 254.378906 L 245.070312 250.371094 C 245.164062 249.988281 245.308594 249.433594 245.308594 249.101562 C 245.308594 248.816406 245.179688 248.738281 245.039062 248.738281 C 244.65625 248.738281 244.246094 249.417969 243.785156 250.402344 L 243.042969 250.085938 C 243.722656 248.5 244.546875 247.566406 245.65625 247.566406 C 246.464844 247.566406 247.035156 248.183594 247.035156 249.070312 C 247.035156 249.433594 246.957031 249.878906 246.8125 250.417969 "/>
</g>
<path style=" stroke:none;fill-rule:nonzero;fill:rgb(92.871094%,13.111877%,17.172241%);fill-opacity:1;" d="M 250.378906 251.304688 C 252.582031 251.066406 253.386719 250.210938 253.386719 249.230469 C 253.386719 248.785156 253.136719 248.4375 252.660156 248.4375 C 251.550781 248.4375 250.710938 249.941406 250.378906 251.304688 Z M 250.234375 252.046875 C 250.21875 252.175781 250.21875 252.300781 250.21875 252.414062 C 250.21875 253.726562 250.902344 254.140625 251.695312 254.140625 C 252.46875 254.140625 253.246094 253.617188 253.910156 252.683594 L 254.578125 253.160156 C 253.769531 254.316406 252.785156 255.1875 251.105469 255.1875 C 249.476562 255.1875 248.332031 254.046875 248.332031 252.300781 C 248.332031 249.863281 250.441406 247.566406 252.929688 247.566406 C 254.289062 247.566406 255.050781 248.246094 255.050781 249.214844 C 255.050781 250.636719 253.5625 251.859375 250.234375 252.046875 "/>
<path style=" stroke:none;fill-rule:nonzero;fill:rgb(92.871094%,13.111877%,17.172241%);fill-opacity:1;" d="M 262.6875 249.433594 C 262.6875 250.117188 262.261719 250.796875 261.578125 250.796875 C 261.007812 250.796875 260.644531 250.417969 260.644531 249.941406 C 260.644531 249.496094 260.914062 249.132812 261.292969 248.863281 C 261.167969 248.640625 260.898438 248.46875 260.421875 248.46875 C 258.839844 248.46875 257.902344 250.890625 257.902344 252.269531 C 257.902344 253.632812 258.632812 254.0625 259.34375 254.0625 C 260.074219 254.0625 260.773438 253.539062 261.40625 252.554688 L 262.085938 253.015625 C 261.40625 254.203125 260.46875 255.1875 258.917969 255.1875 C 257.175781 255.1875 256 253.996094 256 252.269531 C 256 249.796875 258.125 247.566406 260.390625 247.566406 C 261.722656 247.566406 262.6875 248.308594 262.6875 249.433594 "/>
<path style=" stroke:none;fill-rule:nonzero;fill:rgb(92.871094%,13.111877%,17.172241%);fill-opacity:1;" d="M 267.109375 248.863281 L 266.160156 252.332031 C 266.050781 252.730469 265.96875 253.09375 265.96875 253.285156 C 265.96875 253.710938 266.191406 253.855469 266.523438 253.855469 C 267.09375 253.855469 267.570312 253.160156 268.011719 252.144531 L 268.773438 252.398438 C 267.996094 254.648438 266.777344 255.1875 265.921875 255.1875 C 264.875 255.1875 264.132812 254.664062 264.132812 253.585938 C 264.132812 253.125 264.304688 252.460938 264.414062 252.019531 L 265.273438 248.863281 L 263.878906 248.863281 L 264.132812 247.898438 L 265.523438 247.898438 L 266.050781 245.996094 L 267.933594 245.789062 L 267.363281 247.898438 L 269.613281 247.898438 L 269.359375 248.863281 L 267.109375 248.863281 "/>
<g clip-path="url(#clip4)" clip-rule="nonzero">
<path style=" stroke:none;fill-rule:nonzero;fill:rgb(12.452698%,9.849548%,8.714294%);fill-opacity:1;" d="M 0.253906 187.339844 L 11.042969 187.339844 L 25.914062 209.8125 L 25.914062 187.339844 L 37.214844 187.339844 L 37.214844 232.027344 L 27 232.027344 L 11.550781 208.597656 L 11.550781 232.027344 L 0.253906 232.027344 L 0.253906 187.339844 "/>
</g>
<path style=" stroke:none;fill-rule:nonzero;fill:rgb(12.452698%,9.849548%,8.714294%);fill-opacity:1;" d="M 45.199219 187.339844 L 75.96875 187.339844 L 75.96875 197.425781 L 56.5625 197.425781 L 56.5625 204.765625 L 74.050781 204.765625 L 74.050781 214.277344 L 56.5625 214.277344 L 56.5625 221.941406 L 76.222656 221.941406 L 76.222656 232.027344 L 45.199219 232.027344 L 45.199219 187.339844 "/>
<path style=" stroke:none;fill-rule:nonzero;fill:rgb(12.452698%,9.849548%,8.714294%);fill-opacity:1;" d="M 82.542969 214.34375 L 82.542969 187.339844 L 94.097656 187.339844 L 94.097656 214.46875 C 94.097656 219.832031 96.714844 222.386719 100.675781 222.386719 C 104.695312 222.386719 107.25 219.960938 107.25 214.664062 L 107.25 187.339844 L 118.867188 187.339844 L 118.867188 214.152344 C 118.867188 227.109375 111.527344 232.792969 100.609375 232.792969 C 89.695312 232.792969 82.542969 227.046875 82.542969 214.34375 "/>
<path style=" stroke:none;fill-rule:nonzero;fill:rgb(12.452698%,9.849548%,8.714294%);fill-opacity:1;" d="M 135.46875 197.679688 L 124.425781 197.679688 L 124.425781 187.339844 L 158.003906 187.339844 L 158.003906 197.679688 L 146.957031 197.679688 L 146.957031 232.027344 L 135.46875 232.027344 L 135.46875 197.679688 "/>
<path style=" stroke:none;fill-rule:nonzero;fill:rgb(12.452698%,9.849548%,8.714294%);fill-opacity:1;" d="M 181.113281 209.046875 C 185.007812 209.046875 187.308594 206.8125 187.308594 203.234375 L 187.308594 203.109375 C 187.308594 199.277344 184.878906 197.363281 181.050781 197.363281 L 175.433594 197.363281 L 175.433594 209.046875 Z M 164.007812 187.339844 L 181.5625 187.339844 C 187.5625 187.339844 192.09375 188.9375 194.96875 191.871094 C 197.457031 194.363281 198.859375 197.808594 198.859375 202.339844 L 198.859375 202.660156 C 198.859375 209.300781 195.605469 213.449219 190.882812 215.8125 L 200.074219 232.027344 L 187.117188 232.027344 L 179.519531 218.171875 L 175.433594 218.171875 L 175.433594 232.027344 L 164.007812 232.027344 L 164.007812 187.339844 "/>
<path style=" stroke:none;fill-rule:nonzero;fill:rgb(12.452698%,9.849548%,8.714294%);fill-opacity:1;" d="M 233.847656 210.066406 L 233.847656 209.363281 C 233.847656 201.640625 230.144531 196.917969 224.847656 196.917969 C 219.546875 196.917969 215.910156 201.578125 215.910156 209.300781 L 215.910156 210.003906 C 215.910156 217.726562 219.613281 222.449219 224.910156 222.449219 C 230.273438 222.449219 233.847656 217.792969 233.847656 210.066406 Z M 204.164062 210.191406 L 204.164062 209.234375 C 204.164062 195.894531 212.910156 186.511719 224.910156 186.511719 C 236.976562 186.511719 245.59375 195.765625 245.59375 209.171875 L 245.59375 210.128906 C 245.59375 223.472656 236.847656 232.855469 224.847656 232.855469 C 212.78125 232.855469 204.164062 223.601562 204.164062 210.191406 "/>
<g clip-path="url(#clip5)" clip-rule="nonzero">
<path style=" stroke:none;fill-rule:nonzero;fill:rgb(12.452698%,9.849548%,8.714294%);fill-opacity:1;" d="M 252.363281 187.339844 L 263.152344 187.339844 L 278.023438 209.8125 L 278.023438 187.339844 L 289.324219 187.339844 L 289.324219 232.027344 L 279.109375 232.027344 L 263.664062 208.597656 L 263.664062 232.027344 L 252.363281 232.027344 L 252.363281 187.339844 "/>
</g>
<path style=" stroke:none;fill-rule:nonzero;fill:rgb(92.871094%,13.111877%,17.172241%);fill-opacity:1;" d="M 145.113281 84.605469 C 150.097656 84.605469 154.148438 88.660156 154.148438 93.644531 C 154.148438 98.628906 150.097656 102.683594 145.113281 102.683594 C 140.125 102.683594 136.085938 98.628906 136.085938 93.644531 C 136.085938 88.660156 140.125 84.605469 145.113281 84.605469 "/>
<path style=" stroke:none;fill-rule:nonzero;fill:rgb(92.871094%,13.111877%,17.172241%);fill-opacity:1;" d="M 145.113281 70.265625 C 147.378906 70.265625 149.226562 72.101562 149.226562 74.367188 C 149.226562 76.644531 147.378906 78.484375 145.113281 78.484375 C 142.847656 78.484375 140.996094 76.644531 140.996094 74.367188 C 140.996094 72.101562 142.847656 70.265625 145.113281 70.265625 "/>
<path style=" stroke:none;fill-rule:nonzero;fill:rgb(59.16748%,9.376526%,16.221619%);fill-opacity:1;" d="M 145.113281 97.480469 C 141.03125 97.480469 137.585938 94.761719 136.46875 91.042969 C 134.109375 87.519531 132.882812 92.546875 132.882812 93.449219 C 132.882812 98.433594 140.125 105.109375 145.113281 105.109375 C 150.097656 105.109375 156.816406 99.046875 156.816406 94.0625 C 156.816406 93.160156 156.199219 88.335938 153.765625 91.042969 C 152.644531 94.761719 149.191406 97.480469 145.113281 97.480469 "/>
<path style=" stroke:none;fill-rule:nonzero;fill:rgb(59.16748%,9.376526%,16.221619%);fill-opacity:1;" d="M 145.117188 76.113281 C 143.257812 76.113281 141.6875 74.875 141.179688 73.179688 C 141.066406 73.554688 138.609375 73.808594 138.609375 74.222656 C 138.609375 76.492188 142.84375 80.15625 145.117188 80.15625 C 147.386719 80.15625 151.085938 76.492188 151.085938 74.222656 C 151.085938 73.808594 149.171875 73.554688 149.058594 73.179688 C 148.546875 74.875 146.972656 76.113281 145.117188 76.113281 "/>
<path style=" stroke:none;fill-rule:nonzero;fill:rgb(12.452698%,9.849548%,8.714294%);fill-opacity:1;" d="M 199.75 107.214844 C 199.957031 108.242188 198.851562 109.039062 197.949219 108.511719 L 191.457031 104.765625 C 191.136719 104.570312 190.90625 104.25 190.855469 103.882812 C 188.539062 89.050781 188.539062 74.050781 190.855469 59.21875 C 190.90625 58.851562 191.136719 58.519531 191.457031 58.335938 L 197.949219 54.585938 C 198.867188 54.0625 199.957031 54.84375 199.757812 55.886719 C 196.515625 72.824219 196.515625 90.265625 199.75 107.214844 Z M 194.652344 116.023438 C 178.375 121.691406 163.261719 130.410156 150.21875 141.679688 C 149.421875 142.378906 148.1875 141.828125 148.1875 140.773438 L 148.1875 133.277344 C 148.1875 132.898438 148.359375 132.542969 148.652344 132.308594 C 160.335938 122.890625 173.328125 115.382812 187.328125 109.984375 C 187.671875 109.847656 188.074219 109.871094 188.394531 110.070312 L 194.886719 113.804688 C 195.792969 114.332031 195.65625 115.679688 194.652344 116.023438 Z M 145.882812 126.664062 C 145.441406 127.007812 144.816406 127.007812 144.375 126.664062 C 139.171875 122.535156 133.722656 118.800781 128.050781 115.421875 C 127.597656 115.152344 127.367188 114.613281 127.476562 114.097656 C 128.34375 110.03125 129.507812 106.296875 130.917969 103.015625 C 131.285156 102.15625 132.449219 101.996094 133.011719 102.746094 C 135.78125 106.417969 140.164062 108.808594 145.113281 108.808594 C 150.058594 108.808594 154.457031 106.417969 157.222656 102.746094 C 157.777344 101.996094 158.9375 102.15625 159.304688 103.015625 C 160.714844 106.296875 161.890625 110.042969 162.761719 114.125 C 162.871094 114.636719 162.636719 115.164062 162.183594 115.433594 C 156.527344 118.8125 151.078125 122.550781 145.882812 126.664062 Z M 142.0625 140.761719 C 142.0625 141.816406 140.824219 142.367188 140.027344 141.679688 C 126.984375 130.410156 111.886719 121.691406 95.59375 116.023438 C 94.601562 115.679688 94.46875 114.332031 95.375 113.804688 L 101.867188 110.070312 C 102.183594 109.871094 102.578125 109.847656 102.933594 109.984375 C 116.929688 115.382812 129.925781 122.890625 141.609375 132.308594 C 141.902344 132.542969 142.0625 132.898438 142.0625 133.277344 Z M 90.5 107.214844 C 93.746094 90.265625 93.746094 72.824219 90.5 55.886719 C 90.304688 54.855469 91.394531 54.0625 92.3125 54.585938 L 98.804688 58.335938 C 99.121094 58.519531 99.34375 58.851562 99.402344 59.21875 C 101.71875 74.050781 101.71875 89.050781 99.402344 103.882812 C 99.34375 104.25 99.121094 104.570312 98.804688 104.753906 L 92.3125 108.5 C 91.394531 109.027344 90.304688 108.242188 90.5 107.214844 Z M 95.59375 47.070312 C 111.886719 41.410156 126.972656 32.691406 140.027344 21.421875 C 140.824219 20.738281 142.0625 21.289062 142.0625 22.339844 L 142.0625 29.835938 C 142.0625 30.203125 141.890625 30.558594 141.597656 30.789062 C 129.914062 40.210938 116.929688 47.703125 102.933594 53.117188 C 102.578125 53.253906 102.183594 53.214844 101.867188 53.03125 L 95.375 49.285156 C 94.457031 48.757812 94.601562 47.421875 95.59375 47.070312 Z M 109.496094 58.570312 C 109.105469 57.945312 109.386719 57.109375 110.070312 56.816406 C 113.527344 55.347656 116.917969 53.753906 120.238281 52.039062 C 120.949219 51.671875 121.792969 52.066406 121.988281 52.835938 C 124.230469 61.875 127.902344 69.296875 132.507812 74.109375 C 133.402344 75.042969 132.410156 76.523438 131.199219 76.09375 C 122.125 72.886719 114.480469 66.640625 109.496094 58.570312 Z M 109.496094 104.519531 C 114.0625 97.136719 120.863281 91.269531 128.945312 87.875 C 129.886719 87.472656 130.878906 88.367188 130.585938 89.347656 C 130.304688 90.289062 130.121094 91.257812 130.023438 92.261719 C 126.617188 96.890625 123.875 103.0625 122.050781 110.300781 C 121.867188 111.074219 121.007812 111.464844 120.3125 111.097656 C 116.96875 109.359375 113.550781 107.753906 110.070312 106.273438 C 109.386719 105.992188 109.105469 105.15625 109.496094 104.519531 Z M 106.753906 68.941406 C 106.65625 67.777344 108.113281 67.152344 108.882812 68.035156 C 113.441406 73.300781 119.136719 77.550781 125.578125 80.441406 C 126.53125 80.871094 126.53125 82.21875 125.578125 82.660156 C 119.136719 85.539062 113.441406 89.800781 108.882812 95.054688 C 108.113281 95.933594 106.65625 95.3125 106.753906 94.148438 C 107.464844 85.757812 107.464844 77.34375 106.753906 68.941406 Z M 140.996094 74.367188 C 140.996094 72.101562 142.847656 70.265625 145.113281 70.265625 C 147.378906 70.265625 149.226562 72.101562 149.226562 74.367188 C 149.226562 76.644531 147.378906 78.484375 145.113281 78.484375 C 142.847656 78.484375 140.996094 76.644531 140.996094 74.367188 Z M 145.113281 84.605469 C 150.097656 84.605469 154.148438 88.660156 154.148438 93.644531 C 154.148438 98.628906 150.097656 102.683594 145.113281 102.683594 C 140.125 102.683594 136.085938 98.628906 136.085938 93.644531 C 136.085938 88.660156 140.125 84.605469 145.113281 84.605469 Z M 144.375 36.4375 C 144.816406 36.09375 145.441406 36.09375 145.882812 36.4375 C 151.089844 40.566406 156.5625 44.3125 162.234375 47.691406 C 162.6875 47.960938 162.917969 48.488281 162.820312 49.003906 C 161.167969 56.839844 158.425781 63.480469 155.03125 67.949219 C 154.53125 68.597656 153.585938 68.585938 153.074219 67.960938 C 151.199219 65.636719 148.332031 64.140625 145.113281 64.140625 C 141.902344 64.140625 139.035156 65.636719 137.152344 67.960938 C 136.648438 68.585938 135.695312 68.597656 135.203125 67.949219 C 131.8125 63.492188 129.066406 56.855469 127.414062 49.015625 C 127.304688 48.511719 127.535156 47.972656 127.988281 47.71875 C 133.683594 44.324219 139.160156 40.566406 144.375 36.4375 Z M 159.035156 76.09375 C 157.8125 76.523438 156.820312 75.042969 157.714844 74.109375 C 162.320312 69.285156 166.007812 61.863281 168.25 52.824219 C 168.429688 52.050781 169.277344 51.648438 169.988281 52.015625 C 173.320312 53.742188 176.710938 55.335938 180.164062 56.804688 C 180.851562 57.097656 181.132812 57.929688 180.738281 58.554688 C 175.753906 66.628906 168.113281 72.886719 159.035156 76.09375 Z M 161.289062 87.875 C 169.375 91.269531 176.171875 97.136719 180.738281 104.53125 C 181.132812 105.171875 180.851562 105.992188 180.164062 106.285156 C 176.6875 107.765625 173.269531 109.371094 169.925781 111.109375 C 169.214844 111.476562 168.371094 111.085938 168.171875 110.3125 C 166.359375 103.074219 163.605469 96.890625 160.199219 92.261719 C 160.117188 91.257812 159.917969 90.289062 159.636719 89.347656 C 159.34375 88.367188 160.335938 87.472656 161.289062 87.875 Z M 183.507812 94.183594 C 183.605469 95.347656 182.148438 95.984375 181.375 95.101562 C 176.808594 89.824219 171.113281 85.550781 164.660156 82.660156 C 163.691406 82.21875 163.691406 80.871094 164.660156 80.441406 C 171.113281 77.550781 176.808594 73.277344 181.375 68 C 182.148438 67.117188 183.605469 67.742188 183.507812 68.90625 C 182.796875 77.332031 182.796875 85.769531 183.507812 94.183594 Z M 148.1875 22.328125 C 148.1875 21.261719 149.410156 20.710938 150.207031 21.410156 C 163.261719 32.675781 178.363281 41.410156 194.652344 47.070312 C 195.65625 47.410156 195.792969 48.757812 194.886719 49.285156 L 188.394531 53.03125 C 188.074219 53.214844 187.671875 53.253906 187.328125 53.117188 C 173.328125 47.703125 160.324219 40.199219 148.640625 30.777344 C 148.34375 30.546875 148.1875 30.191406 148.1875 29.8125 Z M 216.207031 119.058594 L 208.027344 114.332031 C 207.746094 114.171875 207.535156 113.890625 207.449219 113.558594 C 202.136719 92.578125 202.136719 70.523438 207.449219 49.53125 C 207.527344 49.210938 207.746094 48.929688 208.027344 48.757812 L 216.207031 44.042969 C 216.796875 43.699219 216.992188 42.953125 216.664062 42.363281 L 214.824219 39.179688 C 214.480469 38.59375 213.734375 38.398438 213.144531 38.738281 L 204.964844 43.46875 C 204.671875 43.625 204.328125 43.675781 204.007812 43.578125 C 183.175781 37.699219 164.070312 26.664062 148.554688 11.5625 C 148.320312 11.328125 148.1875 11.011719 148.1875 10.667969 L 148.1875 1.226562 C 148.1875 0.550781 147.636719 0 146.960938 0 L 143.285156 0 C 142.601562 0 142.0625 0.550781 142.0625 1.226562 L 142.0625 10.695312 C 142.0625 11.023438 141.925781 11.355469 141.683594 11.585938 C 126.164062 26.675781 107.070312 37.699219 86.238281 43.589844 C 85.917969 43.675781 85.578125 43.640625 85.28125 43.46875 L 77.089844 38.738281 C 76.5 38.398438 75.753906 38.59375 75.410156 39.179688 L 73.574219 42.363281 C 73.242188 42.953125 73.441406 43.699219 74.027344 44.042969 L 82.222656 48.769531 C 82.515625 48.941406 82.722656 49.210938 82.808594 49.542969 C 88.125 70.523438 88.125 92.566406 82.808594 113.558594 C 82.734375 113.878906 82.515625 114.160156 82.234375 114.320312 L 74.027344 119.058594 C 73.441406 119.402344 73.242188 120.148438 73.574219 120.738281 L 75.410156 123.910156 C 75.753906 124.496094 76.5 124.707031 77.089844 124.363281 L 85.28125 119.632812 C 85.578125 119.464844 85.917969 119.425781 86.238281 119.511719 C 107.070312 125.402344 126.164062 136.425781 141.683594 151.515625 C 141.925781 151.75 142.0625 152.066406 142.0625 152.410156 L 142.0625 161.875 C 142.0625 162.550781 142.601562 163.101562 143.285156 163.101562 L 146.960938 163.101562 C 147.636719 163.101562 148.1875 162.550781 148.1875 161.875 L 148.1875 152.421875 C 148.1875 152.089844 148.320312 151.757812 148.554688 151.527344 C 164.070312 136.4375 183.175781 125.402344 204.007812 119.511719 C 204.328125 119.425781 204.671875 119.464844 204.964844 119.632812 L 213.144531 124.363281 C 213.734375 124.707031 214.480469 124.496094 214.824219 123.910156 L 216.664062 120.738281 C 216.992188 120.148438 216.796875 119.402344 216.207031 119.058594 "/>
</g>
</svg>
