<?xml version="1.0" encoding="UTF-8"?>
<svg xmlns="http://www.w3.org/2000/svg" xmlns:xlink="http://www.w3.org/1999/xlink" width="263.55pt" height="257.36pt" viewBox="0 0 263.55 257.36" version="1.2">
<defs>
<clipPath id="clip1">
  <path d="M 39 246 L 49 246 L 49 256.722656 L 39 256.722656 Z M 39 246 "/>
</clipPath>
<clipPath id="clip2">
  <path d="M 191 246 L 200 246 L 200 256.722656 L 191 256.722656 Z M 191 246 "/>
</clipPath>
<clipPath id="clip3">
  <path d="M 227 243 L 235 243 L 235 256.722656 L 227 256.722656 Z M 227 243 "/>
</clipPath>
<clipPath id="clip4">
  <path d="M 0.101562 186 L 42 186 L 42 232 L 0.101562 232 Z M 0.101562 186 "/>
</clipPath>
</defs>
<g id="surface1">
<path style=" stroke:none;fill-rule:nonzero;fill:rgb(29.748535%,65.216064%,88.331604%);fill-opacity:1;" d="M 12.589844 248.863281 C 12.589844 248.039062 12.289062 247.59375 11.734375 247.59375 C 10.324219 247.59375 9.390625 250.226562 9.390625 251.507812 C 9.390625 252.441406 9.722656 252.917969 10.3125 252.917969 C 11.59375 252.917969 12.589844 250.144531 12.589844 248.863281 Z M 13.8125 251.585938 C 13.683594 252 13.636719 252.285156 13.636719 252.492188 C 13.636719 252.761719 13.765625 252.902344 14 252.902344 C 14.351562 252.902344 14.699219 252.363281 15.0625 251.300781 L 15.824219 251.539062 C 15.207031 253.472656 14.351562 254.1875 13.382812 254.1875 C 12.640625 254.1875 12.085938 253.710938 12.085938 252.792969 C 12.085938 252.679688 12.085938 252.601562 12.101562 252.441406 L 11.988281 252.394531 C 11.386719 253.585938 10.484375 254.1875 9.582031 254.1875 C 8.21875 254.1875 7.472656 253.0625 7.472656 251.667969 C 7.472656 250.050781 8.125 248.609375 8.980469 247.769531 C 9.722656 247.007812 10.5625 246.566406 11.453125 246.566406 C 12.339844 246.566406 12.84375 247.183594 12.988281 247.894531 L 13.304688 246.675781 L 15.109375 246.675781 L 13.8125 251.585938 "/>
<path style=" stroke:none;fill-rule:nonzero;fill:rgb(29.748535%,65.216064%,88.331604%);fill-opacity:1;" d="M 23.761719 252.902344 C 24.09375 252.902344 24.429688 252.394531 24.855469 251.300781 L 25.601562 251.539062 C 24.96875 253.457031 24.078125 254.1875 23.175781 254.1875 C 22.320312 254.1875 21.765625 253.632812 21.765625 252.710938 C 21.765625 251.128906 22.8125 249.558594 22.8125 248.480469 C 22.8125 248.117188 22.652344 247.960938 22.382812 247.960938 C 21.65625 247.960938 20.292969 249.164062 19.023438 254.027344 L 17.125 254.027344 L 18.484375 248.894531 C 18.722656 247.992188 18.675781 247.738281 18.390625 247.738281 C 18.027344 247.738281 17.613281 248.417969 17.15625 249.402344 L 16.410156 249.085938 C 17.089844 247.5 17.882812 246.582031 18.945312 246.582031 C 19.625 246.582031 20.101562 247.070312 20.101562 248.054688 C 20.101562 248.515625 20.007812 249.085938 19.769531 249.8125 L 19.878906 249.859375 C 20.925781 247.628906 22.097656 246.566406 23.222656 246.566406 C 24.109375 246.566406 24.664062 247.261719 24.664062 248.210938 C 24.664062 249.558594 23.492188 251.585938 23.492188 252.554688 C 23.492188 252.792969 23.585938 252.902344 23.761719 252.902344 "/>
<path style=" stroke:none;fill-rule:nonzero;fill:rgb(29.748535%,65.216064%,88.331604%);fill-opacity:1;" d="M 31.667969 250.398438 C 31.667969 252.238281 32.570312 253.125 34.0625 253.125 C 36.644531 253.125 37.691406 249.273438 37.691406 247.230469 C 37.691406 245.390625 36.769531 244.503906 35.296875 244.503906 C 32.699219 244.503906 31.667969 248.355469 31.667969 250.398438 Z M 35.375 243.347656 C 37.976562 243.347656 39.796875 245.203125 39.796875 247.925781 C 39.796875 250.984375 37.5 254.28125 33.980469 254.28125 C 31.382812 254.28125 29.546875 252.425781 29.546875 249.703125 C 29.546875 246.644531 31.84375 243.347656 35.375 243.347656 "/>
<g clip-path="url(#clip1)" clip-rule="nonzero">
<path style=" stroke:none;fill-rule:nonzero;fill:rgb(29.748535%,65.216064%,88.331604%);fill-opacity:1;" d="M 43.535156 251.746094 C 43.535156 252.523438 43.867188 253.0625 44.566406 253.0625 C 45.976562 253.0625 46.769531 250.398438 46.769531 249.148438 C 46.769531 248.257812 46.484375 247.800781 45.898438 247.800781 C 44.628906 247.800781 43.535156 250.351562 43.535156 251.746094 Z M 42.253906 247.878906 C 41.886719 247.878906 41.601562 248.339844 41.097656 249.402344 L 40.351562 249.085938 C 41.113281 247.339844 41.855469 246.582031 42.855469 246.582031 C 43.566406 246.582031 44.042969 247.101562 44.042969 248.007812 C 44.042969 248.117188 44.027344 248.257812 44.011719 248.402344 L 44.136719 248.449219 C 44.738281 247.199219 45.707031 246.566406 46.578125 246.566406 C 47.910156 246.566406 48.667969 247.65625 48.667969 249.132812 C 48.667969 251.683594 46.910156 254.042969 44.960938 254.042969 C 44.121094 254.042969 43.457031 253.617188 43.15625 252.980469 L 42.523438 255.34375 L 44.011719 255.34375 L 43.695312 256.515625 L 39.304688 256.515625 L 39.621094 255.34375 L 40.699219 255.34375 L 42.378906 249.070312 C 42.617188 248.179688 42.539062 247.878906 42.253906 247.878906 "/>
</g>
<path style=" stroke:none;fill-rule:nonzero;fill:rgb(29.748535%,65.216064%,88.331604%);fill-opacity:1;" d="M 51.617188 250.304688 C 53.820312 250.066406 54.625 249.210938 54.625 248.230469 C 54.625 247.785156 54.375 247.4375 53.898438 247.4375 C 52.789062 247.4375 51.949219 248.941406 51.617188 250.304688 Z M 51.472656 251.046875 C 51.457031 251.175781 51.457031 251.300781 51.457031 251.414062 C 51.457031 252.726562 52.140625 253.140625 52.929688 253.140625 C 53.707031 253.140625 54.484375 252.617188 55.148438 251.683594 L 55.816406 252.160156 C 55.007812 253.316406 54.023438 254.1875 52.34375 254.1875 C 50.710938 254.1875 49.574219 253.046875 49.574219 251.300781 C 49.574219 248.863281 51.679688 246.566406 54.167969 246.566406 C 55.53125 246.566406 56.289062 247.246094 56.289062 248.210938 C 56.289062 249.636719 54.800781 250.859375 51.472656 251.046875 "/>
<path style=" stroke:none;fill-rule:nonzero;fill:rgb(29.748535%,65.216064%,88.331604%);fill-opacity:1;" d="M 64.449219 252.902344 C 64.78125 252.902344 65.117188 252.394531 65.542969 251.300781 L 66.289062 251.539062 C 65.65625 253.457031 64.765625 254.1875 63.863281 254.1875 C 63.007812 254.1875 62.453125 253.632812 62.453125 252.710938 C 62.453125 251.128906 63.5 249.558594 63.5 248.480469 C 63.5 248.117188 63.339844 247.960938 63.070312 247.960938 C 62.34375 247.960938 60.980469 249.164062 59.710938 254.027344 L 57.8125 254.027344 L 59.175781 248.894531 C 59.410156 247.992188 59.363281 247.738281 59.078125 247.738281 C 58.714844 247.738281 58.300781 248.417969 57.84375 249.402344 L 57.097656 249.085938 C 57.78125 247.5 58.570312 246.582031 59.632812 246.582031 C 60.316406 246.582031 60.789062 247.070312 60.789062 248.054688 C 60.789062 248.515625 60.695312 249.085938 60.457031 249.8125 L 60.566406 249.859375 C 61.613281 247.628906 62.785156 246.566406 63.910156 246.566406 C 64.800781 246.566406 65.355469 247.261719 65.355469 248.210938 C 65.355469 249.558594 64.179688 251.585938 64.179688 252.554688 C 64.179688 252.792969 64.277344 252.902344 64.449219 252.902344 "/>
<path style=" stroke:none;fill-rule:nonzero;fill:rgb(29.748535%,65.216064%,88.331604%);fill-opacity:1;" d="M 67.9375 250.320312 L 69.0625 250.320312 C 69.363281 252.222656 70.472656 253.15625 71.867188 253.15625 C 73.117188 253.15625 73.847656 252.363281 73.847656 251.539062 C 73.847656 250.621094 72.800781 250.195312 71.675781 249.671875 C 70.359375 249.085938 68.917969 248.386719 68.917969 246.707031 C 68.917969 244.933594 70.519531 243.347656 72.625 243.347656 C 73.75 243.347656 74.796875 243.808594 75.320312 244.550781 L 75.96875 243.394531 L 77.15625 243.394531 L 76.222656 247.152344 L 75.113281 247.152344 C 74.78125 245.1875 73.988281 244.457031 72.625 244.457031 C 71.597656 244.457031 70.867188 245.203125 70.867188 246.027344 C 70.867188 247.023438 71.945312 247.453125 73.085938 247.960938 C 74.382812 248.515625 75.777344 249.179688 75.777344 250.84375 C 75.777344 252.792969 74.050781 254.28125 71.882812 254.28125 C 70.503906 254.28125 69.472656 253.773438 68.871094 253.011719 L 68.171875 254.234375 L 66.984375 254.234375 L 67.9375 250.320312 "/>
<path style=" stroke:none;fill-rule:nonzero;fill:rgb(29.748535%,65.216064%,88.331604%);fill-opacity:1;" d="M 80.976562 247.863281 L 80.023438 251.332031 C 79.914062 251.730469 79.835938 252.09375 79.835938 252.285156 C 79.835938 252.710938 80.054688 252.855469 80.390625 252.855469 C 80.960938 252.855469 81.433594 252.160156 81.878906 251.144531 L 82.640625 251.398438 C 81.863281 253.648438 80.644531 254.1875 79.785156 254.1875 C 78.742188 254.1875 77.996094 253.664062 77.996094 252.585938 C 77.996094 252.125 78.171875 251.460938 78.28125 251.019531 L 79.136719 247.863281 L 77.742188 247.863281 L 77.996094 246.898438 L 79.390625 246.898438 L 79.914062 244.996094 L 81.800781 244.789062 L 81.230469 246.898438 L 83.480469 246.898438 L 83.226562 247.863281 L 80.976562 247.863281 "/>
<path style=" stroke:none;fill-rule:nonzero;fill:rgb(29.748535%,65.216064%,88.331604%);fill-opacity:1;" d="M 88.992188 248.863281 C 88.992188 248.039062 88.691406 247.59375 88.136719 247.59375 C 86.726562 247.59375 85.792969 250.226562 85.792969 251.507812 C 85.792969 252.441406 86.125 252.917969 86.710938 252.917969 C 87.996094 252.917969 88.992188 250.144531 88.992188 248.863281 Z M 90.210938 251.585938 C 90.085938 252 90.039062 252.285156 90.039062 252.492188 C 90.039062 252.761719 90.164062 252.902344 90.402344 252.902344 C 90.75 252.902344 91.101562 252.363281 91.464844 251.300781 L 92.226562 251.539062 C 91.605469 253.472656 90.75 254.1875 89.785156 254.1875 C 89.039062 254.1875 88.484375 253.710938 88.484375 252.792969 C 88.484375 252.679688 88.484375 252.601562 88.5 252.441406 L 88.390625 252.394531 C 87.789062 253.585938 86.886719 254.1875 85.980469 254.1875 C 84.621094 254.1875 83.875 253.0625 83.875 251.667969 C 83.875 250.050781 84.523438 248.609375 85.378906 247.769531 C 86.125 247.007812 86.964844 246.566406 87.851562 246.566406 C 88.738281 246.566406 89.246094 247.183594 89.386719 247.894531 L 89.707031 246.675781 L 91.511719 246.675781 L 90.210938 251.585938 "/>
<path style=" stroke:none;fill-rule:nonzero;fill:rgb(29.748535%,65.216064%,88.331604%);fill-opacity:1;" d="M 99.480469 248.433594 C 99.480469 249.117188 99.054688 249.796875 98.371094 249.796875 C 97.800781 249.796875 97.4375 249.417969 97.4375 248.941406 C 97.4375 248.496094 97.707031 248.132812 98.085938 247.863281 C 97.960938 247.640625 97.691406 247.46875 97.214844 247.46875 C 95.632812 247.46875 94.695312 249.890625 94.695312 251.269531 C 94.695312 252.632812 95.425781 253.0625 96.136719 253.0625 C 96.867188 253.0625 97.566406 252.539062 98.199219 251.554688 L 98.878906 252.015625 C 98.199219 253.203125 97.261719 254.1875 95.710938 254.1875 C 93.96875 254.1875 92.796875 252.996094 92.796875 251.269531 C 92.796875 248.796875 94.917969 246.566406 97.183594 246.566406 C 98.515625 246.566406 99.480469 247.308594 99.480469 248.433594 "/>
<path style=" stroke:none;fill-rule:nonzero;fill:rgb(29.748535%,65.216064%,88.331604%);fill-opacity:1;" d="M 106.199219 252.902344 C 106.546875 252.902344 106.851562 252.394531 107.261719 251.300781 L 108.007812 251.539062 C 107.40625 253.457031 106.582031 254.1875 105.660156 254.1875 C 104.773438 254.1875 104.1875 253.601562 104.1875 252.570312 C 104.1875 252.125 104.363281 251.492188 104.363281 251.144531 C 104.363281 250.558594 104.109375 250.414062 102.953125 250.414062 L 102.917969 250.414062 L 101.953125 254.027344 L 100.164062 254.027344 L 102.730469 244.347656 L 101.414062 244.347656 L 101.730469 243.109375 L 104.886719 243.109375 L 103.109375 249.703125 L 103.1875 249.703125 C 104.027344 249.703125 104.378906 249.226562 105.074219 248.070312 C 105.597656 247.214844 106.121094 246.566406 107.054688 246.566406 C 107.816406 246.566406 108.230469 247.039062 108.230469 247.722656 C 108.230469 248.386719 107.800781 249.054688 107.148438 249.054688 C 106.515625 249.054688 106.183594 248.496094 106.40625 247.847656 C 106.183594 247.894531 105.945312 248.164062 105.582031 248.765625 C 105.265625 249.355469 105.011719 249.6875 104.535156 249.941406 C 105.660156 250.035156 106.027344 250.527344 106.027344 251.269531 C 106.027344 251.730469 105.898438 252.191406 105.898438 252.476562 C 105.898438 252.792969 106.027344 252.902344 106.199219 252.902344 "/>
<path style=" stroke:none;fill-rule:nonzero;fill:rgb(29.748535%,65.216064%,88.331604%);fill-opacity:1;" d="M 114.867188 249.859375 C 114.867188 246.675781 117.210938 243.347656 120.699219 243.347656 C 122.011719 243.347656 122.996094 243.824219 123.535156 244.632812 L 124.183594 243.394531 L 125.402344 243.394531 L 124.390625 247.515625 L 123.199219 247.515625 C 123.042969 245.234375 122.042969 244.503906 120.761719 244.503906 C 117.957031 244.503906 116.988281 248.277344 116.988281 250.019531 C 116.988281 252.125 118.066406 253.011719 119.445312 253.011719 C 121.125 253.011719 122.109375 251.746094 122.898438 249.875 L 124.023438 250.273438 C 123.230469 252.492188 121.757812 254.28125 119.222656 254.28125 C 116.308594 254.28125 114.867188 252.425781 114.867188 249.859375 "/>
<path style=" stroke:none;fill-rule:nonzero;fill:rgb(29.748535%,65.216064%,88.331604%);fill-opacity:1;" d="M 129.253906 247.4375 C 127.78125 247.4375 126.941406 250.320312 126.941406 251.859375 C 126.941406 252.871094 127.367188 253.300781 128.050781 253.300781 C 129.523438 253.300781 130.363281 250.414062 130.363281 248.878906 C 130.363281 247.863281 129.933594 247.4375 129.253906 247.4375 Z M 132.246094 249.625 C 132.246094 252.09375 130.269531 254.1875 128.066406 254.1875 C 126.242188 254.1875 125.054688 252.902344 125.054688 251.113281 C 125.054688 248.640625 127.035156 246.566406 129.238281 246.566406 C 131.058594 246.566406 132.246094 247.832031 132.246094 249.625 "/>
<path style=" stroke:none;fill-rule:nonzero;fill:rgb(29.748535%,65.216064%,88.331604%);fill-opacity:1;" d="M 142.546875 252.710938 C 142.546875 251.128906 143.59375 249.558594 143.59375 248.480469 C 143.59375 248.117188 143.433594 247.960938 143.164062 247.960938 C 142.46875 247.960938 141.089844 249.164062 139.820312 254.027344 L 137.953125 254.027344 L 139.0625 249.84375 C 139.203125 249.320312 139.28125 248.941406 139.28125 248.640625 C 139.28125 248.257812 139.15625 247.960938 138.808594 247.960938 C 138.078125 247.960938 136.714844 249.164062 135.449219 254.027344 L 133.546875 254.027344 L 134.910156 248.894531 C 135.148438 247.992188 135.101562 247.738281 134.8125 247.738281 C 134.449219 247.738281 134.039062 248.417969 133.578125 249.402344 L 132.835938 249.085938 C 133.515625 247.5 134.308594 246.582031 135.367188 246.582031 C 136.050781 246.582031 136.527344 247.070312 136.527344 248.054688 C 136.527344 248.515625 136.429688 249.085938 136.191406 249.8125 L 136.304688 249.859375 C 137.347656 247.628906 138.523438 246.566406 139.597656 246.566406 C 140.472656 246.566406 140.929688 247.152344 140.929688 248.101562 C 140.929688 248.546875 140.804688 249.085938 140.566406 249.8125 L 140.675781 249.859375 C 141.722656 247.628906 142.894531 246.566406 144.019531 246.566406 C 144.890625 246.566406 145.445312 247.261719 145.445312 248.210938 C 145.445312 249.558594 144.273438 251.585938 144.273438 252.554688 C 144.273438 252.792969 144.367188 252.902344 144.542969 252.902344 C 144.875 252.902344 145.207031 252.394531 145.636719 251.300781 L 146.382812 251.539062 C 145.746094 253.457031 144.859375 254.1875 143.957031 254.1875 C 143.101562 254.1875 142.546875 253.632812 142.546875 252.710938 "/>
<path style=" stroke:none;fill-rule:nonzero;fill:rgb(29.748535%,65.216064%,88.331604%);fill-opacity:1;" d="M 156.441406 252.710938 C 156.441406 251.128906 157.488281 249.558594 157.488281 248.480469 C 157.488281 248.117188 157.328125 247.960938 157.0625 247.960938 C 156.363281 247.960938 154.984375 249.164062 153.71875 254.027344 L 151.847656 254.027344 L 152.957031 249.84375 C 153.097656 249.320312 153.179688 248.941406 153.179688 248.640625 C 153.179688 248.257812 153.050781 247.960938 152.703125 247.960938 C 151.972656 247.960938 150.609375 249.164062 149.34375 254.027344 L 147.441406 254.027344 L 148.804688 248.894531 C 149.042969 247.992188 148.996094 247.738281 148.710938 247.738281 C 148.34375 247.738281 147.933594 248.417969 147.472656 249.402344 L 146.730469 249.085938 C 147.410156 247.5 148.203125 246.582031 149.265625 246.582031 C 149.945312 246.582031 150.421875 247.070312 150.421875 248.054688 C 150.421875 248.515625 150.328125 249.085938 150.089844 249.8125 L 150.199219 249.859375 C 151.246094 247.628906 152.417969 246.566406 153.496094 246.566406 C 154.367188 246.566406 154.824219 247.152344 154.824219 248.101562 C 154.824219 248.546875 154.699219 249.085938 154.460938 249.8125 L 154.574219 249.859375 C 155.617188 247.628906 156.789062 246.566406 157.914062 246.566406 C 158.789062 246.566406 159.34375 247.261719 159.34375 248.210938 C 159.34375 249.558594 158.167969 251.585938 158.167969 252.554688 C 158.167969 252.792969 158.265625 252.902344 158.4375 252.902344 C 158.769531 252.902344 159.105469 252.394531 159.53125 251.300781 L 160.277344 251.539062 C 159.644531 253.457031 158.757812 254.1875 157.851562 254.1875 C 156.996094 254.1875 156.441406 253.632812 156.441406 252.710938 "/>
<path style=" stroke:none;fill-rule:nonzero;fill:rgb(29.748535%,65.216064%,88.331604%);fill-opacity:1;" d="M 166.1875 252.699219 C 166.1875 252.300781 166.28125 251.699219 166.535156 250.890625 L 166.425781 250.84375 C 165.378906 253.140625 164.269531 254.1875 163.128906 254.1875 C 162.257812 254.1875 161.6875 253.503906 161.6875 252.523438 C 161.6875 251.191406 162.8125 249.085938 162.8125 248.179688 C 162.8125 247.960938 162.71875 247.847656 162.574219 247.847656 C 162.242188 247.847656 161.972656 248.195312 161.402344 249.382812 L 160.65625 249.070312 C 161.304688 247.5 162.144531 246.566406 163.238281 246.566406 C 164.078125 246.566406 164.570312 247.089844 164.570312 248.007812 C 164.570312 249.480469 163.523438 251.160156 163.523438 252.175781 C 163.523438 252.617188 163.699219 252.792969 163.96875 252.792969 C 164.679688 252.792969 165.996094 251.621094 167.296875 246.675781 L 169.199219 246.675781 L 167.898438 251.585938 C 167.769531 252.015625 167.722656 252.285156 167.722656 252.492188 C 167.722656 252.761719 167.867188 252.902344 168.085938 252.902344 C 168.453125 252.902344 168.785156 252.363281 169.148438 251.300781 L 169.910156 251.539062 C 169.292969 253.472656 168.4375 254.1875 167.535156 254.1875 C 166.710938 254.1875 166.1875 253.726562 166.1875 252.699219 "/>
<path style=" stroke:none;fill-rule:nonzero;fill:rgb(29.748535%,65.216064%,88.331604%);fill-opacity:1;" d="M 177.484375 252.902344 C 177.816406 252.902344 178.148438 252.394531 178.578125 251.300781 L 179.320312 251.539062 C 178.6875 253.457031 177.800781 254.1875 176.898438 254.1875 C 176.042969 254.1875 175.488281 253.632812 175.488281 252.710938 C 175.488281 251.128906 176.535156 249.558594 176.535156 248.480469 C 176.535156 248.117188 176.375 247.960938 176.105469 247.960938 C 175.375 247.960938 174.015625 249.164062 172.746094 254.027344 L 170.84375 254.027344 L 172.207031 248.894531 C 172.445312 247.992188 172.398438 247.738281 172.113281 247.738281 C 171.746094 247.738281 171.335938 248.417969 170.875 249.402344 L 170.132812 249.085938 C 170.8125 247.5 171.605469 246.582031 172.667969 246.582031 C 173.347656 246.582031 173.824219 247.070312 173.824219 248.054688 C 173.824219 248.515625 173.730469 249.085938 173.492188 249.8125 L 173.601562 249.859375 C 174.648438 247.628906 175.820312 246.566406 176.945312 246.566406 C 177.832031 246.566406 178.386719 247.261719 178.386719 248.210938 C 178.386719 249.558594 177.214844 251.585938 177.214844 252.554688 C 177.214844 252.792969 177.308594 252.902344 177.484375 252.902344 "/>
<path style=" stroke:none;fill-rule:nonzero;fill:rgb(29.748535%,65.216064%,88.331604%);fill-opacity:1;" d="M 183.3125 245.457031 C 182.757812 245.457031 182.332031 245.074219 182.332031 244.441406 C 182.332031 243.792969 182.824219 243.046875 183.664062 243.046875 C 184.265625 243.046875 184.675781 243.425781 184.675781 244.0625 C 184.675781 244.695312 184.15625 245.457031 183.3125 245.457031 Z M 182.554688 252.523438 C 182.554688 252.792969 182.664062 252.902344 182.871094 252.902344 C 183.171875 252.902344 183.519531 252.476562 183.996094 251.300781 L 184.742188 251.539062 C 184.121094 253.410156 183.234375 254.1875 182.21875 254.1875 C 181.398438 254.1875 180.796875 253.648438 180.796875 252.699219 C 180.796875 251.191406 182.109375 249.070312 182.109375 248.085938 C 182.109375 247.832031 182.015625 247.738281 181.871094 247.738281 C 181.429688 247.738281 181.03125 248.417969 180.589844 249.402344 L 179.828125 249.085938 C 180.507812 247.5 181.351562 246.566406 182.425781 246.566406 C 183.25 246.566406 183.835938 247.152344 183.835938 248.164062 C 183.835938 249.402344 182.554688 251.601562 182.554688 252.523438 "/>
<path style=" stroke:none;fill-rule:nonzero;fill:rgb(29.748535%,65.216064%,88.331604%);fill-opacity:1;" d="M 188.90625 247.863281 L 187.957031 251.332031 C 187.84375 251.730469 187.765625 252.09375 187.765625 252.285156 C 187.765625 252.710938 187.988281 252.855469 188.320312 252.855469 C 188.890625 252.855469 189.367188 252.160156 189.8125 251.144531 L 190.570312 251.398438 C 189.792969 253.648438 188.574219 254.1875 187.71875 254.1875 C 186.671875 254.1875 185.929688 253.664062 185.929688 252.585938 C 185.929688 252.125 186.101562 251.460938 186.210938 251.019531 L 187.070312 247.863281 L 185.675781 247.863281 L 185.929688 246.898438 L 187.324219 246.898438 L 187.84375 244.996094 L 189.730469 244.789062 L 189.160156 246.898438 L 191.410156 246.898438 L 191.15625 247.863281 L 188.90625 247.863281 "/>
<g clip-path="url(#clip2)" clip-rule="nonzero">
<path style=" stroke:none;fill-rule:nonzero;fill:rgb(29.748535%,65.216064%,88.331604%);fill-opacity:1;" d="M 195.152344 247.945312 C 195.152344 249.402344 194.230469 250.828125 194.230469 251.746094 C 194.230469 252.140625 194.40625 252.300781 194.753906 252.300781 C 195.59375 252.300781 196.71875 251.351562 197.921875 246.675781 L 199.699219 246.675781 L 198.238281 252.792969 C 197.558594 255.707031 195.957031 256.722656 193.976562 256.722656 C 192.867188 256.722656 191.539062 256.421875 191.539062 255.246094 C 191.539062 254.742188 191.917969 254.105469 192.628906 254.105469 C 193.265625 254.105469 193.582031 254.550781 193.550781 255.074219 C 193.535156 255.328125 193.390625 255.613281 193.230469 255.753906 C 193.421875 255.816406 193.660156 255.867188 193.960938 255.867188 C 195.199219 255.867188 196.039062 254.867188 196.574219 252.664062 L 196.894531 251.414062 L 196.796875 251.367188 C 195.878906 253.046875 194.894531 253.664062 193.976562 253.664062 C 192.933594 253.664062 192.410156 252.933594 192.410156 252.015625 C 192.410156 250.796875 193.421875 249.085938 193.421875 248.179688 C 193.421875 247.976562 193.328125 247.847656 193.183594 247.847656 C 192.789062 247.847656 192.410156 248.496094 191.980469 249.402344 L 191.234375 249.085938 C 191.933594 247.5 192.804688 246.566406 193.851562 246.566406 C 194.660156 246.566406 195.152344 247.101562 195.152344 247.945312 "/>
</g>
<path style=" stroke:none;fill-rule:nonzero;fill:rgb(29.748535%,65.216064%,88.331604%);fill-opacity:1;" d="M 208.109375 248.734375 C 210.140625 248.734375 210.851562 247.46875 210.851562 246.25 C 210.851562 245.328125 210.296875 244.773438 208.730469 244.773438 L 208.046875 244.773438 L 207.066406 248.734375 Z M 206.035156 252.839844 L 207.761719 252.839844 L 207.492188 254.027344 L 202.167969 254.027344 L 202.4375 252.839844 L 204.039062 252.839844 L 206.035156 244.789062 L 204.417969 244.789062 L 204.71875 243.601562 L 209.109375 243.601562 C 211.976562 243.601562 213.070312 244.773438 213.070312 246.261719 C 213.070312 247.847656 211.976562 249.859375 208.046875 249.859375 L 206.777344 249.859375 L 206.035156 252.839844 "/>
<path style=" stroke:none;fill-rule:nonzero;fill:rgb(29.748535%,65.216064%,88.331604%);fill-opacity:1;" d="M 215.542969 248.894531 C 215.777344 247.992188 215.730469 247.738281 215.445312 247.738281 C 215.082031 247.738281 214.671875 248.417969 214.210938 249.402344 L 213.464844 249.085938 C 214.148438 247.5 214.9375 246.582031 216 246.582031 C 216.683594 246.582031 217.15625 247.070312 217.15625 248.054688 C 217.15625 248.515625 217.0625 249.070312 216.839844 249.765625 L 216.96875 249.8125 C 217.886719 247.722656 218.648438 246.566406 219.757812 246.566406 C 220.421875 246.566406 220.914062 247.023438 220.914062 247.769531 C 220.914062 248.5625 220.40625 249.195312 219.773438 249.195312 C 219.21875 249.195312 218.789062 248.832031 218.820312 248.164062 C 218.363281 248.355469 217.21875 249.703125 216.082031 254.027344 L 214.179688 254.027344 L 215.542969 248.894531 "/>
<path style=" stroke:none;fill-rule:nonzero;fill:rgb(29.748535%,65.216064%,88.331604%);fill-opacity:1;" d="M 225.445312 247.4375 C 223.972656 247.4375 223.128906 250.320312 223.128906 251.859375 C 223.128906 252.871094 223.558594 253.300781 224.238281 253.300781 C 225.714844 253.300781 226.554688 250.414062 226.554688 248.878906 C 226.554688 247.863281 226.125 247.4375 225.445312 247.4375 Z M 228.4375 249.625 C 228.4375 252.09375 226.457031 254.1875 224.257812 254.1875 C 222.433594 254.1875 221.246094 252.902344 221.246094 251.113281 C 221.246094 248.640625 223.226562 246.566406 225.429688 246.566406 C 227.25 246.566406 228.4375 247.832031 228.4375 249.625 "/>
<g clip-path="url(#clip3)" clip-rule="nonzero">
<path style=" stroke:none;fill-rule:nonzero;fill:rgb(29.748535%,65.216064%,88.331604%);fill-opacity:1;" d="M 233.300781 245.457031 C 232.75 245.457031 232.320312 245.074219 232.320312 244.441406 C 232.320312 243.792969 232.828125 243.046875 233.652344 243.046875 C 234.253906 243.046875 234.664062 243.425781 234.664062 244.0625 C 234.664062 244.695312 234.144531 245.457031 233.300781 245.457031 Z M 233.605469 249.417969 L 232.605469 253.203125 C 231.941406 255.722656 230.703125 256.722656 229.246094 256.722656 C 228.136719 256.722656 227.664062 256.199219 227.664062 255.597656 C 227.664062 255.011719 228.089844 254.472656 228.707031 254.472656 C 229.246094 254.472656 229.53125 254.867188 229.53125 255.277344 C 229.53125 255.613281 229.40625 255.882812 229.277344 256.039062 C 229.960938 256.054688 230.230469 255.644531 230.816406 253.378906 L 231.859375 249.371094 C 231.957031 248.988281 232.097656 248.433594 232.097656 248.101562 C 232.097656 247.816406 231.972656 247.738281 231.832031 247.738281 C 231.449219 247.738281 231.039062 248.417969 230.578125 249.402344 L 229.832031 249.085938 C 230.515625 247.5 231.339844 246.566406 232.449219 246.566406 C 233.253906 246.566406 233.828125 247.183594 233.828125 248.070312 C 233.828125 248.433594 233.746094 248.878906 233.605469 249.417969 "/>
</g>
<path style=" stroke:none;fill-rule:nonzero;fill:rgb(29.748535%,65.216064%,88.331604%);fill-opacity:1;" d="M 237.167969 250.304688 C 239.371094 250.066406 240.179688 249.210938 240.179688 248.230469 C 240.179688 247.785156 239.925781 247.4375 239.449219 247.4375 C 238.339844 247.4375 237.5 248.941406 237.167969 250.304688 Z M 237.027344 251.046875 C 237.011719 251.175781 237.011719 251.300781 237.011719 251.414062 C 237.011719 252.726562 237.691406 253.140625 238.484375 253.140625 C 239.261719 253.140625 240.035156 252.617188 240.703125 251.683594 L 241.367188 252.160156 C 240.558594 253.316406 239.578125 254.1875 237.898438 254.1875 C 236.265625 254.1875 235.125 253.046875 235.125 251.300781 C 235.125 248.863281 237.234375 246.566406 239.71875 246.566406 C 241.082031 246.566406 241.84375 247.246094 241.84375 248.210938 C 241.84375 249.636719 240.355469 250.859375 237.027344 251.046875 "/>
<path style=" stroke:none;fill-rule:nonzero;fill:rgb(29.748535%,65.216064%,88.331604%);fill-opacity:1;" d="M 249.480469 248.433594 C 249.480469 249.117188 249.050781 249.796875 248.371094 249.796875 C 247.800781 249.796875 247.433594 249.417969 247.433594 248.941406 C 247.433594 248.496094 247.707031 248.132812 248.085938 247.863281 C 247.960938 247.640625 247.691406 247.46875 247.214844 247.46875 C 245.628906 247.46875 244.695312 249.890625 244.695312 251.269531 C 244.695312 252.632812 245.425781 253.0625 246.136719 253.0625 C 246.867188 253.0625 247.5625 252.539062 248.195312 251.554688 L 248.878906 252.015625 C 248.195312 253.203125 247.261719 254.1875 245.707031 254.1875 C 243.964844 254.1875 242.792969 252.996094 242.792969 251.269531 C 242.792969 248.796875 244.917969 246.566406 247.183594 246.566406 C 248.511719 246.566406 249.480469 247.308594 249.480469 248.433594 "/>
<path style=" stroke:none;fill-rule:nonzero;fill:rgb(29.748535%,65.216064%,88.331604%);fill-opacity:1;" d="M 253.902344 247.863281 L 252.949219 251.332031 C 252.839844 251.730469 252.757812 252.09375 252.757812 252.285156 C 252.757812 252.710938 252.980469 252.855469 253.316406 252.855469 C 253.882812 252.855469 254.359375 252.160156 254.804688 251.144531 L 255.5625 251.398438 C 254.785156 253.648438 253.566406 254.1875 252.710938 254.1875 C 251.664062 254.1875 250.921875 253.664062 250.921875 252.585938 C 250.921875 252.125 251.097656 251.460938 251.207031 251.019531 L 252.0625 247.863281 L 250.667969 247.863281 L 250.921875 246.898438 L 252.316406 246.898438 L 252.839844 244.996094 L 254.722656 244.789062 L 254.15625 246.898438 L 256.402344 246.898438 L 256.152344 247.863281 L 253.902344 247.863281 "/>
<g clip-path="url(#clip4)" clip-rule="nonzero">
<path style=" stroke:none;fill-rule:nonzero;fill:rgb(12.452698%,9.849548%,8.714294%);fill-opacity:1;" d="M 0.101562 186.339844 L 11.914062 186.339844 L 20.976562 202.8125 L 29.980469 186.339844 L 41.851562 186.339844 L 41.851562 231.027344 L 30.488281 231.027344 L 30.488281 205.875 L 20.976562 222.472656 L 20.785156 222.472656 L 11.273438 206.003906 L 11.273438 231.027344 L 0.101562 231.027344 L 0.101562 186.339844 "/>
</g>
<path style=" stroke:none;fill-rule:nonzero;fill:rgb(12.452698%,9.849548%,8.714294%);fill-opacity:1;" d="M 71.667969 213.792969 L 67.515625 200.703125 L 63.367188 213.792969 Z M 61.835938 186.085938 L 73.453125 186.085938 L 89.222656 231.027344 L 77.15625 231.027344 L 74.539062 222.984375 L 60.496094 222.984375 L 57.941406 231.027344 L 46.132812 231.027344 L 61.835938 186.085938 "/>
<path style=" stroke:none;fill-rule:nonzero;fill:rgb(12.452698%,9.849548%,8.714294%);fill-opacity:1;" d="M 89.863281 209.195312 L 89.863281 208.300781 C 89.863281 194.894531 99.054688 185.574219 111.375 185.574219 C 117.761719 185.574219 122.421875 187.488281 126.761719 191 L 120.378906 199.746094 C 118.015625 197.640625 115.460938 196.042969 111.632812 196.042969 C 105.949219 196.042969 101.609375 201.023438 101.609375 208.429688 L 101.609375 209.066406 C 101.609375 217.238281 106.015625 221.769531 111.757812 221.769531 C 113.992188 221.769531 115.652344 221.261719 116.929688 220.429688 L 116.929688 213.792969 L 109.84375 213.792969 L 109.84375 204.917969 L 127.71875 204.917969 L 127.71875 226.238281 C 123.503906 229.367188 118.078125 231.792969 111.3125 231.792969 C 99.121094 231.792969 89.863281 223.175781 89.863281 209.195312 "/>
<path style=" stroke:none;fill-rule:nonzero;fill:rgb(12.452698%,9.849548%,8.714294%);fill-opacity:1;" d="M 134.230469 186.339844 L 145.019531 186.339844 L 159.894531 208.8125 L 159.894531 186.339844 L 171.191406 186.339844 L 171.191406 231.027344 L 160.976562 231.027344 L 145.53125 207.597656 L 145.53125 231.027344 L 134.230469 231.027344 L 134.230469 186.339844 "/>
<path style=" stroke:none;fill-rule:nonzero;fill:rgb(12.452698%,9.849548%,8.714294%);fill-opacity:1;" d="M 178.027344 213.34375 L 178.027344 186.339844 L 189.582031 186.339844 L 189.582031 213.472656 C 189.582031 218.832031 192.199219 221.386719 196.15625 221.386719 C 200.175781 221.386719 202.730469 218.960938 202.730469 213.664062 L 202.730469 186.339844 L 214.347656 186.339844 L 214.347656 213.152344 C 214.347656 226.109375 207.007812 231.792969 196.09375 231.792969 C 185.175781 231.792969 178.027344 226.046875 178.027344 213.34375 "/>
<path style=" stroke:none;fill-rule:nonzero;fill:rgb(12.452698%,9.849548%,8.714294%);fill-opacity:1;" d="M 221.246094 186.339844 L 233.054688 186.339844 L 242.121094 202.8125 L 251.121094 186.339844 L 262.996094 186.339844 L 262.996094 231.027344 L 251.632812 231.027344 L 251.632812 205.875 L 242.121094 222.472656 L 241.929688 222.472656 L 232.417969 206.003906 L 232.417969 231.027344 L 221.246094 231.027344 L 221.246094 186.339844 "/>
<path style=" stroke:none;fill-rule:nonzero;fill:rgb(29.748535%,65.216064%,88.331604%);fill-opacity:1;" d="M 165.488281 29.585938 C 165.070312 29.585938 164.660156 29.492188 164.273438 29.308594 C 156.875 25.8125 148.964844 24.039062 140.757812 24.039062 L 139.417969 24.039062 C 138.691406 24.039062 138.046875 23.582031 137.804688 22.898438 C 137.566406 22.214844 137.78125 21.453125 138.34375 21 C 140.460938 19.289062 142.496094 17.300781 144.46875 15.371094 C 149.113281 10.816406 153.910156 6.113281 160.132812 4.539062 C 160.355469 4.480469 160.597656 4.449219 160.84375 4.449219 C 162.339844 4.449219 163.582031 5.617188 163.679688 7.105469 C 164.140625 13.5 165.628906 19.738281 168.097656 25.636719 C 168.46875 26.53125 168.371094 27.53125 167.84375 28.320312 C 167.3125 29.113281 166.433594 29.585938 165.488281 29.585938 "/>
<path style=" stroke:none;fill-rule:nonzero;fill:rgb(29.748535%,65.216064%,88.331604%);fill-opacity:1;" d="M 153.851562 154.011719 C 152.273438 154.011719 150.988281 152.734375 150.988281 151.160156 L 150.988281 146.773438 C 150.988281 135.488281 141.808594 126.308594 130.527344 126.308594 L 126.160156 126.308594 C 124.921875 126.308594 123.867188 125.554688 123.464844 124.382812 C 123.0625 123.207031 123.4375 121.957031 124.417969 121.191406 C 125.425781 120.425781 126.476562 119.757812 127.550781 119.199219 C 130.710938 117.519531 134.300781 116.597656 137.921875 116.535156 C 137.929688 116.535156 137.996094 116.535156 138.015625 116.539062 L 149.558594 116.992188 C 161.769531 116.972656 172.042969 107.402344 172.46875 95.636719 C 172.675781 89.558594 170.472656 83.804688 166.257812 79.429688 C 162.53125 75.558594 157.503906 73.1875 152.105469 72.753906 C 150.65625 72.636719 149.519531 71.464844 149.464844 70.023438 C 149.464844 70 149.464844 69.980469 149.464844 69.957031 C 149.464844 69.761719 149.460938 69.5625 149.460938 69.363281 C 149.457031 69.144531 149.453125 68.925781 149.453125 68.707031 C 149.453125 66.996094 149.519531 65.273438 149.652344 63.570312 L 147.394531 63.335938 C 147.257812 65.148438 147.1875 66.953125 147.1875 68.707031 C 147.1875 76.007812 148.320312 83.183594 150.558594 90.027344 C 151.035156 91.457031 150.5625 92.898438 149.328125 93.789062 C 148.988281 94.035156 148.261719 94.460938 147.285156 94.460938 C 146.542969 94.460938 145.816406 94.207031 145.191406 93.722656 C 137.683594 88.019531 131.800781 79.953125 128.628906 71.015625 C 128.265625 69.980469 128.53125 68.816406 129.304688 68.042969 L 133.585938 63.773438 L 131.976562 62.167969 L 125.496094 68.648438 L 125.554688 68.832031 C 125.644531 69.128906 125.6875 69.402344 125.6875 69.671875 C 125.6875 71.242188 124.410156 72.519531 122.839844 72.519531 L 122.78125 72.519531 C 122.746094 72.519531 122.710938 72.519531 122.671875 72.515625 C 106.945312 71.511719 92.207031 64.742188 81.175781 53.449219 C 80.371094 52.632812 80.136719 51.414062 80.582031 50.347656 C 81.027344 49.285156 82.054688 48.601562 83.203125 48.601562 L 100.1875 48.601562 L 100.1875 46.332031 L 76.667969 46.332031 C 75.726562 46.332031 74.847656 45.878906 74.3125 45.121094 C 71.945312 41.667969 69.914062 38.011719 68.265625 34.234375 C 67.527344 32.496094 67.671875 30.601562 68.65625 29.019531 C 69.679688 27.355469 71.636719 26.316406 73.753906 26.316406 L 140.757812 26.304688 C 154.691406 26.304688 167.851562 31.695312 177.820312 41.484375 C 187.773438 51.257812 193.402344 64.292969 193.675781 78.191406 C 193.679688 78.203125 193.679688 79.246094 193.679688 79.246094 C 193.679688 95.230469 184.949219 111.128906 171.445312 119.742188 C 164.804688 123.980469 160.839844 131.039062 160.839844 138.632812 L 160.839844 138.769531 C 160.902344 143.945312 159.257812 148.847656 156.078125 152.917969 C 155.542969 153.613281 154.730469 154.011719 153.851562 154.011719 "/>
<path style=" stroke:none;fill-rule:nonzero;fill:rgb(22.75238%,40.086365%,72.825623%);fill-opacity:1;" d="M 185.441406 102.617188 C 185.171875 99.179688 184.515625 95.855469 183.507812 92.683594 C 178.769531 95.777344 174.496094 109.023438 165.382812 110.449219 L 150.058594 116.976562 C 150.0625 116.976562 150.0625 116.976562 150.0625 116.976562 C 149.894531 116.980469 149.726562 116.988281 149.558594 116.992188 L 138.015625 116.539062 C 137.996094 116.535156 137.929688 116.535156 137.921875 116.535156 C 134.300781 116.597656 130.710938 117.519531 127.550781 119.199219 C 126.476562 119.757812 125.425781 120.425781 124.417969 121.191406 C 123.4375 121.957031 123.0625 123.207031 123.464844 124.382812 C 123.867188 125.554688 124.921875 126.308594 126.160156 126.308594 L 130.527344 126.308594 C 141.808594 126.308594 150.988281 135.488281 150.988281 146.773438 L 150.988281 151.160156 C 150.988281 152.734375 152.273438 154.011719 153.851562 154.011719 C 154.730469 154.011719 155.542969 153.613281 156.078125 152.917969 C 159.257812 148.847656 160.902344 143.945312 160.839844 138.769531 L 160.839844 138.632812 C 160.839844 131.039062 164.804688 123.980469 171.445312 119.742188 C 177.769531 115.707031 183.046875 110.078125 186.867188 103.585938 L 185.441406 102.617188 "/>
<path style=" stroke:none;fill-rule:nonzero;fill:rgb(100%,100%,100%);fill-opacity:1;" d="M 184.800781 83.160156 C 184.800781 63.539062 168.894531 47.632812 149.273438 47.632812 L 100.1875 47.632812 L 100.1875 48.601562 L 83.203125 48.601562 C 82.054688 48.601562 81.027344 49.285156 80.582031 50.347656 C 80.136719 51.414062 80.371094 52.632812 81.175781 53.449219 C 92.207031 64.742188 106.945312 71.511719 122.671875 72.515625 C 122.710938 72.519531 122.746094 72.519531 122.78125 72.519531 L 122.839844 72.519531 C 124.410156 72.519531 125.6875 71.242188 125.6875 69.671875 C 125.6875 69.402344 125.644531 69.128906 125.554688 68.832031 L 125.496094 68.648438 L 131.976562 62.167969 L 133.585938 63.773438 L 129.304688 68.042969 C 128.53125 68.816406 128.265625 69.980469 128.628906 71.015625 C 131.800781 79.953125 137.683594 88.019531 145.191406 93.722656 C 145.816406 94.207031 146.542969 94.460938 147.285156 94.460938 C 148.261719 94.460938 148.988281 94.035156 149.328125 93.789062 C 150.5625 92.898438 151.035156 91.457031 150.558594 90.027344 C 148.320312 83.183594 147.1875 76.007812 147.1875 68.707031 C 147.1875 66.953125 147.257812 65.148438 147.394531 63.335938 L 149.652344 63.570312 C 149.519531 65.273438 149.453125 66.996094 149.453125 68.707031 C 149.453125 68.925781 149.457031 69.144531 149.460938 69.363281 C 149.460938 69.5625 149.464844 69.761719 149.464844 69.957031 C 149.464844 69.980469 149.464844 70 149.464844 70.023438 C 149.519531 71.464844 150.65625 72.636719 152.105469 72.753906 C 157.503906 73.1875 162.53125 75.558594 166.257812 79.429688 C 170.472656 83.804688 172.675781 89.558594 172.46875 95.636719 C 172.050781 107.238281 162.050781 116.703125 150.058594 116.976562 L 152.015625 118.574219 C 170.355469 117.171875 184.800781 101.859375 184.800781 83.160156 "/>
<path style=" stroke:none;fill-rule:nonzero;fill:rgb(75.637817%,80.897522%,82.220459%);fill-opacity:1;" d="M 151.386719 63.007812 L 148.003906 63.019531 L 148.019531 63.402344 L 149.652344 63.570312 C 149.519531 65.273438 149.453125 66.996094 149.453125 68.707031 C 149.453125 68.925781 149.457031 69.144531 149.460938 69.363281 C 149.460938 69.5625 149.464844 69.761719 149.464844 69.957031 C 149.464844 69.980469 149.464844 70 149.464844 70.023438 C 149.519531 71.464844 150.65625 72.636719 152.105469 72.753906 C 157.503906 73.1875 162.53125 75.558594 166.257812 79.429688 C 170.472656 83.804688 172.675781 89.558594 172.46875 95.636719 C 172.050781 107.238281 162.050781 116.703125 150.058594 116.976562 L 152.015625 118.574219 C 167.117188 117.417969 179.578125 106.828125 183.507812 92.683594 C 178.828125 77.933594 166.617188 66.539062 151.386719 63.007812 "/>
<path style=" stroke:none;fill-rule:nonzero;fill:rgb(12.452698%,9.849548%,8.714294%);fill-opacity:1;" d="M 165 27.761719 C 165.941406 28.207031 166.921875 27.261719 166.523438 26.296875 C 164 20.269531 162.453125 13.835938 161.972656 7.21875 C 161.929688 6.511719 161.246094 6.011719 160.554688 6.195312 C 154.800781 7.648438 150.34375 12.003906 145.671875 16.585938 C 143.644531 18.566406 141.597656 20.566406 139.417969 22.328125 L 140.757812 22.328125 C 149.421875 22.328125 157.644531 24.285156 165 27.761719 Z M 191.96875 79.246094 L 191.96875 78.222656 C 191.421875 50.445312 168.660156 28.011719 140.757812 28.011719 L 73.753906 28.023438 C 72.300781 28.023438 70.867188 28.683594 70.105469 29.921875 C 69.414062 31.039062 69.320312 32.34375 69.832031 33.550781 C 71.46875 37.304688 73.449219 40.839844 75.710938 44.136719 C 75.925781 44.445312 76.28125 44.625 76.667969 44.625 L 100.757812 44.625 C 101.382812 44.625 101.894531 45.136719 101.894531 45.761719 L 101.894531 49.171875 C 101.894531 49.808594 101.382812 50.308594 100.757812 50.308594 L 83.203125 50.308594 C 82.191406 50.308594 81.691406 51.539062 82.398438 52.253906 C 92.960938 63.066406 107.273438 69.820312 122.78125 70.808594 C 122.792969 70.808594 122.816406 70.808594 122.839844 70.808594 C 123.464844 70.808594 123.976562 70.296875 123.976562 69.671875 C 123.976562 69.558594 123.953125 69.445312 123.917969 69.332031 L 123.761719 68.808594 C 123.648438 68.410156 123.75 67.980469 124.042969 67.683594 L 131.171875 60.554688 C 131.617188 60.109375 132.332031 60.109375 132.777344 60.554688 L 135.199219 62.964844 C 135.640625 63.410156 135.640625 64.136719 135.199219 64.578125 L 130.515625 69.25 C 130.207031 69.558594 130.09375 70.023438 130.242188 70.445312 C 133.3125 79.097656 138.929688 86.820312 146.226562 92.367188 C 147.195312 93.105469 148.082031 92.582031 148.332031 92.402344 C 148.695312 92.140625 149.261719 91.546875 148.933594 90.558594 C 146.636719 83.53125 145.476562 76.175781 145.476562 68.707031 C 145.476562 66.683594 145.566406 64.636719 145.738281 62.613281 C 145.796875 61.976562 146.363281 61.519531 147 61.578125 L 150.390625 61.929688 C 151.015625 61.996094 151.457031 62.53125 151.402344 63.15625 C 151.242188 65 151.164062 66.863281 151.164062 68.707031 C 151.164062 69.128906 151.171875 69.546875 151.171875 69.957031 C 151.195312 70.546875 151.664062 71.003906 152.242188 71.046875 C 158.039062 71.515625 163.40625 74.003906 167.488281 78.246094 C 172.027344 82.953125 174.402344 89.148438 174.175781 95.699219 C 173.71875 108.375 162.667969 118.699219 149.523438 118.699219 L 137.949219 118.246094 C 134.597656 118.300781 131.277344 119.15625 128.34375 120.710938 C 127.320312 121.246094 126.363281 121.859375 125.464844 122.542969 C 124.601562 123.214844 125.066406 124.601562 126.160156 124.601562 L 130.527344 124.601562 C 142.769531 124.601562 152.695312 134.527344 152.695312 146.773438 L 152.695312 151.160156 C 152.695312 152.242188 154.074219 152.71875 154.734375 151.867188 C 157.644531 148.136719 159.1875 143.578125 159.132812 138.769531 L 159.132812 138.632812 C 159.132812 130.445312 163.394531 122.847656 170.527344 118.300781 C 183.554688 109.992188 191.96875 94.664062 191.96875 79.246094 Z M 197.664062 79.246094 L 197.664062 82.089844 L 197.574219 82.089844 C 196.609375 98.414062 187.410156 114.277344 173.570312 123.101562 C 168.089844 126.601562 164.816406 132.402344 164.816406 138.632812 C 164.910156 145.921875 162.144531 152.707031 157.039062 157.824219 C 155.347656 159.507812 153.402344 160.984375 151.242188 162.191406 L 148.707031 163.621094 C 147.945312 164.042969 147.011719 163.496094 147.011719 162.621094 L 147.011719 146.773438 C 147.011719 137.664062 139.621094 130.285156 130.527344 130.285156 L 114.664062 130.285156 C 113.800781 130.285156 113.242188 129.351562 113.675781 128.59375 L 115.097656 126.042969 C 117.632812 121.554688 121.191406 118.0625 125.683594 115.6875 C 129.433594 113.695312 133.675781 112.617188 137.9375 112.558594 L 138.019531 112.558594 L 149.636719 113.015625 C 159.644531 113.015625 168.148438 105.160156 168.488281 95.492188 C 168.660156 90.5 166.863281 85.773438 163.394531 82.191406 C 160.609375 79.304688 157.050781 77.484375 153.175781 76.871094 C 152.414062 76.757812 151.742188 77.40625 151.855469 78.164062 C 152.367188 81.703125 153.175781 85.179688 154.265625 88.570312 C 155.265625 91.671875 154.265625 95.164062 151.617188 97.039062 C 150.308594 97.960938 148.808594 98.425781 147.308594 98.425781 C 145.714844 98.425781 144.136719 97.914062 142.792969 96.890625 C 136.015625 91.753906 130.550781 84.929688 126.910156 77.222656 C 126.714844 76.859375 126.339844 76.621094 125.910156 76.621094 C 99.234375 76.277344 75.246094 60.339844 64.613281 35.800781 C 63.066406 32.21875 63.820312 28.011719 66.707031 25.125 C 68.558594 23.261719 71.164062 22.339844 73.789062 22.339844 L 125.398438 22.328125 C 131.675781 22.328125 136.3125 17.78125 141.703125 12.515625 C 147.695312 6.648438 154.484375 -0.00390625 164.660156 -0.00390625 L 166.363281 -0.00390625 C 167 -0.00390625 167.5 0.507812 167.5 1.136719 L 167.5 2.839844 C 167.5 16.769531 172.707031 30.046875 182.15625 40.257812 C 191.765625 50.457031 197.664062 64.171875 197.664062 79.246094 "/>
<path style=" stroke:none;fill-rule:nonzero;fill:rgb(12.452698%,9.849548%,8.714294%);fill-opacity:1;" d="M 129.890625 39.121094 C 131.730469 41.886719 132.664062 45.183594 132.539062 48.523438 C 132.4375 51.445312 131.527344 54.230469 129.890625 56.664062 C 129.511719 57.234375 128.75 57.371094 128.21875 56.949219 L 125.535156 54.824219 C 125.078125 54.472656 124.964844 53.824219 125.273438 53.34375 C 126.25 51.820312 126.796875 50.105469 126.863281 48.320312 C 126.933594 46.195312 126.386719 44.171875 125.25 42.40625 C 124.941406 41.929688 125.078125 41.292969 125.535156 40.941406 L 128.230469 38.824219 C 128.75 38.417969 129.527344 38.554688 129.890625 39.121094 "/>
<path style=" stroke:none;fill-rule:nonzero;fill:rgb(12.452698%,9.849548%,8.714294%);fill-opacity:1;" d="M 118.519531 39.121094 C 120.363281 41.886719 121.292969 45.183594 121.167969 48.523438 C 121.066406 51.445312 120.15625 54.230469 118.519531 56.664062 C 118.144531 57.234375 117.382812 57.371094 116.847656 56.949219 L 114.164062 54.824219 C 113.710938 54.472656 113.59375 53.824219 113.902344 53.34375 C 114.878906 51.820312 115.425781 50.105469 115.496094 48.320312 C 115.5625 46.195312 115.015625 44.171875 113.878906 42.40625 C 113.574219 41.929688 113.710938 41.292969 114.164062 40.941406 L 116.859375 38.824219 C 117.382812 38.417969 118.15625 38.554688 118.519531 39.121094 "/>
<path style=" stroke:none;fill-rule:nonzero;fill:rgb(12.452698%,9.849548%,8.714294%);fill-opacity:1;" d="M 98.292969 30.382812 C 99.863281 30.382812 101.132812 31.660156 101.132812 33.226562 C 101.132812 34.796875 99.863281 36.070312 98.292969 36.070312 C 96.722656 36.070312 95.449219 34.796875 95.449219 33.226562 C 95.449219 31.660156 96.722656 30.382812 98.292969 30.382812 "/>
</g>
</svg>
