<?xml version="1.0" encoding="UTF-8"?>
<svg xmlns="http://www.w3.org/2000/svg" xmlns:xlink="http://www.w3.org/1999/xlink" width="403.12pt" height="138.17pt" viewBox="0 0 403.12 138.17" version="1.2">
<defs>
<clipPath id="clip1">
  <path d="M 359 47 L 401.480469 47 L 401.480469 92 L 359 92 Z M 359 47 "/>
</clipPath>
<clipPath id="clip2">
  <path d="M 0.765625 0 L 114 0 L 114 137.34375 L 0.765625 137.34375 Z M 0.765625 0 "/>
</clipPath>
</defs>
<g id="surface1">
<path style=" stroke:none;fill-rule:nonzero;fill:rgb(12.452698%,9.849548%,8.714294%);fill-opacity:1;" d="M 136.003906 47.378906 L 147.773438 47.378906 L 156.808594 63.792969 L 165.777344 47.378906 L 177.609375 47.378906 L 177.609375 91.910156 L 166.285156 91.910156 L 166.285156 66.84375 L 156.808594 83.386719 L 156.617188 83.386719 L 147.136719 66.972656 L 147.136719 91.910156 L 136.003906 91.910156 L 136.003906 47.378906 "/>
<path style=" stroke:none;fill-rule:nonzero;fill:rgb(12.452698%,9.849548%,8.714294%);fill-opacity:1;" d="M 208.019531 74.734375 L 203.882812 61.691406 L 199.75 74.734375 Z M 198.222656 47.125 L 209.800781 47.125 L 225.511719 91.910156 L 213.488281 91.910156 L 210.882812 83.894531 L 196.886719 83.894531 L 194.339844 91.910156 L 182.574219 91.910156 L 198.222656 47.125 "/>
<path style=" stroke:none;fill-rule:nonzero;fill:rgb(12.452698%,9.849548%,8.714294%);fill-opacity:1;" d="M 226.851562 70.152344 L 226.851562 69.261719 C 226.851562 55.90625 236.011719 46.617188 248.289062 46.617188 C 254.648438 46.617188 259.292969 48.523438 263.621094 52.023438 L 257.257812 60.738281 C 254.90625 58.640625 252.359375 57.050781 248.542969 57.050781 C 242.882812 57.050781 238.558594 62.011719 238.558594 69.390625 L 238.558594 70.027344 C 238.558594 78.167969 242.945312 82.683594 248.671875 82.683594 C 250.898438 82.683594 252.550781 82.175781 253.824219 81.351562 L 253.824219 74.734375 L 246.761719 74.734375 L 246.761719 65.890625 L 264.574219 65.890625 L 264.574219 87.136719 C 260.375 90.253906 254.96875 92.671875 248.226562 92.671875 C 236.074219 92.671875 226.851562 84.085938 226.851562 70.152344 "/>
<path style=" stroke:none;fill-rule:nonzero;fill:rgb(12.452698%,9.849548%,8.714294%);fill-opacity:1;" d="M 271.765625 47.378906 L 282.515625 47.378906 L 297.335938 69.773438 L 297.335938 47.378906 L 308.597656 47.378906 L 308.597656 91.910156 L 298.417969 91.910156 L 283.023438 68.5625 L 283.023438 91.910156 L 271.765625 91.910156 L 271.765625 47.378906 "/>
<path style=" stroke:none;fill-rule:nonzero;fill:rgb(12.452698%,9.849548%,8.714294%);fill-opacity:1;" d="M 316.105469 74.289062 L 316.105469 47.378906 L 327.617188 47.378906 L 327.617188 74.414062 C 327.617188 79.757812 330.226562 82.304688 334.171875 82.304688 C 338.179688 82.304688 340.722656 79.886719 340.722656 74.605469 L 340.722656 47.378906 L 352.300781 47.378906 L 352.300781 74.097656 C 352.300781 87.011719 344.984375 92.671875 334.109375 92.671875 C 323.230469 92.671875 316.105469 86.949219 316.105469 74.289062 "/>
<g clip-path="url(#clip1)" clip-rule="nonzero">
<path style=" stroke:none;fill-rule:nonzero;fill:rgb(12.452698%,9.849548%,8.714294%);fill-opacity:1;" d="M 359.875 47.378906 L 371.640625 47.378906 L 380.675781 63.792969 L 389.644531 47.378906 L 401.476562 47.378906 L 401.476562 91.910156 L 390.152344 91.910156 L 390.152344 66.84375 L 380.675781 83.386719 L 380.484375 83.386719 L 371.007812 66.972656 L 371.007812 91.910156 L 359.875 91.910156 L 359.875 47.378906 "/>
</g>
<path style=" stroke:none;fill-rule:nonzero;fill:rgb(12.452698%,9.849548%,8.714294%);fill-opacity:1;" d="M 141.277344 107.734375 C 141.277344 106.890625 140.96875 106.4375 140.398438 106.4375 C 138.953125 106.4375 137.996094 109.128906 137.996094 110.445312 C 137.996094 111.402344 138.335938 111.890625 138.9375 111.890625 C 140.253906 111.890625 141.277344 109.050781 141.277344 107.734375 Z M 142.527344 110.523438 C 142.394531 110.949219 142.347656 111.238281 142.347656 111.449219 C 142.347656 111.726562 142.476562 111.871094 142.71875 111.871094 C 143.078125 111.871094 143.433594 111.320312 143.808594 110.234375 L 144.585938 110.476562 C 143.953125 112.457031 143.078125 113.1875 142.085938 113.1875 C 141.324219 113.1875 140.757812 112.699219 140.757812 111.757812 C 140.757812 111.644531 140.757812 111.5625 140.773438 111.402344 L 140.660156 111.351562 C 140.042969 112.570312 139.117188 113.1875 138.191406 113.1875 C 136.796875 113.1875 136.035156 112.035156 136.035156 110.605469 C 136.035156 108.953125 136.699219 107.472656 137.574219 106.613281 C 138.335938 105.835938 139.199219 105.378906 140.105469 105.378906 C 141.015625 105.378906 141.535156 106.011719 141.683594 106.742188 L 142.003906 105.492188 L 143.855469 105.492188 L 142.527344 110.523438 "/>
<path style=" stroke:none;fill-rule:nonzero;fill:rgb(12.452698%,9.849548%,8.714294%);fill-opacity:1;" d="M 152.714844 111.871094 C 153.058594 111.871094 153.398438 111.351562 153.835938 110.234375 L 154.597656 110.476562 C 153.949219 112.441406 153.039062 113.1875 152.117188 113.1875 C 151.238281 113.1875 150.671875 112.617188 150.671875 111.675781 C 150.671875 110.054688 151.742188 108.449219 151.742188 107.34375 C 151.742188 106.972656 151.582031 106.808594 151.304688 106.808594 C 150.558594 106.808594 149.160156 108.042969 147.863281 113.023438 L 145.917969 113.023438 L 147.3125 107.765625 C 147.554688 106.839844 147.507812 106.582031 147.214844 106.582031 C 146.839844 106.582031 146.417969 107.28125 145.949219 108.285156 L 145.1875 107.960938 C 145.882812 106.339844 146.695312 105.398438 147.78125 105.398438 C 148.480469 105.398438 148.96875 105.898438 148.96875 106.90625 C 148.96875 107.378906 148.871094 107.960938 148.628906 108.707031 L 148.742188 108.757812 C 149.8125 106.46875 151.011719 105.378906 152.164062 105.378906 C 153.074219 105.378906 153.640625 106.09375 153.640625 107.066406 C 153.640625 108.449219 152.441406 110.523438 152.441406 111.515625 C 152.441406 111.757812 152.539062 111.871094 152.714844 111.871094 "/>
<path style=" stroke:none;fill-rule:nonzero;fill:rgb(12.452698%,9.849548%,8.714294%);fill-opacity:1;" d="M 160.8125 109.308594 C 160.8125 111.191406 161.738281 112.101562 163.265625 112.101562 C 165.910156 112.101562 166.980469 108.15625 166.980469 106.0625 C 166.980469 104.179688 166.039062 103.269531 164.53125 103.269531 C 161.867188 103.269531 160.8125 107.214844 160.8125 109.308594 Z M 164.609375 102.085938 C 167.273438 102.085938 169.140625 103.984375 169.140625 106.777344 C 169.140625 109.910156 166.785156 113.285156 163.183594 113.285156 C 160.519531 113.285156 158.636719 111.386719 158.636719 108.59375 C 158.636719 105.460938 160.992188 102.085938 164.609375 102.085938 "/>
<path style=" stroke:none;fill-rule:nonzero;fill:rgb(12.452698%,9.849548%,8.714294%);fill-opacity:1;" d="M 172.96875 110.6875 C 172.96875 111.484375 173.308594 112.035156 174.023438 112.035156 C 175.464844 112.035156 176.277344 109.308594 176.277344 108.027344 C 176.277344 107.117188 175.984375 106.648438 175.386719 106.648438 C 174.085938 106.648438 172.96875 109.257812 172.96875 110.6875 Z M 171.652344 106.726562 C 171.28125 106.726562 170.988281 107.199219 170.46875 108.285156 L 169.707031 107.960938 C 170.484375 106.175781 171.246094 105.398438 172.269531 105.398438 C 173 105.398438 173.488281 105.933594 173.488281 106.855469 C 173.488281 106.972656 173.472656 107.117188 173.453125 107.261719 L 173.585938 107.3125 C 174.203125 106.027344 175.191406 105.378906 176.085938 105.378906 C 177.445312 105.378906 178.226562 106.5 178.226562 108.011719 C 178.226562 110.625 176.425781 113.039062 174.429688 113.039062 C 173.566406 113.039062 172.886719 112.601562 172.578125 111.953125 L 171.929688 114.371094 L 173.453125 114.371094 L 173.128906 115.574219 L 168.632812 115.574219 L 168.957031 114.371094 L 170.0625 114.371094 L 171.78125 107.945312 C 172.027344 107.035156 171.945312 106.726562 171.652344 106.726562 "/>
<path style=" stroke:none;fill-rule:nonzero;fill:rgb(12.452698%,9.849548%,8.714294%);fill-opacity:1;" d="M 181.242188 109.210938 C 183.5 108.96875 184.328125 108.089844 184.328125 107.085938 C 184.328125 106.628906 184.066406 106.273438 183.582031 106.273438 C 182.445312 106.273438 181.585938 107.816406 181.242188 109.210938 Z M 181.097656 109.972656 C 181.082031 110.101562 181.082031 110.234375 181.082031 110.347656 C 181.082031 111.695312 181.777344 112.117188 182.589844 112.117188 C 183.386719 112.117188 184.179688 111.578125 184.863281 110.625 L 185.542969 111.109375 C 184.714844 112.292969 183.710938 113.1875 181.992188 113.1875 C 180.320312 113.1875 179.148438 112.019531 179.148438 110.234375 C 179.148438 107.734375 181.308594 105.378906 183.855469 105.378906 C 185.253906 105.378906 186.03125 106.078125 186.03125 107.066406 C 186.03125 108.527344 184.503906 109.777344 181.097656 109.972656 "/>
<path style=" stroke:none;fill-rule:nonzero;fill:rgb(12.452698%,9.849548%,8.714294%);fill-opacity:1;" d="M 194.386719 111.871094 C 194.726562 111.871094 195.070312 111.351562 195.507812 110.234375 L 196.269531 110.476562 C 195.621094 112.441406 194.710938 113.1875 193.789062 113.1875 C 192.910156 113.1875 192.34375 112.617188 192.34375 111.675781 C 192.34375 110.054688 193.414062 108.449219 193.414062 107.34375 C 193.414062 106.972656 193.25 106.808594 192.976562 106.808594 C 192.230469 106.808594 190.832031 108.042969 189.535156 113.023438 L 187.585938 113.023438 L 188.984375 107.765625 C 189.226562 106.839844 189.179688 106.582031 188.886719 106.582031 C 188.511719 106.582031 188.089844 107.28125 187.621094 108.285156 L 186.855469 107.960938 C 187.554688 106.339844 188.367188 105.398438 189.453125 105.398438 C 190.152344 105.398438 190.636719 105.898438 190.636719 106.90625 C 190.636719 107.378906 190.542969 107.960938 190.296875 108.707031 L 190.410156 108.757812 C 191.484375 106.46875 192.683594 105.378906 193.835938 105.378906 C 194.746094 105.378906 195.3125 106.09375 195.3125 107.066406 C 195.3125 108.449219 194.113281 110.523438 194.113281 111.515625 C 194.113281 111.757812 194.207031 111.871094 194.386719 111.871094 "/>
<path style=" stroke:none;fill-rule:nonzero;fill:rgb(12.452698%,9.849548%,8.714294%);fill-opacity:1;" d="M 197.957031 109.226562 L 199.109375 109.226562 C 199.417969 111.175781 200.554688 112.132812 201.980469 112.132812 C 203.265625 112.132812 204.011719 111.320312 204.011719 110.476562 C 204.011719 109.535156 202.941406 109.097656 201.789062 108.5625 C 200.441406 107.960938 198.960938 107.246094 198.960938 105.527344 C 198.960938 103.707031 200.601562 102.085938 202.761719 102.085938 C 203.914062 102.085938 204.984375 102.554688 205.519531 103.320312 L 206.183594 102.132812 L 207.402344 102.132812 L 206.445312 105.980469 L 205.308594 105.980469 C 204.96875 103.96875 204.15625 103.222656 202.761719 103.222656 C 201.707031 103.222656 200.960938 103.984375 200.960938 104.828125 C 200.960938 105.851562 202.0625 106.289062 203.230469 106.808594 C 204.5625 107.378906 205.992188 108.058594 205.992188 109.761719 C 205.992188 111.757812 204.222656 113.285156 201.996094 113.285156 C 200.585938 113.285156 199.53125 112.765625 198.914062 111.988281 L 198.199219 113.234375 L 196.984375 113.234375 L 197.957031 109.226562 "/>
<path style=" stroke:none;fill-rule:nonzero;fill:rgb(12.452698%,9.849548%,8.714294%);fill-opacity:1;" d="M 211.3125 106.710938 L 210.339844 110.265625 C 210.226562 110.671875 210.144531 111.042969 210.144531 111.238281 C 210.144531 111.675781 210.371094 111.824219 210.710938 111.824219 C 211.296875 111.824219 211.78125 111.109375 212.238281 110.070312 L 213.015625 110.332031 C 212.222656 112.636719 210.972656 113.1875 210.09375 113.1875 C 209.023438 113.1875 208.261719 112.652344 208.261719 111.546875 C 208.261719 111.078125 208.441406 110.394531 208.554688 109.941406 L 209.429688 106.710938 L 208 106.710938 L 208.261719 105.722656 L 209.6875 105.722656 L 210.226562 103.773438 L 212.15625 103.5625 L 211.570312 105.722656 L 213.875 105.722656 L 213.617188 106.710938 L 211.3125 106.710938 "/>
<path style=" stroke:none;fill-rule:nonzero;fill:rgb(12.452698%,9.849548%,8.714294%);fill-opacity:1;" d="M 219.523438 107.734375 C 219.523438 106.890625 219.214844 106.4375 218.644531 106.4375 C 217.203125 106.4375 216.246094 109.128906 216.246094 110.445312 C 216.246094 111.402344 216.585938 111.890625 217.1875 111.890625 C 218.5 111.890625 219.523438 109.050781 219.523438 107.734375 Z M 220.773438 110.523438 C 220.640625 110.949219 220.59375 111.238281 220.59375 111.449219 C 220.59375 111.726562 220.722656 111.871094 220.96875 111.871094 C 221.324219 111.871094 221.679688 111.320312 222.054688 110.234375 L 222.832031 110.476562 C 222.199219 112.457031 221.324219 113.1875 220.335938 113.1875 C 219.570312 113.1875 219.003906 112.699219 219.003906 111.757812 C 219.003906 111.644531 219.003906 111.5625 219.019531 111.402344 L 218.90625 111.351562 C 218.289062 112.570312 217.363281 113.1875 216.441406 113.1875 C 215.042969 113.1875 214.28125 112.035156 214.28125 110.605469 C 214.28125 108.953125 214.945312 107.472656 215.824219 106.613281 C 216.585938 105.835938 217.445312 105.378906 218.355469 105.378906 C 219.261719 105.378906 219.78125 106.011719 219.929688 106.742188 L 220.253906 105.492188 L 222.105469 105.492188 L 220.773438 110.523438 "/>
<path style=" stroke:none;fill-rule:nonzero;fill:rgb(12.452698%,9.849548%,8.714294%);fill-opacity:1;" d="M 230.265625 107.296875 C 230.265625 107.992188 229.828125 108.691406 229.128906 108.691406 C 228.542969 108.691406 228.171875 108.300781 228.171875 107.816406 C 228.171875 107.359375 228.449219 106.988281 228.835938 106.710938 C 228.707031 106.484375 228.429688 106.304688 227.945312 106.304688 C 226.320312 106.304688 225.363281 108.789062 225.363281 110.199219 C 225.363281 111.597656 226.109375 112.035156 226.84375 112.035156 C 227.589844 112.035156 228.300781 111.5 228.953125 110.492188 L 229.648438 110.964844 C 228.953125 112.179688 227.996094 113.1875 226.402344 113.1875 C 224.617188 113.1875 223.417969 111.96875 223.417969 110.199219 C 223.417969 107.667969 225.589844 105.378906 227.914062 105.378906 C 229.277344 105.378906 230.265625 106.144531 230.265625 107.296875 "/>
<path style=" stroke:none;fill-rule:nonzero;fill:rgb(12.452698%,9.849548%,8.714294%);fill-opacity:1;" d="M 237.144531 111.871094 C 237.503906 111.871094 237.8125 111.351562 238.234375 110.234375 L 238.996094 110.476562 C 238.378906 112.441406 237.535156 113.1875 236.59375 113.1875 C 235.683594 113.1875 235.085938 112.585938 235.085938 111.53125 C 235.085938 111.078125 235.261719 110.429688 235.261719 110.070312 C 235.261719 109.46875 235.003906 109.324219 233.820312 109.324219 L 233.785156 109.324219 L 232.796875 113.023438 L 230.960938 113.023438 L 233.59375 103.109375 L 232.246094 103.109375 L 232.570312 101.84375 L 235.796875 101.84375 L 233.980469 108.59375 L 234.0625 108.59375 C 234.921875 108.59375 235.28125 108.105469 235.996094 106.921875 C 236.53125 106.046875 237.066406 105.378906 238.023438 105.378906 C 238.800781 105.378906 239.222656 105.867188 239.222656 106.566406 C 239.222656 107.246094 238.785156 107.929688 238.121094 107.929688 C 237.46875 107.929688 237.128906 107.359375 237.355469 106.695312 C 237.128906 106.742188 236.886719 107.019531 236.511719 107.636719 C 236.1875 108.238281 235.929688 108.578125 235.441406 108.839844 C 236.59375 108.933594 236.96875 109.4375 236.96875 110.199219 C 236.96875 110.671875 236.835938 111.140625 236.835938 111.433594 C 236.835938 111.757812 236.96875 111.871094 237.144531 111.871094 "/>
<path style=" stroke:none;fill-rule:nonzero;fill:rgb(12.452698%,9.849548%,8.714294%);fill-opacity:1;" d="M 246.023438 108.757812 C 246.023438 105.492188 248.425781 102.085938 251.992188 102.085938 C 253.339844 102.085938 254.347656 102.574219 254.898438 103.402344 L 255.566406 102.132812 L 256.8125 102.132812 L 255.773438 106.355469 L 254.558594 106.355469 C 254.394531 104.015625 253.375 103.269531 252.058594 103.269531 C 249.1875 103.269531 248.195312 107.132812 248.195312 108.917969 C 248.195312 111.078125 249.300781 111.988281 250.710938 111.988281 C 252.433594 111.988281 253.4375 110.6875 254.25 108.773438 L 255.402344 109.179688 C 254.589844 111.449219 253.082031 113.285156 250.484375 113.285156 C 247.5 113.285156 246.023438 111.386719 246.023438 108.757812 "/>
<path style=" stroke:none;fill-rule:nonzero;fill:rgb(12.452698%,9.849548%,8.714294%);fill-opacity:1;" d="M 260.757812 106.273438 C 259.246094 106.273438 258.386719 109.226562 258.386719 110.800781 C 258.386719 111.839844 258.824219 112.277344 259.523438 112.277344 C 261.03125 112.277344 261.890625 109.324219 261.890625 107.75 C 261.890625 106.710938 261.453125 106.273438 260.757812 106.273438 Z M 263.824219 108.511719 C 263.824219 111.042969 261.796875 113.1875 259.539062 113.1875 C 257.671875 113.1875 256.457031 111.871094 256.457031 110.039062 C 256.457031 107.507812 258.484375 105.378906 260.742188 105.378906 C 262.605469 105.378906 263.824219 106.679688 263.824219 108.511719 "/>
<path style=" stroke:none;fill-rule:nonzero;fill:rgb(12.452698%,9.849548%,8.714294%);fill-opacity:1;" d="M 274.371094 111.675781 C 274.371094 110.054688 275.441406 108.449219 275.441406 107.34375 C 275.441406 106.972656 275.28125 106.808594 275.003906 106.808594 C 274.292969 106.808594 272.878906 108.042969 271.582031 113.023438 L 269.664062 113.023438 L 270.800781 108.738281 C 270.949219 108.207031 271.03125 107.816406 271.03125 107.507812 C 271.03125 107.117188 270.898438 106.808594 270.542969 106.808594 C 269.796875 106.808594 268.398438 108.042969 267.101562 113.023438 L 265.152344 113.023438 L 266.550781 107.765625 C 266.792969 106.839844 266.746094 106.582031 266.453125 106.582031 C 266.078125 106.582031 265.65625 107.28125 265.1875 108.285156 L 264.421875 107.960938 C 265.121094 106.339844 265.933594 105.398438 267.019531 105.398438 C 267.71875 105.398438 268.203125 105.898438 268.203125 106.90625 C 268.203125 107.378906 268.105469 107.960938 267.863281 108.707031 L 267.976562 108.757812 C 269.050781 106.46875 270.25 105.378906 271.355469 105.378906 C 272.246094 105.378906 272.714844 105.980469 272.714844 106.953125 C 272.714844 107.410156 272.585938 107.960938 272.34375 108.707031 L 272.457031 108.757812 C 273.527344 106.46875 274.726562 105.378906 275.882812 105.378906 C 276.773438 105.378906 277.339844 106.09375 277.339844 107.066406 C 277.339844 108.449219 276.140625 110.523438 276.140625 111.515625 C 276.140625 111.757812 276.238281 111.871094 276.417969 111.871094 C 276.757812 111.871094 277.097656 111.351562 277.539062 110.234375 L 278.300781 110.476562 C 277.652344 112.441406 276.742188 113.1875 275.816406 113.1875 C 274.941406 113.1875 274.371094 112.617188 274.371094 111.675781 "/>
<path style=" stroke:none;fill-rule:nonzero;fill:rgb(12.452698%,9.849548%,8.714294%);fill-opacity:1;" d="M 288.601562 111.675781 C 288.601562 110.054688 289.675781 108.449219 289.675781 107.34375 C 289.675781 106.972656 289.511719 106.808594 289.234375 106.808594 C 288.523438 106.808594 287.109375 108.042969 285.8125 113.023438 L 283.898438 113.023438 L 285.035156 108.738281 C 285.179688 108.207031 285.261719 107.816406 285.261719 107.507812 C 285.261719 107.117188 285.128906 106.808594 284.773438 106.808594 C 284.027344 106.808594 282.632812 108.042969 281.332031 113.023438 L 279.386719 113.023438 L 280.78125 107.765625 C 281.023438 106.839844 280.976562 106.582031 280.683594 106.582031 C 280.3125 106.582031 279.886719 107.28125 279.417969 108.285156 L 278.65625 107.960938 C 279.351562 106.339844 280.164062 105.398438 281.25 105.398438 C 281.949219 105.398438 282.4375 105.898438 282.4375 106.90625 C 282.4375 107.378906 282.339844 107.960938 282.097656 108.707031 L 282.210938 108.757812 C 283.28125 106.46875 284.480469 105.378906 285.585938 105.378906 C 286.476562 105.378906 286.949219 105.980469 286.949219 106.953125 C 286.949219 107.410156 286.820312 107.960938 286.574219 108.707031 L 286.6875 108.757812 C 287.761719 106.46875 288.960938 105.378906 290.113281 105.378906 C 291.003906 105.378906 291.574219 106.09375 291.574219 107.066406 C 291.574219 108.449219 290.371094 110.523438 290.371094 111.515625 C 290.371094 111.757812 290.46875 111.871094 290.648438 111.871094 C 290.988281 111.871094 291.332031 111.351562 291.769531 110.234375 L 292.53125 110.476562 C 291.882812 112.441406 290.972656 113.1875 290.046875 113.1875 C 289.171875 113.1875 288.601562 112.617188 288.601562 111.675781 "/>
<path style=" stroke:none;fill-rule:nonzero;fill:rgb(12.452698%,9.849548%,8.714294%);fill-opacity:1;" d="M 298.582031 111.660156 C 298.582031 111.253906 298.679688 110.636719 298.941406 109.8125 L 298.828125 109.761719 C 297.753906 112.117188 296.621094 113.1875 295.449219 113.1875 C 294.558594 113.1875 293.976562 112.488281 293.976562 111.484375 C 293.976562 110.121094 295.125 107.960938 295.125 107.035156 C 295.125 106.808594 295.027344 106.695312 294.882812 106.695312 C 294.542969 106.695312 294.265625 107.050781 293.683594 108.269531 L 292.917969 107.945312 C 293.585938 106.339844 294.445312 105.378906 295.5625 105.378906 C 296.425781 105.378906 296.925781 105.914062 296.925781 106.855469 C 296.925781 108.367188 295.855469 110.085938 295.855469 111.125 C 295.855469 111.578125 296.035156 111.757812 296.3125 111.757812 C 297.042969 111.757812 298.386719 110.558594 299.71875 105.492188 L 301.667969 105.492188 L 300.335938 110.523438 C 300.207031 110.964844 300.15625 111.238281 300.15625 111.449219 C 300.15625 111.726562 300.304688 111.871094 300.53125 111.871094 C 300.902344 111.871094 301.246094 111.320312 301.617188 110.234375 L 302.398438 110.476562 C 301.765625 112.457031 300.886719 113.1875 299.960938 113.1875 C 299.117188 113.1875 298.582031 112.714844 298.582031 111.660156 "/>
<path style=" stroke:none;fill-rule:nonzero;fill:rgb(12.452698%,9.849548%,8.714294%);fill-opacity:1;" d="M 310.152344 111.871094 C 310.496094 111.871094 310.835938 111.351562 311.273438 110.234375 L 312.035156 110.476562 C 311.386719 112.441406 310.476562 113.1875 309.554688 113.1875 C 308.675781 113.1875 308.109375 112.617188 308.109375 111.675781 C 308.109375 110.054688 309.179688 108.449219 309.179688 107.34375 C 309.179688 106.972656 309.019531 106.808594 308.742188 106.808594 C 307.996094 106.808594 306.601562 108.042969 305.300781 113.023438 L 303.355469 113.023438 L 304.75 107.765625 C 304.992188 106.839844 304.945312 106.582031 304.652344 106.582031 C 304.277344 106.582031 303.855469 107.28125 303.386719 108.285156 L 302.621094 107.960938 C 303.320312 106.339844 304.132812 105.398438 305.21875 105.398438 C 305.917969 105.398438 306.40625 105.898438 306.40625 106.90625 C 306.40625 107.378906 306.308594 107.960938 306.0625 108.707031 L 306.175781 108.757812 C 307.25 106.46875 308.449219 105.378906 309.601562 105.378906 C 310.511719 105.378906 311.078125 106.09375 311.078125 107.066406 C 311.078125 108.449219 309.878906 110.523438 309.878906 111.515625 C 309.878906 111.757812 309.976562 111.871094 310.152344 111.871094 "/>
<path style=" stroke:none;fill-rule:nonzero;fill:rgb(12.452698%,9.849548%,8.714294%);fill-opacity:1;" d="M 316.125 104.246094 C 315.558594 104.246094 315.117188 103.855469 315.117188 103.207031 C 315.117188 102.542969 315.621094 101.777344 316.480469 101.777344 C 317.097656 101.777344 317.519531 102.167969 317.519531 102.816406 C 317.519531 103.464844 316.984375 104.246094 316.125 104.246094 Z M 315.34375 111.484375 C 315.34375 111.757812 315.457031 111.871094 315.671875 111.871094 C 315.976562 111.871094 316.335938 111.433594 316.824219 110.234375 L 317.585938 110.476562 C 316.953125 112.390625 316.042969 113.1875 315.003906 113.1875 C 314.160156 113.1875 313.542969 112.636719 313.542969 111.660156 C 313.542969 110.121094 314.890625 107.945312 314.890625 106.9375 C 314.890625 106.679688 314.792969 106.582031 314.648438 106.582031 C 314.195312 106.582031 313.785156 107.28125 313.332031 108.285156 L 312.554688 107.960938 C 313.253906 106.339844 314.113281 105.378906 315.214844 105.378906 C 316.058594 105.378906 316.660156 105.980469 316.660156 107.019531 C 316.660156 108.285156 315.34375 110.542969 315.34375 111.484375 "/>
<path style=" stroke:none;fill-rule:nonzero;fill:rgb(12.452698%,9.849548%,8.714294%);fill-opacity:1;" d="M 321.855469 106.710938 L 320.878906 110.265625 C 320.765625 110.671875 320.683594 111.042969 320.683594 111.238281 C 320.683594 111.675781 320.910156 111.824219 321.253906 111.824219 C 321.835938 111.824219 322.324219 111.109375 322.777344 110.070312 L 323.558594 110.332031 C 322.761719 112.636719 321.511719 113.1875 320.636719 113.1875 C 319.566406 113.1875 318.800781 112.652344 318.800781 111.546875 C 318.800781 111.078125 318.980469 110.394531 319.09375 109.941406 L 319.96875 106.710938 L 318.542969 106.710938 L 318.800781 105.722656 L 320.230469 105.722656 L 320.765625 103.773438 L 322.699219 103.5625 L 322.113281 105.722656 L 324.417969 105.722656 L 324.160156 106.710938 L 321.855469 106.710938 "/>
<path style=" stroke:none;fill-rule:nonzero;fill:rgb(12.452698%,9.849548%,8.714294%);fill-opacity:1;" d="M 328.246094 106.792969 C 328.246094 108.285156 327.304688 109.746094 327.304688 110.6875 C 327.304688 111.09375 327.484375 111.253906 327.839844 111.253906 C 328.703125 111.253906 329.851562 110.28125 331.085938 105.492188 L 332.90625 105.492188 L 331.410156 111.757812 C 330.714844 114.746094 329.074219 115.785156 327.046875 115.785156 C 325.910156 115.785156 324.546875 115.476562 324.546875 114.273438 C 324.546875 113.753906 324.9375 113.105469 325.667969 113.105469 C 326.316406 113.105469 326.640625 113.5625 326.609375 114.09375 C 326.589844 114.355469 326.445312 114.648438 326.28125 114.792969 C 326.476562 114.859375 326.722656 114.90625 327.03125 114.90625 C 328.296875 114.90625 329.15625 113.882812 329.707031 111.628906 L 330.03125 110.347656 L 329.933594 110.296875 C 328.992188 112.019531 327.988281 112.652344 327.046875 112.652344 C 325.976562 112.652344 325.4375 111.90625 325.4375 110.964844 C 325.4375 109.714844 326.476562 107.960938 326.476562 107.035156 C 326.476562 106.824219 326.378906 106.695312 326.234375 106.695312 C 325.828125 106.695312 325.4375 107.359375 325 108.285156 L 324.238281 107.960938 C 324.953125 106.339844 325.84375 105.378906 326.914062 105.378906 C 327.742188 105.378906 328.246094 105.933594 328.246094 106.792969 "/>
<path style=" stroke:none;fill-rule:nonzero;fill:rgb(12.452698%,9.849548%,8.714294%);fill-opacity:1;" d="M 341.519531 107.605469 C 343.597656 107.605469 344.328125 106.304688 344.328125 105.054688 C 344.328125 104.113281 343.761719 103.546875 342.152344 103.546875 L 341.457031 103.546875 L 340.449219 107.605469 Z M 339.394531 111.808594 L 341.164062 111.808594 L 340.886719 113.023438 L 335.433594 113.023438 L 335.710938 111.808594 L 337.347656 111.808594 L 339.394531 103.5625 L 337.738281 103.5625 L 338.046875 102.34375 L 342.542969 102.34375 C 345.480469 102.34375 346.601562 103.546875 346.601562 105.074219 C 346.601562 106.695312 345.480469 108.757812 341.457031 108.757812 L 340.15625 108.757812 L 339.394531 111.808594 "/>
<path style=" stroke:none;fill-rule:nonzero;fill:rgb(12.452698%,9.849548%,8.714294%);fill-opacity:1;" d="M 349.132812 107.765625 C 349.375 106.839844 349.324219 106.582031 349.03125 106.582031 C 348.660156 106.582031 348.238281 107.28125 347.769531 108.285156 L 347.003906 107.960938 C 347.703125 106.339844 348.515625 105.398438 349.601562 105.398438 C 350.300781 105.398438 350.785156 105.898438 350.785156 106.90625 C 350.785156 107.378906 350.6875 107.945312 350.460938 108.660156 L 350.589844 108.707031 C 351.53125 106.566406 352.3125 105.378906 353.449219 105.378906 C 354.128906 105.378906 354.632812 105.851562 354.632812 106.613281 C 354.632812 107.425781 354.113281 108.074219 353.464844 108.074219 C 352.894531 108.074219 352.457031 107.699219 352.492188 107.019531 C 352.019531 107.214844 350.851562 108.59375 349.683594 113.023438 L 347.734375 113.023438 L 349.132812 107.765625 "/>
<path style=" stroke:none;fill-rule:nonzero;fill:rgb(12.452698%,9.849548%,8.714294%);fill-opacity:1;" d="M 359.273438 106.273438 C 357.765625 106.273438 356.902344 109.226562 356.902344 110.800781 C 356.902344 111.839844 357.34375 112.277344 358.039062 112.277344 C 359.550781 112.277344 360.410156 109.324219 360.410156 107.75 C 360.410156 106.710938 359.972656 106.273438 359.273438 106.273438 Z M 362.339844 108.511719 C 362.339844 111.042969 360.3125 113.1875 358.058594 113.1875 C 356.191406 113.1875 354.972656 111.871094 354.972656 110.039062 C 354.972656 107.507812 357 105.378906 359.257812 105.378906 C 361.125 105.378906 362.339844 106.679688 362.339844 108.511719 "/>
<path style=" stroke:none;fill-rule:nonzero;fill:rgb(12.452698%,9.849548%,8.714294%);fill-opacity:1;" d="M 367.320312 104.246094 C 366.753906 104.246094 366.316406 103.855469 366.316406 103.207031 C 366.316406 102.542969 366.835938 101.777344 367.679688 101.777344 C 368.296875 101.777344 368.71875 102.167969 368.71875 102.816406 C 368.71875 103.464844 368.183594 104.246094 367.320312 104.246094 Z M 367.628906 108.300781 L 366.609375 112.179688 C 365.925781 114.761719 364.660156 115.785156 363.167969 115.785156 C 362.03125 115.785156 361.542969 115.246094 361.542969 114.632812 C 361.542969 114.03125 361.980469 113.480469 362.613281 113.480469 C 363.167969 113.480469 363.460938 113.882812 363.460938 114.308594 C 363.460938 114.648438 363.328125 114.921875 363.199219 115.085938 C 363.898438 115.101562 364.171875 114.679688 364.773438 112.359375 L 365.84375 108.253906 C 365.941406 107.863281 366.089844 107.296875 366.089844 106.953125 C 366.089844 106.660156 365.957031 106.582031 365.8125 106.582031 C 365.421875 106.582031 365 107.28125 364.53125 108.285156 L 363.769531 107.960938 C 364.464844 106.339844 365.308594 105.378906 366.445312 105.378906 C 367.273438 105.378906 367.859375 106.011719 367.859375 106.921875 C 367.859375 107.296875 367.777344 107.75 367.628906 108.300781 "/>
<path style=" stroke:none;fill-rule:nonzero;fill:rgb(12.452698%,9.849548%,8.714294%);fill-opacity:1;" d="M 371.28125 109.210938 C 373.539062 108.96875 374.363281 108.089844 374.363281 107.085938 C 374.363281 106.628906 374.105469 106.273438 373.617188 106.273438 C 372.480469 106.273438 371.621094 107.816406 371.28125 109.210938 Z M 371.136719 109.972656 C 371.121094 110.101562 371.121094 110.234375 371.121094 110.347656 C 371.121094 111.695312 371.816406 112.117188 372.628906 112.117188 C 373.421875 112.117188 374.21875 111.578125 374.902344 110.625 L 375.582031 111.109375 C 374.753906 112.292969 373.75 113.1875 372.027344 113.1875 C 370.355469 113.1875 369.1875 112.019531 369.1875 110.234375 C 369.1875 107.734375 371.347656 105.378906 373.894531 105.378906 C 375.289062 105.378906 376.070312 106.078125 376.070312 107.066406 C 376.070312 108.527344 374.542969 109.777344 371.136719 109.972656 "/>
<path style=" stroke:none;fill-rule:nonzero;fill:rgb(12.452698%,9.849548%,8.714294%);fill-opacity:1;" d="M 383.890625 107.296875 C 383.890625 107.992188 383.453125 108.691406 382.753906 108.691406 C 382.171875 108.691406 381.796875 108.300781 381.796875 107.816406 C 381.796875 107.359375 382.074219 106.988281 382.460938 106.710938 C 382.332031 106.484375 382.058594 106.304688 381.570312 106.304688 C 379.949219 106.304688 378.988281 108.789062 378.988281 110.199219 C 378.988281 111.597656 379.734375 112.035156 380.464844 112.035156 C 381.210938 112.035156 381.925781 111.5 382.578125 110.492188 L 383.273438 110.964844 C 382.578125 112.179688 381.621094 113.1875 380.027344 113.1875 C 378.242188 113.1875 377.042969 111.96875 377.042969 110.199219 C 377.042969 107.667969 379.21875 105.378906 381.539062 105.378906 C 382.902344 105.378906 383.890625 106.144531 383.890625 107.296875 "/>
<path style=" stroke:none;fill-rule:nonzero;fill:rgb(12.452698%,9.849548%,8.714294%);fill-opacity:1;" d="M 388.417969 106.710938 L 387.445312 110.265625 C 387.328125 110.671875 387.25 111.042969 387.25 111.238281 C 387.25 111.675781 387.476562 111.824219 387.816406 111.824219 C 388.402344 111.824219 388.886719 111.109375 389.34375 110.070312 L 390.121094 110.332031 C 389.328125 112.636719 388.078125 113.1875 387.199219 113.1875 C 386.128906 113.1875 385.367188 112.652344 385.367188 111.546875 C 385.367188 111.078125 385.542969 110.394531 385.65625 109.941406 L 386.535156 106.710938 L 385.105469 106.710938 L 385.367188 105.722656 L 386.796875 105.722656 L 387.328125 103.773438 L 389.261719 103.5625 L 388.675781 105.722656 L 390.980469 105.722656 L 390.722656 106.710938 L 388.417969 106.710938 "/>
<g clip-path="url(#clip2)" clip-rule="nonzero">
<path style=" stroke:none;fill-rule:nonzero;fill:rgb(12.452698%,9.849548%,8.714294%);fill-opacity:1;" d="M 85.613281 23.285156 C 86.40625 23.65625 87.226562 22.867188 86.890625 22.054688 C 84.773438 17 83.476562 11.605469 83.078125 6.054688 C 83.039062 5.464844 82.46875 5.042969 81.886719 5.195312 C 77.0625 6.417969 73.324219 10.070312 69.402344 13.914062 C 67.707031 15.570312 65.992188 17.25 64.160156 18.726562 L 65.285156 18.726562 C 72.550781 18.726562 79.445312 20.367188 85.613281 23.285156 Z M 108.234375 66.460938 L 108.234375 65.601562 C 107.773438 42.308594 88.683594 23.496094 65.285156 23.496094 L 9.09375 23.503906 C 7.871094 23.503906 6.671875 24.058594 6.03125 25.097656 C 5.449219 26.03125 5.375 27.128906 5.800781 28.140625 C 7.175781 31.285156 8.835938 34.25 10.734375 37.015625 C 10.914062 37.273438 11.210938 37.425781 11.535156 37.425781 L 31.738281 37.425781 C 32.261719 37.425781 32.691406 37.855469 32.691406 38.378906 L 32.691406 41.242188 C 32.691406 41.773438 32.261719 42.195312 31.738281 42.195312 L 17.015625 42.195312 C 16.167969 42.195312 15.75 43.222656 16.339844 43.824219 C 25.199219 52.890625 37.203125 58.558594 50.210938 59.386719 C 50.21875 59.386719 50.238281 59.386719 50.257812 59.386719 C 50.78125 59.386719 51.210938 58.957031 51.210938 58.433594 C 51.210938 58.335938 51.191406 58.242188 51.164062 58.148438 L 51.027344 57.707031 C 50.933594 57.375 51.019531 57.011719 51.265625 56.765625 L 57.246094 50.785156 C 57.617188 50.414062 58.21875 50.414062 58.589844 50.785156 L 60.621094 52.808594 C 60.992188 53.179688 60.992188 53.789062 60.621094 54.160156 L 56.695312 58.082031 C 56.4375 58.335938 56.339844 58.726562 56.464844 59.082031 C 59.039062 66.339844 63.75 72.8125 69.871094 77.464844 C 70.683594 78.085938 71.425781 77.644531 71.636719 77.492188 C 71.941406 77.273438 72.417969 76.78125 72.140625 75.949219 C 70.214844 70.054688 69.242188 63.886719 69.242188 57.621094 C 69.242188 55.925781 69.320312 54.207031 69.460938 52.511719 C 69.507812 51.976562 69.984375 51.597656 70.519531 51.644531 L 73.363281 51.9375 C 73.886719 51.996094 74.257812 52.445312 74.210938 52.96875 C 74.078125 54.515625 74.011719 56.078125 74.011719 57.621094 C 74.011719 57.976562 74.019531 58.328125 74.019531 58.671875 C 74.039062 59.167969 74.429688 59.546875 74.914062 59.585938 C 79.777344 59.976562 84.277344 62.066406 87.703125 65.621094 C 91.507812 69.570312 93.5 74.765625 93.308594 80.261719 C 92.929688 90.890625 83.660156 99.550781 72.636719 99.550781 L 62.929688 99.167969 C 60.117188 99.214844 57.332031 99.933594 54.871094 101.238281 C 54.015625 101.683594 53.210938 102.199219 52.460938 102.773438 C 51.734375 103.335938 52.125 104.5 53.042969 104.5 L 56.703125 104.5 C 66.972656 104.5 75.296875 112.824219 75.296875 123.089844 L 75.296875 126.773438 C 75.296875 127.679688 76.449219 128.078125 77.003906 127.363281 C 79.445312 124.238281 80.742188 120.414062 80.695312 116.378906 L 80.695312 116.265625 C 80.695312 109.398438 84.269531 103.03125 90.25 99.214844 C 101.175781 92.246094 108.234375 79.390625 108.234375 66.460938 Z M 113.007812 66.460938 L 113.007812 68.84375 L 112.933594 68.84375 C 112.121094 82.539062 104.410156 95.839844 92.804688 103.238281 C 88.207031 106.175781 85.460938 111.039062 85.460938 116.265625 C 85.539062 122.378906 83.222656 128.070312 78.941406 132.359375 C 77.519531 133.773438 75.886719 135.011719 74.078125 136.023438 L 71.949219 137.222656 C 71.3125 137.578125 70.527344 137.121094 70.527344 136.386719 L 70.527344 123.089844 C 70.527344 115.453125 64.332031 109.265625 56.703125 109.265625 L 43.402344 109.265625 C 42.675781 109.265625 42.210938 108.484375 42.570312 107.847656 L 43.761719 105.707031 C 45.890625 101.941406 48.875 99.015625 52.640625 97.023438 C 55.789062 95.355469 59.34375 94.449219 62.921875 94.398438 L 62.988281 94.398438 L 72.730469 94.78125 C 81.121094 94.78125 88.253906 88.191406 88.542969 80.085938 C 88.683594 75.902344 87.179688 71.933594 84.269531 68.933594 C 81.933594 66.507812 78.949219 64.984375 75.699219 64.46875 C 75.058594 64.375 74.496094 64.917969 74.589844 65.554688 C 75.019531 68.523438 75.699219 71.4375 76.613281 74.28125 C 77.453125 76.882812 76.613281 79.8125 74.390625 81.382812 C 73.292969 82.15625 72.035156 82.546875 70.777344 82.546875 C 69.441406 82.546875 68.117188 82.117188 66.992188 81.261719 C 61.308594 76.949219 56.722656 71.230469 53.671875 64.765625 C 53.507812 64.460938 53.195312 64.257812 52.832031 64.257812 C 30.460938 63.972656 10.34375 50.605469 1.425781 30.027344 C 0.128906 27.023438 0.757812 23.496094 3.179688 21.074219 C 4.734375 19.507812 6.917969 18.738281 9.121094 18.738281 L 52.402344 18.726562 C 57.667969 18.726562 61.554688 14.914062 66.074219 10.496094 C 71.101562 5.578125 76.792969 0 85.328125 0 L 86.757812 0 C 87.292969 0 87.710938 0.429688 87.710938 0.953125 L 87.710938 2.382812 C 87.710938 14.066406 92.078125 25.203125 100.003906 33.765625 C 108.0625 42.316406 113.007812 53.816406 113.007812 66.460938 "/>
</g>
<path style=" stroke:none;fill-rule:nonzero;fill:rgb(12.452698%,9.849548%,8.714294%);fill-opacity:1;" d="M 56.167969 32.8125 C 57.714844 35.128906 58.496094 37.894531 58.390625 40.695312 C 58.304688 43.148438 57.542969 45.484375 56.167969 47.523438 C 55.855469 48 55.214844 48.117188 54.765625 47.761719 L 52.515625 45.980469 C 52.136719 45.683594 52.039062 45.140625 52.296875 44.738281 C 53.117188 43.460938 53.574219 42.023438 53.632812 40.523438 C 53.691406 38.742188 53.230469 37.046875 52.277344 35.566406 C 52.019531 35.167969 52.136719 34.632812 52.515625 34.335938 L 54.777344 32.5625 C 55.214844 32.21875 55.863281 32.335938 56.167969 32.8125 "/>
<path style=" stroke:none;fill-rule:nonzero;fill:rgb(12.452698%,9.849548%,8.714294%);fill-opacity:1;" d="M 46.632812 32.8125 C 48.179688 35.128906 48.960938 37.894531 48.855469 40.695312 C 48.769531 43.148438 48.007812 45.484375 46.632812 47.523438 C 46.320312 48 45.679688 48.117188 45.230469 47.761719 L 42.980469 45.980469 C 42.601562 45.683594 42.503906 45.140625 42.761719 44.738281 C 43.582031 43.460938 44.039062 42.023438 44.097656 40.523438 C 44.15625 38.742188 43.695312 37.046875 42.742188 35.566406 C 42.484375 35.167969 42.601562 34.632812 42.980469 34.335938 L 45.242188 32.5625 C 45.679688 32.21875 46.328125 32.335938 46.632812 32.8125 "/>
<path style=" stroke:none;fill-rule:nonzero;fill:rgb(12.452698%,9.849548%,8.714294%);fill-opacity:1;" d="M 29.671875 27.15625 C 30.984375 27.15625 32.054688 28.226562 32.054688 29.539062 C 32.054688 30.855469 30.984375 31.925781 29.671875 31.925781 C 28.355469 31.925781 27.285156 30.855469 27.285156 29.539062 C 27.285156 28.226562 28.355469 27.15625 29.671875 27.15625 "/>
</g>
</svg>
