<?xml version="1.0" encoding="UTF-8"?>
<svg xmlns="http://www.w3.org/2000/svg" xmlns:xlink="http://www.w3.org/1999/xlink" width="364.2pt" height="140.08pt" viewBox="0 0 364.2 140.08" version="1.2">
<defs>
<clipPath id="clip1">
  <path d="M 356 104 L 362.613281 104 L 362.613281 115 L 356 115 Z M 356 104 "/>
</clipPath>
<clipPath id="clip2">
  <path d="M 0.789062 0 L 87 0 L 87 139.164062 L 0.789062 139.164062 Z M 0.789062 0 "/>
</clipPath>
</defs>
<g id="surface1">
<path style=" stroke:none;fill-rule:nonzero;fill:rgb(12.452698%,9.849548%,8.714294%);fill-opacity:1;" d="M 109.769531 48.476562 L 121.214844 48.476562 L 121.214844 65.386719 L 133.867188 65.386719 L 133.867188 48.476562 L 145.375 48.476562 L 145.375 92.980469 L 133.867188 92.980469 L 133.867188 75.816406 L 121.214844 75.816406 L 121.214844 92.980469 L 109.769531 92.980469 L 109.769531 48.476562 "/>
<path style=" stroke:none;fill-rule:nonzero;fill:rgb(12.452698%,9.849548%,8.714294%);fill-opacity:1;" d="M 151.925781 48.476562 L 182.570312 48.476562 L 182.570312 58.523438 L 163.242188 58.523438 L 163.242188 65.832031 L 180.664062 65.832031 L 180.664062 75.304688 L 163.242188 75.304688 L 163.242188 82.9375 L 182.824219 82.9375 L 182.824219 92.980469 L 151.925781 92.980469 L 151.925781 48.476562 "/>
<path style=" stroke:none;fill-rule:nonzero;fill:rgb(12.452698%,9.849548%,8.714294%);fill-opacity:1;" d="M 210.546875 75.816406 L 206.414062 62.78125 L 202.28125 75.816406 Z M 200.753906 48.222656 L 212.328125 48.222656 L 228.03125 92.980469 L 216.011719 92.980469 L 213.40625 84.96875 L 199.421875 84.96875 L 196.875 92.980469 L 185.113281 92.980469 L 200.753906 48.222656 "/>
<path style=" stroke:none;fill-rule:nonzero;fill:rgb(12.452698%,9.849548%,8.714294%);fill-opacity:1;" d="M 235.789062 58.777344 L 224.789062 58.777344 L 224.789062 48.476562 L 258.230469 48.476562 L 258.230469 58.777344 L 247.234375 58.777344 L 247.234375 92.980469 L 235.789062 92.980469 L 235.789062 58.777344 "/>
<path style=" stroke:none;fill-rule:nonzero;fill:rgb(12.452698%,9.849548%,8.714294%);fill-opacity:1;" d="M 113.050781 108.796875 C 113.050781 107.953125 112.742188 107.5 112.175781 107.5 C 110.730469 107.5 109.773438 110.191406 109.773438 111.503906 C 109.773438 112.460938 110.113281 112.949219 110.714844 112.949219 C 112.027344 112.949219 113.050781 110.109375 113.050781 108.796875 Z M 114.300781 111.585938 C 114.167969 112.007812 114.121094 112.300781 114.121094 112.511719 C 114.121094 112.789062 114.25 112.933594 114.492188 112.933594 C 114.851562 112.933594 115.207031 112.382812 115.582031 111.292969 L 116.359375 111.539062 C 115.726562 113.515625 114.851562 114.246094 113.859375 114.246094 C 113.097656 114.246094 112.53125 113.761719 112.53125 112.820312 C 112.53125 112.707031 112.53125 112.625 112.546875 112.460938 L 112.433594 112.414062 C 111.816406 113.628906 110.894531 114.246094 109.96875 114.246094 C 108.574219 114.246094 107.8125 113.09375 107.8125 111.667969 C 107.8125 110.011719 108.476562 108.535156 109.351562 107.679688 C 110.113281 106.898438 110.972656 106.445312 111.882812 106.445312 C 112.792969 106.445312 113.308594 107.078125 113.457031 107.808594 L 113.78125 106.558594 L 115.628906 106.558594 L 114.300781 111.585938 "/>
<path style=" stroke:none;fill-rule:nonzero;fill:rgb(12.452698%,9.849548%,8.714294%);fill-opacity:1;" d="M 124.484375 112.933594 C 124.824219 112.933594 125.164062 112.414062 125.605469 111.292969 L 126.367188 111.539062 C 125.71875 113.5 124.808594 114.246094 123.882812 114.246094 C 123.007812 114.246094 122.441406 113.679688 122.441406 112.738281 C 122.441406 111.117188 123.511719 109.507812 123.511719 108.40625 C 123.511719 108.035156 123.347656 107.871094 123.074219 107.871094 C 122.328125 107.871094 120.933594 109.105469 119.632812 114.085938 L 117.6875 114.085938 L 119.082031 108.828125 C 119.328125 107.902344 119.277344 107.644531 118.984375 107.644531 C 118.613281 107.644531 118.191406 108.34375 117.722656 109.347656 L 116.957031 109.023438 C 117.65625 107.402344 118.46875 106.460938 119.554688 106.460938 C 120.25 106.460938 120.738281 106.964844 120.738281 107.96875 C 120.738281 108.441406 120.640625 109.023438 120.398438 109.769531 L 120.511719 109.820312 C 121.582031 107.53125 122.78125 106.445312 123.933594 106.445312 C 124.84375 106.445312 125.410156 107.160156 125.410156 108.132812 C 125.410156 109.507812 124.210938 111.585938 124.210938 112.574219 C 124.210938 112.820312 124.304688 112.933594 124.484375 112.933594 "/>
<path style=" stroke:none;fill-rule:nonzero;fill:rgb(12.452698%,9.849548%,8.714294%);fill-opacity:1;" d="M 132.578125 110.371094 C 132.578125 112.25 133.5 113.160156 135.027344 113.160156 C 137.667969 113.160156 138.742188 109.21875 138.742188 107.125 C 138.742188 105.242188 137.800781 104.335938 136.289062 104.335938 C 133.632812 104.335938 132.578125 108.277344 132.578125 110.371094 Z M 136.371094 103.152344 C 139.03125 103.152344 140.898438 105.050781 140.898438 107.839844 C 140.898438 110.96875 138.546875 114.34375 134.945312 114.34375 C 132.285156 114.34375 130.402344 112.445312 130.402344 109.65625 C 130.402344 106.527344 132.753906 103.152344 136.371094 103.152344 "/>
<path style=" stroke:none;fill-rule:nonzero;fill:rgb(12.452698%,9.849548%,8.714294%);fill-opacity:1;" d="M 144.722656 111.75 C 144.722656 112.542969 145.066406 113.09375 145.777344 113.09375 C 147.222656 113.09375 148.035156 110.371094 148.035156 109.089844 C 148.035156 108.179688 147.742188 107.710938 147.140625 107.710938 C 145.84375 107.710938 144.722656 110.320312 144.722656 111.75 Z M 143.410156 107.792969 C 143.039062 107.792969 142.746094 108.261719 142.226562 109.347656 L 141.464844 109.023438 C 142.242188 107.238281 143.003906 106.460938 144.027344 106.460938 C 144.757812 106.460938 145.242188 106.996094 145.242188 107.921875 C 145.242188 108.035156 145.226562 108.179688 145.210938 108.328125 L 145.339844 108.375 C 145.957031 107.09375 146.945312 106.445312 147.839844 106.445312 C 149.203125 106.445312 149.980469 107.5625 149.980469 109.074219 C 149.980469 111.683594 148.179688 114.101562 146.183594 114.101562 C 145.324219 114.101562 144.644531 113.664062 144.335938 113.015625 L 143.6875 115.429688 L 145.210938 115.429688 L 144.886719 116.628906 L 140.394531 116.628906 L 140.71875 115.429688 L 141.820312 115.429688 L 143.539062 109.007812 C 143.785156 108.097656 143.703125 107.792969 143.410156 107.792969 "/>
<path style=" stroke:none;fill-rule:nonzero;fill:rgb(12.452698%,9.849548%,8.714294%);fill-opacity:1;" d="M 152.996094 110.273438 C 155.25 110.027344 156.078125 109.152344 156.078125 108.148438 C 156.078125 107.695312 155.820312 107.335938 155.332031 107.335938 C 154.195312 107.335938 153.335938 108.878906 152.996094 110.273438 Z M 152.851562 111.035156 C 152.832031 111.164062 152.832031 111.292969 152.832031 111.410156 C 152.832031 112.753906 153.53125 113.175781 154.34375 113.175781 C 155.136719 113.175781 155.933594 112.640625 156.613281 111.683594 L 157.292969 112.171875 C 156.46875 113.355469 155.460938 114.246094 153.742188 114.246094 C 152.070312 114.246094 150.902344 113.078125 150.902344 111.292969 C 150.902344 108.796875 153.0625 106.445312 155.605469 106.445312 C 157.003906 106.445312 157.78125 107.140625 157.78125 108.132812 C 157.78125 109.589844 156.257812 110.839844 152.851562 111.035156 "/>
<path style=" stroke:none;fill-rule:nonzero;fill:rgb(12.452698%,9.849548%,8.714294%);fill-opacity:1;" d="M 166.132812 112.933594 C 166.472656 112.933594 166.8125 112.414062 167.253906 111.292969 L 168.015625 111.539062 C 167.367188 113.5 166.457031 114.246094 165.535156 114.246094 C 164.65625 114.246094 164.089844 113.679688 164.089844 112.738281 C 164.089844 111.117188 165.160156 109.507812 165.160156 108.40625 C 165.160156 108.035156 164.996094 107.871094 164.722656 107.871094 C 163.976562 107.871094 162.582031 109.105469 161.28125 114.085938 L 159.335938 114.085938 L 160.730469 108.828125 C 160.976562 107.902344 160.925781 107.644531 160.636719 107.644531 C 160.261719 107.644531 159.839844 108.34375 159.371094 109.347656 L 158.605469 109.023438 C 159.304688 107.402344 160.117188 106.460938 161.203125 106.460938 C 161.898438 106.460938 162.386719 106.964844 162.386719 107.96875 C 162.386719 108.441406 162.289062 109.023438 162.046875 109.769531 L 162.160156 109.820312 C 163.230469 107.53125 164.429688 106.445312 165.582031 106.445312 C 166.488281 106.445312 167.058594 107.160156 167.058594 108.132812 C 167.058594 109.507812 165.859375 111.585938 165.859375 112.574219 C 165.859375 112.820312 165.953125 112.933594 166.132812 112.933594 "/>
<path style=" stroke:none;fill-rule:nonzero;fill:rgb(12.452698%,9.849548%,8.714294%);fill-opacity:1;" d="M 169.699219 110.289062 L 170.851562 110.289062 C 171.160156 112.234375 172.296875 113.191406 173.722656 113.191406 C 175.003906 113.191406 175.75 112.382812 175.75 111.539062 C 175.75 110.597656 174.679688 110.160156 173.527344 109.625 C 172.183594 109.023438 170.707031 108.308594 170.707031 106.589844 C 170.707031 104.773438 172.34375 103.152344 174.5 103.152344 C 175.652344 103.152344 176.722656 103.621094 177.257812 104.382812 L 177.921875 103.199219 L 179.140625 103.199219 L 178.183594 107.046875 L 177.046875 107.046875 C 176.707031 105.035156 175.894531 104.289062 174.5 104.289062 C 173.445312 104.289062 172.699219 105.050781 172.699219 105.894531 C 172.699219 106.914062 173.804688 107.355469 174.972656 107.871094 C 176.300781 108.441406 177.730469 109.121094 177.730469 110.824219 C 177.730469 112.820312 175.960938 114.34375 173.738281 114.34375 C 172.328125 114.34375 171.273438 113.824219 170.65625 113.046875 L 169.945312 114.296875 L 168.726562 114.296875 L 169.699219 110.289062 "/>
<path style=" stroke:none;fill-rule:nonzero;fill:rgb(12.452698%,9.849548%,8.714294%);fill-opacity:1;" d="M 183.046875 107.773438 L 182.074219 111.328125 C 181.960938 111.734375 181.878906 112.105469 181.878906 112.300781 C 181.878906 112.738281 182.105469 112.882812 182.449219 112.882812 C 183.03125 112.882812 183.519531 112.171875 183.972656 111.132812 L 184.75 111.390625 C 183.957031 113.695312 182.707031 114.246094 181.832031 114.246094 C 180.761719 114.246094 180 113.710938 180 112.609375 C 180 112.136719 180.175781 111.457031 180.289062 111.003906 L 181.167969 107.773438 L 179.738281 107.773438 L 180 106.785156 L 181.425781 106.785156 L 181.960938 104.839844 L 183.890625 104.628906 L 183.308594 106.785156 L 185.609375 106.785156 L 185.351562 107.773438 L 183.046875 107.773438 "/>
<path style=" stroke:none;fill-rule:nonzero;fill:rgb(12.452698%,9.849548%,8.714294%);fill-opacity:1;" d="M 191.253906 108.796875 C 191.253906 107.953125 190.945312 107.5 190.378906 107.5 C 188.933594 107.5 187.976562 110.191406 187.976562 111.503906 C 187.976562 112.460938 188.320312 112.949219 188.917969 112.949219 C 190.234375 112.949219 191.253906 110.109375 191.253906 108.796875 Z M 192.503906 111.585938 C 192.375 112.007812 192.324219 112.300781 192.324219 112.511719 C 192.324219 112.789062 192.453125 112.933594 192.699219 112.933594 C 193.054688 112.933594 193.410156 112.382812 193.785156 111.292969 L 194.5625 111.539062 C 193.929688 113.515625 193.054688 114.246094 192.066406 114.246094 C 191.304688 114.246094 190.734375 113.761719 190.734375 112.820312 C 190.734375 112.707031 190.734375 112.625 190.75 112.460938 L 190.636719 112.414062 C 190.023438 113.628906 189.097656 114.246094 188.171875 114.246094 C 186.777344 114.246094 186.015625 113.09375 186.015625 111.667969 C 186.015625 110.011719 186.679688 108.535156 187.554688 107.679688 C 188.320312 106.898438 189.179688 106.445312 190.085938 106.445312 C 190.996094 106.445312 191.515625 107.078125 191.660156 107.808594 L 191.984375 106.558594 L 193.832031 106.558594 L 192.503906 111.585938 "/>
<path style=" stroke:none;fill-rule:nonzero;fill:rgb(12.452698%,9.849548%,8.714294%);fill-opacity:1;" d="M 201.992188 108.359375 C 201.992188 109.054688 201.554688 109.753906 200.855469 109.753906 C 200.273438 109.753906 199.898438 109.363281 199.898438 108.878906 C 199.898438 108.421875 200.175781 108.050781 200.5625 107.773438 C 200.433594 107.546875 200.160156 107.367188 199.671875 107.367188 C 198.050781 107.367188 197.09375 109.851562 197.09375 111.261719 C 197.09375 112.65625 197.839844 113.09375 198.570312 113.09375 C 199.316406 113.09375 200.027344 112.558594 200.679688 111.554688 L 201.375 112.023438 C 200.679688 113.242188 199.722656 114.246094 198.128906 114.246094 C 196.347656 114.246094 195.144531 113.03125 195.144531 111.261719 C 195.144531 108.730469 197.320312 106.445312 199.640625 106.445312 C 201 106.445312 201.992188 107.207031 201.992188 108.359375 "/>
<path style=" stroke:none;fill-rule:nonzero;fill:rgb(12.452698%,9.849548%,8.714294%);fill-opacity:1;" d="M 208.867188 112.933594 C 209.226562 112.933594 209.53125 112.414062 209.953125 111.292969 L 210.71875 111.539062 C 210.101562 113.5 209.257812 114.246094 208.316406 114.246094 C 207.40625 114.246094 206.808594 113.648438 206.808594 112.59375 C 206.808594 112.136719 206.988281 111.488281 206.988281 111.132812 C 206.988281 110.53125 206.726562 110.386719 205.542969 110.386719 L 205.511719 110.386719 L 204.519531 114.085938 L 202.6875 114.085938 L 205.316406 104.175781 L 203.96875 104.175781 L 204.292969 102.910156 L 207.519531 102.910156 L 205.703125 109.65625 L 205.785156 109.65625 C 206.644531 109.65625 207.003906 109.171875 207.714844 107.984375 C 208.253906 107.109375 208.785156 106.445312 209.746094 106.445312 C 210.523438 106.445312 210.945312 106.929688 210.945312 107.628906 C 210.945312 108.308594 210.507812 108.992188 209.839844 108.992188 C 209.191406 108.992188 208.851562 108.421875 209.078125 107.757812 C 208.851562 107.808594 208.609375 108.082031 208.234375 108.699219 C 207.910156 109.300781 207.652344 109.640625 207.164062 109.902344 C 208.316406 109.996094 208.6875 110.5 208.6875 111.261719 C 208.6875 111.734375 208.558594 112.203125 208.558594 112.496094 C 208.558594 112.820312 208.6875 112.933594 208.867188 112.933594 "/>
<path style=" stroke:none;fill-rule:nonzero;fill:rgb(12.452698%,9.849548%,8.714294%);fill-opacity:1;" d="M 217.738281 109.820312 C 217.738281 106.558594 220.140625 103.152344 223.707031 103.152344 C 225.054688 103.152344 226.058594 103.636719 226.609375 104.464844 L 227.277344 103.199219 L 228.523438 103.199219 L 227.488281 107.417969 L 226.269531 107.417969 C 226.109375 105.082031 225.085938 104.335938 223.773438 104.335938 C 220.902344 104.335938 219.914062 108.195312 219.914062 109.980469 C 219.914062 112.136719 221.015625 113.046875 222.425781 113.046875 C 224.144531 113.046875 225.152344 111.75 225.964844 109.835938 L 227.113281 110.242188 C 226.300781 112.511719 224.792969 114.34375 222.199219 114.34375 C 219.214844 114.34375 217.738281 112.445312 217.738281 109.820312 "/>
<path style=" stroke:none;fill-rule:nonzero;fill:rgb(12.452698%,9.849548%,8.714294%);fill-opacity:1;" d="M 232.464844 107.335938 C 230.957031 107.335938 230.097656 110.289062 230.097656 111.863281 C 230.097656 112.902344 230.535156 113.339844 231.230469 113.339844 C 232.742188 113.339844 233.601562 110.386719 233.601562 108.8125 C 233.601562 107.773438 233.164062 107.335938 232.464844 107.335938 Z M 235.53125 109.574219 C 235.53125 112.105469 233.503906 114.246094 231.25 114.246094 C 229.382812 114.246094 228.167969 112.933594 228.167969 111.101562 C 228.167969 108.570312 230.195312 106.445312 232.449219 106.445312 C 234.3125 106.445312 235.53125 107.742188 235.53125 109.574219 "/>
<path style=" stroke:none;fill-rule:nonzero;fill:rgb(12.452698%,9.849548%,8.714294%);fill-opacity:1;" d="M 246.074219 112.738281 C 246.074219 111.117188 247.144531 109.507812 247.144531 108.40625 C 247.144531 108.035156 246.980469 107.871094 246.707031 107.871094 C 245.992188 107.871094 244.582031 109.105469 243.28125 114.085938 L 241.371094 114.085938 L 242.503906 109.800781 C 242.652344 109.265625 242.734375 108.878906 242.734375 108.570312 C 242.734375 108.179688 242.601562 107.871094 242.246094 107.871094 C 241.5 107.871094 240.105469 109.105469 238.804688 114.085938 L 236.859375 114.085938 L 238.253906 108.828125 C 238.5 107.902344 238.449219 107.644531 238.15625 107.644531 C 237.785156 107.644531 237.363281 108.34375 236.894531 109.347656 L 236.128906 109.023438 C 236.828125 107.402344 237.640625 106.460938 238.726562 106.460938 C 239.421875 106.460938 239.910156 106.964844 239.910156 107.96875 C 239.910156 108.441406 239.8125 109.023438 239.570312 109.769531 L 239.683594 109.820312 C 240.753906 107.53125 241.953125 106.445312 243.058594 106.445312 C 243.949219 106.445312 244.417969 107.046875 244.417969 108.015625 C 244.417969 108.472656 244.289062 109.023438 244.046875 109.769531 L 244.160156 109.820312 C 245.230469 107.53125 246.429688 106.445312 247.582031 106.445312 C 248.472656 106.445312 249.042969 107.160156 249.042969 108.132812 C 249.042969 109.507812 247.839844 111.585938 247.839844 112.574219 C 247.839844 112.820312 247.9375 112.933594 248.117188 112.933594 C 248.457031 112.933594 248.796875 112.414062 249.234375 111.292969 L 250 111.539062 C 249.351562 113.5 248.441406 114.246094 247.515625 114.246094 C 246.640625 114.246094 246.074219 113.679688 246.074219 112.738281 "/>
<path style=" stroke:none;fill-rule:nonzero;fill:rgb(12.452698%,9.849548%,8.714294%);fill-opacity:1;" d="M 260.296875 112.738281 C 260.296875 111.117188 261.367188 109.507812 261.367188 108.40625 C 261.367188 108.035156 261.203125 107.871094 260.929688 107.871094 C 260.214844 107.871094 258.804688 109.105469 257.507812 114.085938 L 255.59375 114.085938 L 256.726562 109.800781 C 256.875 109.265625 256.957031 108.878906 256.957031 108.570312 C 256.957031 108.179688 256.824219 107.871094 256.46875 107.871094 C 255.722656 107.871094 254.328125 109.105469 253.03125 114.085938 L 251.082031 114.085938 L 252.480469 108.828125 C 252.722656 107.902344 252.671875 107.644531 252.378906 107.644531 C 252.007812 107.644531 251.585938 108.34375 251.117188 109.347656 L 250.351562 109.023438 C 251.050781 107.402344 251.863281 106.460938 252.949219 106.460938 C 253.644531 106.460938 254.132812 106.964844 254.132812 107.96875 C 254.132812 108.441406 254.035156 109.023438 253.792969 109.769531 L 253.90625 109.820312 C 254.976562 107.53125 256.175781 106.445312 257.277344 106.445312 C 258.171875 106.445312 258.640625 107.046875 258.640625 108.015625 C 258.640625 108.472656 258.511719 109.023438 258.269531 109.769531 L 258.382812 109.820312 C 259.453125 107.53125 260.652344 106.445312 261.804688 106.445312 C 262.695312 106.445312 263.265625 107.160156 263.265625 108.132812 C 263.265625 109.507812 262.066406 111.585938 262.066406 112.574219 C 262.066406 112.820312 262.164062 112.933594 262.339844 112.933594 C 262.683594 112.933594 263.023438 112.414062 263.460938 111.292969 L 264.222656 111.539062 C 263.574219 113.5 262.664062 114.246094 261.738281 114.246094 C 260.863281 114.246094 260.296875 113.679688 260.296875 112.738281 "/>
<path style=" stroke:none;fill-rule:nonzero;fill:rgb(12.452698%,9.849548%,8.714294%);fill-opacity:1;" d="M 270.269531 112.722656 C 270.269531 112.316406 270.367188 111.699219 270.628906 110.871094 L 270.515625 110.824219 C 269.441406 113.175781 268.308594 114.246094 267.140625 114.246094 C 266.25 114.246094 265.664062 113.550781 265.664062 112.542969 C 265.664062 111.179688 266.816406 109.023438 266.816406 108.097656 C 266.816406 107.871094 266.71875 107.757812 266.574219 107.757812 C 266.234375 107.757812 265.957031 108.113281 265.375 109.332031 L 264.609375 109.007812 C 265.273438 107.402344 266.132812 106.445312 267.253906 106.445312 C 268.113281 106.445312 268.617188 106.980469 268.617188 107.921875 C 268.617188 109.429688 267.546875 111.148438 267.546875 112.1875 C 267.546875 112.640625 267.726562 112.820312 268 112.820312 C 268.730469 112.820312 270.078125 111.617188 271.40625 106.558594 L 273.351562 106.558594 L 272.023438 111.585938 C 271.894531 112.023438 271.84375 112.300781 271.84375 112.511719 C 271.84375 112.789062 271.992188 112.933594 272.21875 112.933594 C 272.589844 112.933594 272.929688 112.382812 273.304688 111.292969 L 274.082031 111.539062 C 273.449219 113.515625 272.574219 114.246094 271.648438 114.246094 C 270.804688 114.246094 270.269531 113.777344 270.269531 112.722656 "/>
<path style=" stroke:none;fill-rule:nonzero;fill:rgb(12.452698%,9.849548%,8.714294%);fill-opacity:1;" d="M 281.835938 112.933594 C 282.175781 112.933594 282.515625 112.414062 282.953125 111.292969 L 283.714844 111.539062 C 283.066406 113.5 282.160156 114.246094 281.234375 114.246094 C 280.359375 114.246094 279.789062 113.679688 279.789062 112.738281 C 279.789062 111.117188 280.863281 109.507812 280.863281 108.40625 C 280.863281 108.035156 280.699219 107.871094 280.421875 107.871094 C 279.675781 107.871094 278.285156 109.105469 276.984375 114.085938 L 275.039062 114.085938 L 276.433594 108.828125 C 276.675781 107.902344 276.628906 107.644531 276.335938 107.644531 C 275.964844 107.644531 275.542969 108.34375 275.070312 109.347656 L 274.308594 109.023438 C 275.003906 107.402344 275.816406 106.460938 276.902344 106.460938 C 277.601562 106.460938 278.085938 106.964844 278.085938 107.96875 C 278.085938 108.441406 277.992188 109.023438 277.746094 109.769531 L 277.859375 109.820312 C 278.929688 107.53125 280.132812 106.445312 281.285156 106.445312 C 282.191406 106.445312 282.761719 107.160156 282.761719 108.132812 C 282.761719 109.507812 281.558594 111.585938 281.558594 112.574219 C 281.558594 112.820312 281.65625 112.933594 281.835938 112.933594 "/>
<path style=" stroke:none;fill-rule:nonzero;fill:rgb(12.452698%,9.849548%,8.714294%);fill-opacity:1;" d="M 287.804688 105.308594 C 287.234375 105.308594 286.796875 104.917969 286.796875 104.269531 C 286.796875 103.605469 287.300781 102.84375 288.160156 102.84375 C 288.777344 102.84375 289.199219 103.234375 289.199219 103.882812 C 289.199219 104.53125 288.664062 105.308594 287.804688 105.308594 Z M 287.023438 112.542969 C 287.023438 112.820312 287.136719 112.933594 287.347656 112.933594 C 287.65625 112.933594 288.011719 112.496094 288.5 111.292969 L 289.261719 111.539062 C 288.628906 113.453125 287.722656 114.246094 286.683594 114.246094 C 285.839844 114.246094 285.222656 113.695312 285.222656 112.722656 C 285.222656 111.179688 286.570312 109.007812 286.570312 108 C 286.570312 107.742188 286.472656 107.644531 286.324219 107.644531 C 285.871094 107.644531 285.464844 108.34375 285.011719 109.347656 L 284.234375 109.023438 C 284.929688 107.402344 285.789062 106.445312 286.894531 106.445312 C 287.738281 106.445312 288.335938 107.046875 288.335938 108.082031 C 288.335938 109.347656 287.023438 111.601562 287.023438 112.542969 "/>
<path style=" stroke:none;fill-rule:nonzero;fill:rgb(12.452698%,9.849548%,8.714294%);fill-opacity:1;" d="M 293.527344 107.773438 L 292.554688 111.328125 C 292.441406 111.734375 292.359375 112.105469 292.359375 112.300781 C 292.359375 112.738281 292.585938 112.882812 292.929688 112.882812 C 293.511719 112.882812 294 112.171875 294.453125 111.132812 L 295.230469 111.390625 C 294.4375 113.695312 293.1875 114.246094 292.3125 114.246094 C 291.242188 114.246094 290.476562 113.710938 290.476562 112.609375 C 290.476562 112.136719 290.65625 111.457031 290.769531 111.003906 L 291.648438 107.773438 L 290.21875 107.773438 L 290.476562 106.785156 L 291.90625 106.785156 L 292.441406 104.839844 L 294.371094 104.628906 L 293.789062 106.785156 L 296.089844 106.785156 L 295.832031 107.773438 L 293.527344 107.773438 "/>
<path style=" stroke:none;fill-rule:nonzero;fill:rgb(12.452698%,9.849548%,8.714294%);fill-opacity:1;" d="M 299.917969 107.855469 C 299.917969 109.347656 298.976562 110.808594 298.976562 111.75 C 298.976562 112.15625 299.15625 112.316406 299.511719 112.316406 C 300.371094 112.316406 301.523438 111.34375 302.757812 106.558594 L 304.574219 106.558594 L 303.082031 112.820312 C 302.382812 115.804688 300.746094 116.839844 298.71875 116.839844 C 297.582031 116.839844 296.21875 116.535156 296.21875 115.332031 C 296.21875 114.8125 296.609375 114.167969 297.339844 114.167969 C 297.988281 114.167969 298.3125 114.621094 298.28125 115.15625 C 298.261719 115.414062 298.117188 115.707031 297.957031 115.851562 C 298.148438 115.917969 298.394531 115.964844 298.703125 115.964844 C 299.96875 115.964844 300.828125 114.945312 301.378906 112.691406 L 301.703125 111.410156 L 301.605469 111.359375 C 300.664062 113.078125 299.65625 113.710938 298.71875 113.710938 C 297.648438 113.710938 297.113281 112.964844 297.113281 112.023438 C 297.113281 110.777344 298.148438 109.023438 298.148438 108.097656 C 298.148438 107.886719 298.050781 107.757812 297.90625 107.757812 C 297.5 107.757812 297.113281 108.421875 296.671875 109.347656 L 295.910156 109.023438 C 296.625 107.402344 297.515625 106.445312 298.589844 106.445312 C 299.414062 106.445312 299.917969 106.996094 299.917969 107.855469 "/>
<path style=" stroke:none;fill-rule:nonzero;fill:rgb(12.452698%,9.849548%,8.714294%);fill-opacity:1;" d="M 313.183594 108.667969 C 315.261719 108.667969 315.992188 107.367188 315.992188 106.121094 C 315.992188 105.179688 315.421875 104.613281 313.816406 104.613281 L 313.121094 104.613281 L 312.113281 108.667969 Z M 311.058594 112.867188 L 312.828125 112.867188 L 312.550781 114.085938 L 307.101562 114.085938 L 307.378906 112.867188 L 309.015625 112.867188 L 311.058594 104.628906 L 309.40625 104.628906 L 309.710938 103.410156 L 314.207031 103.410156 C 317.140625 103.410156 318.261719 104.613281 318.261719 106.136719 C 318.261719 107.757812 317.140625 109.820312 313.121094 109.820312 L 311.820312 109.820312 L 311.058594 112.867188 "/>
<path style=" stroke:none;fill-rule:nonzero;fill:rgb(12.452698%,9.849548%,8.714294%);fill-opacity:1;" d="M 320.792969 108.828125 C 321.035156 107.902344 320.984375 107.644531 320.691406 107.644531 C 320.320312 107.644531 319.898438 108.34375 319.429688 109.347656 L 318.664062 109.023438 C 319.363281 107.402344 320.175781 106.460938 321.261719 106.460938 C 321.957031 106.460938 322.445312 106.964844 322.445312 107.96875 C 322.445312 108.441406 322.347656 109.007812 322.121094 109.722656 L 322.25 109.769531 C 323.191406 107.628906 323.96875 106.445312 325.105469 106.445312 C 325.785156 106.445312 326.289062 106.914062 326.289062 107.679688 C 326.289062 108.488281 325.769531 109.136719 325.121094 109.136719 C 324.554688 109.136719 324.117188 108.765625 324.148438 108.082031 C 323.679688 108.277344 322.511719 109.65625 321.34375 114.085938 L 319.394531 114.085938 L 320.792969 108.828125 "/>
<path style=" stroke:none;fill-rule:nonzero;fill:rgb(12.452698%,9.849548%,8.714294%);fill-opacity:1;" d="M 330.925781 107.335938 C 329.417969 107.335938 328.558594 110.289062 328.558594 111.863281 C 328.558594 112.902344 328.996094 113.339844 329.695312 113.339844 C 331.203125 113.339844 332.0625 110.386719 332.0625 108.8125 C 332.0625 107.773438 331.625 107.335938 330.925781 107.335938 Z M 333.992188 109.574219 C 333.992188 112.105469 331.964844 114.246094 329.710938 114.246094 C 327.84375 114.246094 326.628906 112.933594 326.628906 111.101562 C 326.628906 108.570312 328.65625 106.445312 330.910156 106.445312 C 332.777344 106.445312 333.992188 107.742188 333.992188 109.574219 "/>
<path style=" stroke:none;fill-rule:nonzero;fill:rgb(12.452698%,9.849548%,8.714294%);fill-opacity:1;" d="M 338.972656 105.308594 C 338.402344 105.308594 337.964844 104.917969 337.964844 104.269531 C 337.964844 103.605469 338.484375 102.84375 339.328125 102.84375 C 339.945312 102.84375 340.367188 103.234375 340.367188 103.882812 C 340.367188 104.53125 339.832031 105.308594 338.972656 105.308594 Z M 339.277344 109.363281 L 338.257812 113.242188 C 337.574219 115.820312 336.3125 116.839844 334.820312 116.839844 C 333.683594 116.839844 333.195312 116.304688 333.195312 115.691406 C 333.195312 115.089844 333.636719 114.539062 334.265625 114.539062 C 334.820312 114.539062 335.109375 114.945312 335.109375 115.367188 C 335.109375 115.707031 334.980469 115.980469 334.851562 116.144531 C 335.546875 116.160156 335.824219 115.738281 336.425781 113.421875 L 337.496094 109.316406 C 337.59375 108.925781 337.738281 108.359375 337.738281 108.015625 C 337.738281 107.726562 337.609375 107.644531 337.460938 107.644531 C 337.074219 107.644531 336.652344 108.34375 336.179688 109.347656 L 335.417969 109.023438 C 336.117188 107.402344 336.960938 106.445312 338.09375 106.445312 C 338.921875 106.445312 339.507812 107.078125 339.507812 107.984375 C 339.507812 108.359375 339.425781 108.8125 339.277344 109.363281 "/>
<path style=" stroke:none;fill-rule:nonzero;fill:rgb(12.452698%,9.849548%,8.714294%);fill-opacity:1;" d="M 342.929688 110.273438 C 345.183594 110.027344 346.011719 109.152344 346.011719 108.148438 C 346.011719 107.695312 345.75 107.335938 345.265625 107.335938 C 344.128906 107.335938 343.269531 108.878906 342.929688 110.273438 Z M 342.78125 111.035156 C 342.765625 111.164062 342.765625 111.292969 342.765625 111.410156 C 342.765625 112.753906 343.464844 113.175781 344.273438 113.175781 C 345.070312 113.175781 345.863281 112.640625 346.546875 111.683594 L 347.226562 112.171875 C 346.398438 113.355469 345.394531 114.246094 343.675781 114.246094 C 342.003906 114.246094 340.835938 113.078125 340.835938 111.292969 C 340.835938 108.796875 342.996094 106.445312 345.539062 106.445312 C 346.933594 106.445312 347.714844 107.140625 347.714844 108.132812 C 347.714844 109.589844 346.1875 110.839844 342.78125 111.035156 "/>
<path style=" stroke:none;fill-rule:nonzero;fill:rgb(12.452698%,9.849548%,8.714294%);fill-opacity:1;" d="M 355.53125 108.359375 C 355.53125 109.054688 355.09375 109.753906 354.394531 109.753906 C 353.8125 109.753906 353.4375 109.363281 353.4375 108.878906 C 353.4375 108.421875 353.714844 108.050781 354.101562 107.773438 C 353.972656 107.546875 353.699219 107.367188 353.210938 107.367188 C 351.589844 107.367188 350.632812 109.851562 350.632812 111.261719 C 350.632812 112.65625 351.378906 113.09375 352.109375 113.09375 C 352.855469 113.09375 353.566406 112.558594 354.214844 111.554688 L 354.914062 112.023438 C 354.214844 113.242188 353.261719 114.246094 351.671875 114.246094 C 349.886719 114.246094 348.6875 113.03125 348.6875 111.261719 C 348.6875 108.730469 350.859375 106.445312 353.179688 106.445312 C 354.542969 106.445312 355.53125 107.207031 355.53125 108.359375 "/>
<g clip-path="url(#clip1)" clip-rule="nonzero">
<path style=" stroke:none;fill-rule:nonzero;fill:rgb(12.452698%,9.849548%,8.714294%);fill-opacity:1;" d="M 360.054688 107.773438 L 359.082031 111.328125 C 358.96875 111.734375 358.886719 112.105469 358.886719 112.300781 C 358.886719 112.738281 359.113281 112.882812 359.457031 112.882812 C 360.039062 112.882812 360.523438 112.171875 360.980469 111.132812 L 361.757812 111.390625 C 360.964844 113.695312 359.714844 114.246094 358.839844 114.246094 C 357.769531 114.246094 357.003906 113.710938 357.003906 112.609375 C 357.003906 112.136719 357.183594 111.457031 357.296875 111.003906 L 358.171875 107.773438 L 356.746094 107.773438 L 357.003906 106.785156 L 358.433594 106.785156 L 358.96875 104.839844 L 360.898438 104.628906 L 360.316406 106.785156 L 362.617188 106.785156 L 362.359375 107.773438 L 360.054688 107.773438 "/>
</g>
<g clip-path="url(#clip2)" clip-rule="nonzero">
<path style=" stroke:none;fill-rule:nonzero;fill:rgb(12.452698%,9.849548%,8.714294%);fill-opacity:1;" d="M 79.859375 93.671875 C 79.378906 94.574219 78.757812 95.414062 78.019531 96.15625 L 69.15625 105.027344 C 68.550781 105.632812 67.492188 105.332031 67.328125 104.488281 C 66.949219 102.542969 66.21875 100.695312 65.164062 99.027344 C 64.886719 98.589844 64.929688 98.023438 65.296875 97.65625 L 72.414062 90.539062 C 75.011719 87.941406 76.535156 84.6875 76.980469 81.292969 C 77.027344 80.933594 77.726562 80.839844 78.011719 81.148438 C 79.820312 83.121094 81.019531 85.621094 81.105469 88.296875 C 81.164062 90.207031 80.726562 92.039062 79.859375 93.671875 Z M 61.757812 93.5 C 61.332031 93.925781 60.644531 93.925781 60.21875 93.5 L 56.132812 89.414062 C 55.707031 88.992188 55.707031 88.300781 56.132812 87.875 L 62.9375 81.070312 C 65.371094 78.636719 66.921875 75.578125 67.449219 72.246094 C 67.527344 71.753906 67.796875 70.648438 69.292969 72.421875 C 72.652344 76.40625 72.457031 82.800781 68.5625 86.699219 Z M 59.074219 115.109375 L 59.050781 115.121094 L 58.757812 115.425781 C 56.226562 117.949219 54.71875 121.113281 54.226562 124.410156 C 54.15625 124.882812 53.664062 125.417969 53.144531 124.894531 C 49.035156 120.765625 48.988281 113.96875 53.144531 109.8125 L 59.640625 103.3125 C 60.566406 102.390625 61.367188 103.429688 61.59375 104.082031 C 61.976562 105.191406 62.175781 106.371094 62.175781 107.582031 C 62.175781 110.417969 61.078125 113.097656 59.074219 115.109375 Z M 44.726562 115.160156 C 44.671875 115.558594 44.191406 115.917969 43.675781 115.425781 C 39.519531 111.441406 39.519531 104.5 43.675781 100.34375 L 50.742188 93.269531 C 51.167969 92.84375 51.855469 92.84375 52.28125 93.269531 L 56.367188 97.355469 C 56.792969 97.78125 56.792969 98.46875 56.367188 98.894531 L 49.292969 105.96875 C 46.773438 108.488281 45.191406 111.691406 44.726562 115.160156 Z M 35.40625 104.792969 C 35.246094 105.640625 34.1875 105.949219 33.578125 105.339844 L 28.277344 100.039062 C 25.933594 97.695312 24.816406 94.4375 25.246094 91.089844 C 25.554688 88.675781 26.769531 86.46875 28.488281 84.746094 L 35.355469 77.878906 C 35.78125 77.457031 36.46875 77.457031 36.894531 77.878906 L 46.898438 87.886719 C 47.324219 88.3125 47.324219 89 46.898438 89.425781 L 39.824219 96.492188 C 37.527344 98.796875 36.007812 101.671875 35.40625 104.792969 Z M 19.863281 90.300781 C 19.8125 90.695312 19.308594 91.050781 18.800781 90.550781 C 14.613281 86.414062 14.632812 79.625 18.800781 75.46875 L 25.875 68.390625 C 26.300781 67.964844 26.992188 67.964844 27.414062 68.390625 L 31.511719 72.488281 C 31.9375 72.914062 31.9375 73.601562 31.511719 74.027344 L 24.4375 81.105469 C 21.917969 83.625 20.335938 86.828125 19.863281 90.300781 Z M 10.371094 80.921875 C 10.324219 81.285156 10.316406 81.964844 9.355469 81.105469 C 7.550781 79.488281 6.230469 76.414062 6.230469 73.5625 C 6.230469 70.710938 7.34375 68.035156 9.355469 66.023438 L 18.484375 56.890625 C 19.09375 56.28125 20.152344 56.585938 20.316406 57.429688 C 20.6875 59.363281 21.417969 61.203125 22.464844 62.867188 C 22.738281 63.304688 22.695312 63.871094 22.328125 64.234375 L 14.949219 71.617188 C 12.34375 74.21875 10.8125 77.515625 10.371094 80.921875 Z M 28.582031 46.792969 L 37.433594 37.953125 C 38.035156 37.351562 39.082031 37.652344 39.242188 38.488281 C 39.613281 40.433594 40.34375 42.277344 41.398438 43.949219 C 41.671875 44.382812 41.628906 44.945312 41.265625 45.308594 L 27.957031 58.605469 C 27.421875 59.144531 26.488281 58.980469 26.207031 58.277344 C 25.71875 57.039062 25.460938 55.703125 25.460938 54.335938 C 25.460938 51.484375 26.570312 48.808594 28.582031 46.792969 Z M 44.800781 49.46875 C 45.226562 49.042969 45.914062 49.042969 46.339844 49.46875 L 50.4375 53.566406 C 50.863281 53.992188 50.863281 54.679688 50.4375 55.105469 L 36.894531 68.648438 C 36.46875 69.074219 35.78125 69.074219 35.355469 68.648438 L 31.257812 64.550781 C 30.832031 64.125 30.832031 63.4375 31.257812 63.011719 Z M 47.515625 27.859375 L 47.484375 27.828125 C 50.78125 24.050781 52.578125 19.273438 52.578125 14.214844 C 52.578125 13.910156 52.839844 13.585938 53.398438 14.140625 L 55.375 16.117188 C 55.386719 16.128906 55.40625 16.152344 55.417969 16.160156 C 59.53125 20.320312 59.519531 27.054688 55.375 31.199219 L 46.898438 39.675781 C 46.363281 40.210938 45.429688 40.054688 45.148438 39.347656 C 44.65625 38.109375 44.394531 36.773438 44.394531 35.402344 C 44.394531 32.558594 45.503906 29.871094 47.515625 27.859375 Z M 63.738281 26.101562 C 63.8125 25.617188 64.300781 25.128906 64.851562 25.605469 C 66.753906 27.25 67.976562 30.296875 67.976562 33.148438 C 67.976562 35.988281 66.867188 38.675781 64.851562 40.6875 L 55.855469 49.683594 C 55.433594 50.109375 54.746094 50.109375 54.320312 49.691406 L 50.199219 45.617188 C 49.769531 45.191406 49.769531 44.5 50.195312 44.070312 L 59.214844 35.042969 C 61.726562 32.519531 63.242188 29.378906 63.738281 26.101562 Z M 59.8125 62.941406 C 61.371094 64.847656 62.21875 67.199219 62.21875 69.691406 C 62.21875 72.53125 61.109375 75.207031 59.097656 77.230469 L 52.292969 84.035156 C 51.867188 84.460938 51.175781 84.460938 50.753906 84.035156 L 40.746094 74.027344 C 40.320312 73.601562 40.320312 72.914062 40.746094 72.488281 L 54.289062 58.957031 C 54.714844 58.53125 55.402344 58.53125 55.828125 58.957031 Z M 81.871094 77.230469 L 59.710938 55.0625 C 59.289062 54.636719 59.289062 53.949219 59.710938 53.523438 L 68.703125 44.53125 C 71.859375 41.386719 73.53125 37.160156 73.410156 32.691406 C 73.292969 28.429688 71.367188 24.414062 68.351562 21.402344 L 47.265625 0.316406 C 46.847656 -0.101562 46.164062 -0.101562 45.742188 0.316406 L 43.390625 2.667969 C 42.980469 3.082031 42.984375 3.730469 43.367188 4.167969 C 46.140625 7.328125 47.476562 11.453125 47.0625 15.742188 C 46.710938 19.367188 44.96875 22.71875 42.394531 25.289062 L 5.851562 61.832031 C 2.820312 64.863281 0.890625 68.902344 0.796875 73.1875 C 0.695312 77.636719 2.378906 81.820312 5.503906 84.957031 L 59.402344 138.847656 C 59.828125 139.269531 60.519531 139.269531 60.941406 138.847656 L 63.25 136.542969 C 63.671875 136.117188 63.671875 135.429688 63.25 135.007812 L 62.601562 134.347656 C 60.480469 132.230469 59.363281 129.375 59.484375 126.355469 C 59.597656 123.582031 60.882812 120.984375 62.84375 119.023438 L 81.828125 100.039062 L 81.871094 100.007812 C 84.917969 96.960938 86.582031 92.910156 86.582031 88.613281 C 86.582031 84.316406 84.917969 80.265625 81.871094 77.230469 "/>
</g>
</g>
</svg>
