<?xml version="1.0" encoding="UTF-8"?>
<svg xmlns="http://www.w3.org/2000/svg" xmlns:xlink="http://www.w3.org/1999/xlink" width="249.55pt" height="257.37pt" viewBox="0 0 249.55 257.37" version="1.2">
<defs>
<clipPath id="clip1">
  <path d="M 0.0820312 246 L 9 246 L 9 255 L 0.0820312 255 Z M 0.0820312 246 "/>
</clipPath>
<clipPath id="clip2">
  <path d="M 31 246 L 42 246 L 42 256.742188 L 31 256.742188 Z M 31 246 "/>
</clipPath>
<clipPath id="clip3">
  <path d="M 183 246 L 193 246 L 193 256.742188 L 183 256.742188 Z M 183 246 "/>
</clipPath>
<clipPath id="clip4">
  <path d="M 220 243 L 228 243 L 228 256.742188 L 220 256.742188 Z M 220 243 "/>
</clipPath>
<clipPath id="clip5">
  <path d="M 243 244 L 249.019531 244 L 249.019531 255 L 243 255 Z M 243 244 "/>
</clipPath>
</defs>
<g id="surface1">
<g clip-path="url(#clip1)" clip-rule="nonzero">
<path style=" stroke:none;fill-rule:nonzero;fill:rgb(92.871094%,13.111877%,17.172241%);fill-opacity:1;" d="M 5.199219 248.882812 C 5.199219 248.058594 4.898438 247.613281 4.34375 247.613281 C 2.933594 247.613281 1.996094 250.246094 1.996094 251.527344 C 1.996094 252.460938 2.332031 252.9375 2.917969 252.9375 C 4.199219 252.9375 5.199219 250.164062 5.199219 248.882812 Z M 6.417969 251.605469 C 6.292969 252.019531 6.246094 252.304688 6.246094 252.507812 C 6.246094 252.78125 6.371094 252.921875 6.609375 252.921875 C 6.957031 252.921875 7.304688 252.382812 7.671875 251.320312 L 8.429688 251.558594 C 7.8125 253.492188 6.957031 254.207031 5.992188 254.207031 C 5.246094 254.207031 4.691406 253.730469 4.691406 252.8125 C 4.691406 252.699219 4.691406 252.621094 4.707031 252.460938 L 4.597656 252.417969 C 3.996094 253.605469 3.089844 254.207031 2.1875 254.207031 C 0.824219 254.207031 0.0820312 253.082031 0.0820312 251.6875 C 0.0820312 250.070312 0.730469 248.628906 1.585938 247.789062 C 2.332031 247.027344 3.171875 246.585938 4.058594 246.585938 C 4.945312 246.585938 5.453125 247.203125 5.59375 247.914062 L 5.910156 246.695312 L 7.71875 246.695312 L 6.417969 251.605469 "/>
</g>
<path style=" stroke:none;fill-rule:nonzero;fill:rgb(92.871094%,13.111877%,17.172241%);fill-opacity:1;" d="M 16.371094 252.921875 C 16.703125 252.921875 17.035156 252.417969 17.464844 251.320312 L 18.207031 251.558594 C 17.574219 253.476562 16.6875 254.207031 15.785156 254.207031 C 14.929688 254.207031 14.371094 253.652344 14.371094 252.730469 C 14.371094 251.148438 15.417969 249.578125 15.417969 248.5 C 15.417969 248.136719 15.261719 247.976562 14.992188 247.976562 C 14.261719 247.976562 12.898438 249.183594 11.632812 254.046875 L 9.730469 254.046875 L 11.09375 248.914062 C 11.332031 248.011719 11.285156 247.757812 10.996094 247.757812 C 10.632812 247.757812 10.222656 248.4375 9.761719 249.421875 L 9.015625 249.101562 C 9.699219 247.519531 10.492188 246.601562 11.550781 246.601562 C 12.234375 246.601562 12.710938 247.089844 12.710938 248.074219 C 12.710938 248.535156 12.613281 249.101562 12.375 249.832031 L 12.488281 249.878906 C 13.53125 247.644531 14.707031 246.585938 15.832031 246.585938 C 16.71875 246.585938 17.273438 247.28125 17.273438 248.230469 C 17.273438 249.578125 16.101562 251.605469 16.101562 252.574219 C 16.101562 252.8125 16.195312 252.921875 16.371094 252.921875 "/>
<path style=" stroke:none;fill-rule:nonzero;fill:rgb(92.871094%,13.111877%,17.172241%);fill-opacity:1;" d="M 24.277344 250.417969 C 24.277344 252.257812 25.179688 253.144531 26.667969 253.144531 C 29.25 253.144531 30.296875 249.292969 30.296875 247.25 C 30.296875 245.410156 29.378906 244.523438 27.90625 244.523438 C 25.304688 244.523438 24.277344 248.375 24.277344 250.417969 Z M 27.984375 243.367188 C 30.582031 243.367188 32.40625 245.222656 32.40625 247.945312 C 32.40625 251.003906 30.109375 254.300781 26.589844 254.300781 C 23.992188 254.300781 22.152344 252.445312 22.152344 249.722656 C 22.152344 246.664062 24.449219 243.367188 27.984375 243.367188 "/>
<g clip-path="url(#clip2)" clip-rule="nonzero">
<path style=" stroke:none;fill-rule:nonzero;fill:rgb(92.871094%,13.111877%,17.172241%);fill-opacity:1;" d="M 36.144531 251.765625 C 36.144531 252.542969 36.476562 253.082031 37.171875 253.082031 C 38.582031 253.082031 39.375 250.417969 39.375 249.167969 C 39.375 248.277344 39.089844 247.820312 38.503906 247.820312 C 37.238281 247.820312 36.144531 250.371094 36.144531 251.765625 Z M 34.859375 247.898438 C 34.496094 247.898438 34.210938 248.359375 33.703125 249.421875 L 32.957031 249.101562 C 33.71875 247.359375 34.464844 246.601562 35.460938 246.601562 C 36.175781 246.601562 36.652344 247.121094 36.652344 248.027344 C 36.652344 248.136719 36.636719 248.277344 36.617188 248.421875 L 36.746094 248.46875 C 37.347656 247.21875 38.3125 246.585938 39.1875 246.585938 C 40.515625 246.585938 41.277344 247.679688 41.277344 249.152344 C 41.277344 251.703125 39.519531 254.0625 37.570312 254.0625 C 36.730469 254.0625 36.0625 253.636719 35.761719 253 L 35.128906 255.363281 L 36.617188 255.363281 L 36.300781 256.535156 L 31.914062 256.535156 L 32.230469 255.363281 L 33.308594 255.363281 L 34.988281 249.089844 C 35.226562 248.199219 35.144531 247.898438 34.859375 247.898438 "/>
</g>
<path style=" stroke:none;fill-rule:nonzero;fill:rgb(92.871094%,13.111877%,17.172241%);fill-opacity:1;" d="M 44.222656 250.324219 C 46.425781 250.085938 47.234375 249.230469 47.234375 248.25 C 47.234375 247.804688 46.980469 247.457031 46.507812 247.457031 C 45.398438 247.457031 44.558594 248.960938 44.222656 250.324219 Z M 44.082031 251.066406 C 44.066406 251.195312 44.066406 251.320312 44.066406 251.433594 C 44.066406 252.75 44.746094 253.160156 45.539062 253.160156 C 46.316406 253.160156 47.09375 252.636719 47.757812 251.703125 L 48.421875 252.175781 C 47.617188 253.335938 46.632812 254.207031 44.953125 254.207031 C 43.320312 254.207031 42.179688 253.066406 42.179688 251.320312 C 42.179688 248.882812 44.289062 246.585938 46.777344 246.585938 C 48.136719 246.585938 48.898438 247.265625 48.898438 248.230469 C 48.898438 249.65625 47.410156 250.878906 44.082031 251.066406 "/>
<path style=" stroke:none;fill-rule:nonzero;fill:rgb(92.871094%,13.111877%,17.172241%);fill-opacity:1;" d="M 57.058594 252.921875 C 57.390625 252.921875 57.726562 252.417969 58.152344 251.320312 L 58.898438 251.558594 C 58.261719 253.476562 57.375 254.207031 56.472656 254.207031 C 55.617188 254.207031 55.0625 253.652344 55.0625 252.730469 C 55.0625 251.148438 56.109375 249.578125 56.109375 248.5 C 56.109375 248.136719 55.949219 247.976562 55.679688 247.976562 C 54.953125 247.976562 53.589844 249.183594 52.320312 254.046875 L 50.417969 254.046875 L 51.78125 248.914062 C 52.019531 248.011719 51.972656 247.757812 51.6875 247.757812 C 51.324219 247.757812 50.910156 248.4375 50.453125 249.421875 L 49.707031 249.101562 C 50.386719 247.519531 51.179688 246.601562 52.242188 246.601562 C 52.921875 246.601562 53.398438 247.089844 53.398438 248.074219 C 53.398438 248.535156 53.304688 249.101562 53.066406 249.832031 L 53.175781 249.878906 C 54.222656 247.644531 55.394531 246.585938 56.519531 246.585938 C 57.40625 246.585938 57.960938 247.28125 57.960938 248.230469 C 57.960938 249.578125 56.789062 251.605469 56.789062 252.574219 C 56.789062 252.8125 56.882812 252.921875 57.058594 252.921875 "/>
<path style=" stroke:none;fill-rule:nonzero;fill:rgb(92.871094%,13.111877%,17.172241%);fill-opacity:1;" d="M 60.542969 250.339844 L 61.667969 250.339844 C 61.972656 252.242188 63.078125 253.175781 64.472656 253.175781 C 65.726562 253.175781 66.453125 252.382812 66.453125 251.558594 C 66.453125 250.640625 65.410156 250.214844 64.285156 249.691406 C 62.96875 249.101562 61.527344 248.40625 61.527344 246.726562 C 61.527344 244.953125 63.128906 243.367188 65.234375 243.367188 C 66.359375 243.367188 67.40625 243.828125 67.929688 244.570312 L 68.578125 243.414062 L 69.765625 243.414062 L 68.832031 247.171875 L 67.722656 247.171875 C 67.390625 245.207031 66.597656 244.476562 65.234375 244.476562 C 64.203125 244.476562 63.476562 245.222656 63.476562 246.046875 C 63.476562 247.042969 64.554688 247.472656 65.695312 247.976562 C 66.992188 248.535156 68.386719 249.199219 68.386719 250.863281 C 68.386719 252.8125 66.660156 254.300781 64.488281 254.300781 C 63.113281 254.300781 62.082031 253.792969 61.480469 253.035156 L 60.78125 254.253906 L 59.59375 254.253906 L 60.542969 250.339844 "/>
<path style=" stroke:none;fill-rule:nonzero;fill:rgb(92.871094%,13.111877%,17.172241%);fill-opacity:1;" d="M 73.585938 247.882812 L 72.632812 251.355469 C 72.523438 251.75 72.445312 252.113281 72.445312 252.304688 C 72.445312 252.730469 72.664062 252.875 73 252.875 C 73.570312 252.875 74.042969 252.175781 74.488281 251.164062 L 75.25 251.417969 C 74.472656 253.667969 73.253906 254.207031 72.398438 254.207031 C 71.351562 254.207031 70.605469 253.683594 70.605469 252.605469 C 70.605469 252.144531 70.78125 251.480469 70.890625 251.039062 L 71.746094 247.882812 L 70.351562 247.882812 L 70.605469 246.917969 L 72 246.917969 L 72.523438 245.015625 L 74.410156 244.808594 L 73.839844 246.917969 L 76.089844 246.917969 L 75.835938 247.882812 L 73.585938 247.882812 "/>
<path style=" stroke:none;fill-rule:nonzero;fill:rgb(92.871094%,13.111877%,17.172241%);fill-opacity:1;" d="M 81.601562 248.882812 C 81.601562 248.058594 81.300781 247.613281 80.746094 247.613281 C 79.335938 247.613281 78.402344 250.246094 78.402344 251.527344 C 78.402344 252.460938 78.734375 252.9375 79.320312 252.9375 C 80.605469 252.9375 81.601562 250.164062 81.601562 248.882812 Z M 82.824219 251.605469 C 82.695312 252.019531 82.648438 252.304688 82.648438 252.507812 C 82.648438 252.78125 82.773438 252.921875 83.011719 252.921875 C 83.359375 252.921875 83.710938 252.382812 84.074219 251.320312 L 84.835938 251.558594 C 84.21875 253.492188 83.359375 254.207031 82.394531 254.207031 C 81.648438 254.207031 81.09375 253.730469 81.09375 252.8125 C 81.09375 252.699219 81.09375 252.621094 81.113281 252.460938 L 81 252.417969 C 80.398438 253.605469 79.496094 254.207031 78.589844 254.207031 C 77.230469 254.207031 76.484375 253.082031 76.484375 251.6875 C 76.484375 250.070312 77.132812 248.628906 77.988281 247.789062 C 78.734375 247.027344 79.574219 246.585938 80.460938 246.585938 C 81.347656 246.585938 81.855469 247.203125 82 247.914062 L 82.316406 246.695312 L 84.121094 246.695312 L 82.824219 251.605469 "/>
<path style=" stroke:none;fill-rule:nonzero;fill:rgb(92.871094%,13.111877%,17.172241%);fill-opacity:1;" d="M 92.089844 248.453125 C 92.089844 249.136719 91.664062 249.816406 90.984375 249.816406 C 90.414062 249.816406 90.046875 249.4375 90.046875 248.960938 C 90.046875 248.515625 90.316406 248.152344 90.699219 247.882812 C 90.570312 247.660156 90.300781 247.488281 89.824219 247.488281 C 88.242188 247.488281 87.304688 249.914062 87.304688 251.289062 C 87.304688 252.652344 88.035156 253.082031 88.75 253.082031 C 89.476562 253.082031 90.175781 252.558594 90.808594 251.574219 L 91.488281 252.035156 C 90.808594 253.222656 89.875 254.207031 88.320312 254.207031 C 86.578125 254.207031 85.40625 253.015625 85.40625 251.289062 C 85.40625 248.816406 87.527344 246.585938 89.792969 246.585938 C 91.125 246.585938 92.089844 247.328125 92.089844 248.453125 "/>
<path style=" stroke:none;fill-rule:nonzero;fill:rgb(92.871094%,13.111877%,17.172241%);fill-opacity:1;" d="M 98.808594 252.921875 C 99.160156 252.921875 99.460938 252.417969 99.871094 251.320312 L 100.617188 251.558594 C 100.015625 253.476562 99.191406 254.207031 98.269531 254.207031 C 97.382812 254.207031 96.796875 253.621094 96.796875 252.589844 C 96.796875 252.144531 96.972656 251.511719 96.972656 251.164062 C 96.972656 250.578125 96.71875 250.433594 95.5625 250.433594 L 95.53125 250.433594 L 94.5625 254.046875 L 92.773438 254.046875 L 95.339844 244.367188 L 94.023438 244.367188 L 94.339844 243.128906 L 97.496094 243.128906 L 95.722656 249.722656 L 95.800781 249.722656 C 96.640625 249.722656 96.988281 249.246094 97.683594 248.089844 C 98.207031 247.234375 98.730469 246.585938 99.667969 246.585938 C 100.425781 246.585938 100.839844 247.058594 100.839844 247.742188 C 100.839844 248.40625 100.410156 249.074219 99.761719 249.074219 C 99.128906 249.074219 98.792969 248.515625 99.015625 247.867188 C 98.792969 247.914062 98.558594 248.183594 98.191406 248.789062 C 97.875 249.375 97.621094 249.707031 97.144531 249.960938 C 98.269531 250.054688 98.636719 250.546875 98.636719 251.289062 C 98.636719 251.75 98.507812 252.210938 98.507812 252.496094 C 98.507812 252.8125 98.636719 252.921875 98.808594 252.921875 "/>
<path style=" stroke:none;fill-rule:nonzero;fill:rgb(92.871094%,13.111877%,17.172241%);fill-opacity:1;" d="M 107.476562 249.878906 C 107.476562 246.695312 109.824219 243.367188 113.308594 243.367188 C 114.625 243.367188 115.605469 243.84375 116.144531 244.648438 L 116.792969 243.414062 L 118.015625 243.414062 L 117 247.535156 L 115.8125 247.535156 C 115.652344 245.253906 114.65625 244.523438 113.371094 244.523438 C 110.566406 244.523438 109.601562 248.296875 109.601562 250.039062 C 109.601562 252.144531 110.675781 253.035156 112.054688 253.035156 C 113.734375 253.035156 114.71875 251.765625 115.511719 249.894531 L 116.636719 250.292969 C 115.84375 252.507812 114.371094 254.300781 111.835938 254.300781 C 108.917969 254.300781 107.476562 252.445312 107.476562 249.878906 "/>
<path style=" stroke:none;fill-rule:nonzero;fill:rgb(92.871094%,13.111877%,17.172241%);fill-opacity:1;" d="M 121.863281 247.457031 C 120.390625 247.457031 119.550781 250.339844 119.550781 251.878906 C 119.550781 252.890625 119.980469 253.320312 120.660156 253.320312 C 122.132812 253.320312 122.972656 250.433594 122.972656 248.898438 C 122.972656 247.882812 122.546875 247.457031 121.863281 247.457031 Z M 124.859375 249.640625 C 124.859375 252.113281 122.878906 254.207031 120.675781 254.207031 C 118.851562 254.207031 117.664062 252.921875 117.664062 251.132812 C 117.664062 248.660156 119.644531 246.585938 121.847656 246.585938 C 123.671875 246.585938 124.859375 247.851562 124.859375 249.640625 "/>
<path style=" stroke:none;fill-rule:nonzero;fill:rgb(92.871094%,13.111877%,17.172241%);fill-opacity:1;" d="M 135.160156 252.730469 C 135.160156 251.148438 136.203125 249.578125 136.203125 248.5 C 136.203125 248.136719 136.046875 247.976562 135.777344 247.976562 C 135.078125 247.976562 133.699219 249.183594 132.433594 254.046875 L 130.5625 254.046875 L 131.671875 249.863281 C 131.816406 249.339844 131.894531 248.960938 131.894531 248.660156 C 131.894531 248.277344 131.769531 247.976562 131.417969 247.976562 C 130.691406 247.976562 129.328125 249.183594 128.058594 254.046875 L 126.160156 254.046875 L 127.519531 248.914062 C 127.757812 248.011719 127.710938 247.757812 127.425781 247.757812 C 127.0625 247.757812 126.648438 248.4375 126.191406 249.421875 L 125.445312 249.101562 C 126.125 247.519531 126.917969 246.601562 127.980469 246.601562 C 128.660156 246.601562 129.136719 247.089844 129.136719 248.074219 C 129.136719 248.535156 129.042969 249.101562 128.804688 249.832031 L 128.914062 249.878906 C 129.960938 247.644531 131.132812 246.585938 132.210938 246.585938 C 133.082031 246.585938 133.542969 247.171875 133.542969 248.121094 C 133.542969 248.566406 133.414062 249.101562 133.175781 249.832031 L 133.289062 249.878906 C 134.335938 247.644531 135.507812 246.585938 136.632812 246.585938 C 137.503906 246.585938 138.058594 247.28125 138.058594 248.230469 C 138.058594 249.578125 136.886719 251.605469 136.886719 252.574219 C 136.886719 252.8125 136.980469 252.921875 137.15625 252.921875 C 137.488281 252.921875 137.820312 252.417969 138.246094 251.320312 L 138.992188 251.558594 C 138.359375 253.476562 137.472656 254.207031 136.570312 254.207031 C 135.714844 254.207031 135.160156 253.652344 135.160156 252.730469 "/>
<path style=" stroke:none;fill-rule:nonzero;fill:rgb(92.871094%,13.111877%,17.172241%);fill-opacity:1;" d="M 149.054688 252.730469 C 149.054688 251.148438 150.101562 249.578125 150.101562 248.5 C 150.101562 248.136719 149.941406 247.976562 149.671875 247.976562 C 148.976562 247.976562 147.597656 249.183594 146.328125 254.046875 L 144.457031 254.046875 L 145.570312 249.863281 C 145.710938 249.339844 145.789062 248.960938 145.789062 248.660156 C 145.789062 248.277344 145.664062 247.976562 145.316406 247.976562 C 144.585938 247.976562 143.222656 249.183594 141.957031 254.046875 L 140.054688 254.046875 L 141.417969 248.914062 C 141.65625 248.011719 141.605469 247.757812 141.324219 247.757812 C 140.957031 247.757812 140.546875 248.4375 140.085938 249.421875 L 139.339844 249.101562 C 140.023438 247.519531 140.816406 246.601562 141.878906 246.601562 C 142.558594 246.601562 143.035156 247.089844 143.035156 248.074219 C 143.035156 248.535156 142.9375 249.101562 142.699219 249.832031 L 142.8125 249.878906 C 143.855469 247.644531 145.03125 246.585938 146.109375 246.585938 C 146.980469 246.585938 147.4375 247.171875 147.4375 248.121094 C 147.4375 248.566406 147.3125 249.101562 147.074219 249.832031 L 147.183594 249.878906 C 148.230469 247.644531 149.402344 246.585938 150.527344 246.585938 C 151.398438 246.585938 151.953125 247.28125 151.953125 248.230469 C 151.953125 249.578125 150.78125 251.605469 150.78125 252.574219 C 150.78125 252.8125 150.878906 252.921875 151.050781 252.921875 C 151.382812 252.921875 151.71875 252.417969 152.144531 251.320312 L 152.890625 251.558594 C 152.253906 253.476562 151.367188 254.207031 150.464844 254.207031 C 149.609375 254.207031 149.054688 253.652344 149.054688 252.730469 "/>
<path style=" stroke:none;fill-rule:nonzero;fill:rgb(92.871094%,13.111877%,17.172241%);fill-opacity:1;" d="M 158.800781 252.714844 C 158.800781 252.320312 158.894531 251.71875 159.148438 250.910156 L 159.039062 250.863281 C 157.992188 253.160156 156.882812 254.207031 155.742188 254.207031 C 154.871094 254.207031 154.300781 253.523438 154.300781 252.542969 C 154.300781 251.210938 155.425781 249.101562 155.425781 248.199219 C 155.425781 247.976562 155.328125 247.867188 155.1875 247.867188 C 154.851562 247.867188 154.585938 248.214844 154.015625 249.40625 L 153.269531 249.089844 C 153.917969 247.519531 154.757812 246.585938 155.851562 246.585938 C 156.691406 246.585938 157.183594 247.105469 157.183594 248.027344 C 157.183594 249.5 156.136719 251.179688 156.136719 252.195312 C 156.136719 252.636719 156.3125 252.8125 156.582031 252.8125 C 157.292969 252.8125 158.609375 251.640625 159.910156 246.695312 L 161.808594 246.695312 L 160.511719 251.605469 C 160.382812 252.035156 160.335938 252.304688 160.335938 252.507812 C 160.335938 252.78125 160.480469 252.921875 160.699219 252.921875 C 161.066406 252.921875 161.398438 252.382812 161.761719 251.320312 L 162.523438 251.558594 C 161.90625 253.492188 161.050781 254.207031 160.144531 254.207031 C 159.324219 254.207031 158.800781 253.746094 158.800781 252.714844 "/>
<path style=" stroke:none;fill-rule:nonzero;fill:rgb(92.871094%,13.111877%,17.172241%);fill-opacity:1;" d="M 170.097656 252.921875 C 170.429688 252.921875 170.761719 252.417969 171.191406 251.320312 L 171.933594 251.558594 C 171.300781 253.476562 170.414062 254.207031 169.511719 254.207031 C 168.65625 254.207031 168.101562 253.652344 168.101562 252.730469 C 168.101562 251.148438 169.144531 249.578125 169.144531 248.5 C 169.144531 248.136719 168.988281 247.976562 168.71875 247.976562 C 167.988281 247.976562 166.625 249.183594 165.359375 254.046875 L 163.457031 254.046875 L 164.820312 248.914062 C 165.058594 248.011719 165.011719 247.757812 164.726562 247.757812 C 164.359375 247.757812 163.949219 248.4375 163.488281 249.421875 L 162.746094 249.101562 C 163.425781 247.519531 164.21875 246.601562 165.28125 246.601562 C 165.960938 246.601562 166.4375 247.089844 166.4375 248.074219 C 166.4375 248.535156 166.34375 249.101562 166.105469 249.832031 L 166.214844 249.878906 C 167.261719 247.644531 168.433594 246.585938 169.558594 246.585938 C 170.445312 246.585938 171 247.28125 171 248.230469 C 171 249.578125 169.828125 251.605469 169.828125 252.574219 C 169.828125 252.8125 169.921875 252.921875 170.097656 252.921875 "/>
<path style=" stroke:none;fill-rule:nonzero;fill:rgb(92.871094%,13.111877%,17.172241%);fill-opacity:1;" d="M 175.925781 245.476562 C 175.375 245.476562 174.945312 245.09375 174.945312 244.460938 C 174.945312 243.8125 175.4375 243.066406 176.277344 243.066406 C 176.878906 243.066406 177.289062 243.445312 177.289062 244.082031 C 177.289062 244.714844 176.769531 245.476562 175.925781 245.476562 Z M 175.167969 252.542969 C 175.167969 252.8125 175.277344 252.921875 175.484375 252.921875 C 175.785156 252.921875 176.132812 252.496094 176.609375 251.320312 L 177.351562 251.558594 C 176.734375 253.429688 175.847656 254.207031 174.835938 254.207031 C 174.007812 254.207031 173.40625 253.667969 173.40625 252.714844 C 173.40625 251.210938 174.722656 249.089844 174.722656 248.105469 C 174.722656 247.851562 174.628906 247.757812 174.484375 247.757812 C 174.042969 247.757812 173.644531 248.4375 173.203125 249.421875 L 172.441406 249.101562 C 173.121094 247.519531 173.964844 246.585938 175.039062 246.585938 C 175.863281 246.585938 176.449219 247.171875 176.449219 248.183594 C 176.449219 249.421875 175.167969 251.625 175.167969 252.542969 "/>
<path style=" stroke:none;fill-rule:nonzero;fill:rgb(92.871094%,13.111877%,17.172241%);fill-opacity:1;" d="M 181.519531 247.882812 L 180.570312 251.355469 C 180.457031 251.75 180.378906 252.113281 180.378906 252.304688 C 180.378906 252.730469 180.601562 252.875 180.933594 252.875 C 181.503906 252.875 181.980469 252.175781 182.425781 251.164062 L 183.183594 251.417969 C 182.40625 253.667969 181.1875 254.207031 180.332031 254.207031 C 179.285156 254.207031 178.542969 253.683594 178.542969 252.605469 C 178.542969 252.144531 178.714844 251.480469 178.828125 251.039062 L 179.683594 247.882812 L 178.289062 247.882812 L 178.542969 246.917969 L 179.9375 246.917969 L 180.457031 245.015625 L 182.34375 244.808594 L 181.773438 246.917969 L 184.023438 246.917969 L 183.769531 247.882812 L 181.519531 247.882812 "/>
<g clip-path="url(#clip3)" clip-rule="nonzero">
<path style=" stroke:none;fill-rule:nonzero;fill:rgb(92.871094%,13.111877%,17.172241%);fill-opacity:1;" d="M 187.765625 247.964844 C 187.765625 249.421875 186.84375 250.847656 186.84375 251.765625 C 186.84375 252.160156 187.019531 252.320312 187.367188 252.320312 C 188.207031 252.320312 189.332031 251.371094 190.535156 246.695312 L 192.3125 246.695312 L 190.851562 252.8125 C 190.171875 255.726562 188.570312 256.742188 186.589844 256.742188 C 185.480469 256.742188 184.152344 256.441406 184.152344 255.265625 C 184.152344 254.761719 184.53125 254.125 185.242188 254.125 C 185.878906 254.125 186.195312 254.570312 186.164062 255.09375 C 186.148438 255.347656 186.003906 255.632812 185.847656 255.773438 C 186.035156 255.839844 186.273438 255.886719 186.574219 255.886719 C 187.8125 255.886719 188.652344 254.886719 189.1875 252.683594 L 189.507812 251.433594 L 189.410156 251.382812 C 188.492188 253.066406 187.511719 253.683594 186.589844 253.683594 C 185.546875 253.683594 185.023438 252.953125 185.023438 252.035156 C 185.023438 250.816406 186.035156 249.101562 186.035156 248.199219 C 186.035156 247.996094 185.941406 247.867188 185.800781 247.867188 C 185.402344 247.867188 185.023438 248.515625 184.59375 249.421875 L 183.851562 249.101562 C 184.546875 247.519531 185.417969 246.585938 186.464844 246.585938 C 187.273438 246.585938 187.765625 247.121094 187.765625 247.964844 "/>
</g>
<path style=" stroke:none;fill-rule:nonzero;fill:rgb(92.871094%,13.111877%,17.172241%);fill-opacity:1;" d="M 200.726562 248.753906 C 202.753906 248.753906 203.464844 247.488281 203.464844 246.269531 C 203.464844 245.347656 202.910156 244.792969 201.34375 244.792969 L 200.660156 244.792969 L 199.679688 248.753906 Z M 198.648438 252.859375 L 200.375 252.859375 L 200.105469 254.046875 L 194.78125 254.046875 L 195.050781 252.859375 L 196.652344 252.859375 L 198.648438 244.808594 L 197.03125 244.808594 L 197.332031 243.621094 L 201.722656 243.621094 C 204.589844 243.621094 205.683594 244.792969 205.683594 246.28125 C 205.683594 247.867188 204.589844 249.878906 200.660156 249.878906 L 199.394531 249.878906 L 198.648438 252.859375 "/>
<path style=" stroke:none;fill-rule:nonzero;fill:rgb(92.871094%,13.111877%,17.172241%);fill-opacity:1;" d="M 208.15625 248.914062 C 208.394531 248.011719 208.34375 247.757812 208.0625 247.757812 C 207.695312 247.757812 207.285156 248.4375 206.824219 249.421875 L 206.078125 249.101562 C 206.761719 247.519531 207.554688 246.601562 208.617188 246.601562 C 209.296875 246.601562 209.773438 247.089844 209.773438 248.074219 C 209.773438 248.535156 209.675781 249.089844 209.457031 249.785156 L 209.582031 249.832031 C 210.5 247.742188 211.261719 246.585938 212.371094 246.585938 C 213.035156 246.585938 213.527344 247.042969 213.527344 247.789062 C 213.527344 248.582031 213.019531 249.214844 212.386719 249.214844 C 211.832031 249.214844 211.40625 248.851562 211.4375 248.183594 C 210.976562 248.375 209.835938 249.722656 208.695312 254.046875 L 206.792969 254.046875 L 208.15625 248.914062 "/>
<path style=" stroke:none;fill-rule:nonzero;fill:rgb(92.871094%,13.111877%,17.172241%);fill-opacity:1;" d="M 218.058594 247.457031 C 216.585938 247.457031 215.746094 250.339844 215.746094 251.878906 C 215.746094 252.890625 216.171875 253.320312 216.855469 253.320312 C 218.328125 253.320312 219.167969 250.433594 219.167969 248.898438 C 219.167969 247.882812 218.738281 247.457031 218.058594 247.457031 Z M 221.054688 249.640625 C 221.054688 252.113281 219.074219 254.207031 216.871094 254.207031 C 215.046875 254.207031 213.859375 252.921875 213.859375 251.132812 C 213.859375 248.660156 215.839844 246.585938 218.042969 246.585938 C 219.867188 246.585938 221.054688 247.851562 221.054688 249.640625 "/>
<g clip-path="url(#clip4)" clip-rule="nonzero">
<path style=" stroke:none;fill-rule:nonzero;fill:rgb(92.871094%,13.111877%,17.172241%);fill-opacity:1;" d="M 225.917969 245.476562 C 225.363281 245.476562 224.9375 245.09375 224.9375 244.460938 C 224.9375 243.8125 225.445312 243.066406 226.265625 243.066406 C 226.867188 243.066406 227.28125 243.445312 227.28125 244.082031 C 227.28125 244.714844 226.757812 245.476562 225.917969 245.476562 Z M 226.21875 249.4375 L 225.222656 253.222656 C 224.554688 255.742188 223.320312 256.742188 221.863281 256.742188 C 220.753906 256.742188 220.277344 256.21875 220.277344 255.617188 C 220.277344 255.03125 220.707031 254.492188 221.324219 254.492188 C 221.863281 254.492188 222.148438 254.886719 222.148438 255.300781 C 222.148438 255.632812 222.019531 255.902344 221.894531 256.058594 C 222.574219 256.074219 222.84375 255.664062 223.429688 253.398438 L 224.476562 249.386719 C 224.570312 249.007812 224.714844 248.453125 224.714844 248.121094 C 224.714844 247.835938 224.585938 247.757812 224.445312 247.757812 C 224.0625 247.757812 223.652344 248.4375 223.191406 249.421875 L 222.449219 249.101562 C 223.128906 247.519531 223.953125 246.585938 225.0625 246.585938 C 225.871094 246.585938 226.441406 247.203125 226.441406 248.089844 C 226.441406 248.453125 226.363281 248.898438 226.21875 249.4375 "/>
</g>
<path style=" stroke:none;fill-rule:nonzero;fill:rgb(92.871094%,13.111877%,17.172241%);fill-opacity:1;" d="M 229.785156 250.324219 C 231.988281 250.085938 232.792969 249.230469 232.792969 248.25 C 232.792969 247.804688 232.542969 247.457031 232.066406 247.457031 C 230.957031 247.457031 230.117188 248.960938 229.785156 250.324219 Z M 229.640625 251.066406 C 229.625 251.195312 229.625 251.320312 229.625 251.433594 C 229.625 252.75 230.308594 253.160156 231.101562 253.160156 C 231.875 253.160156 232.652344 252.636719 233.316406 251.703125 L 233.984375 252.175781 C 233.175781 253.335938 232.191406 254.207031 230.511719 254.207031 C 228.882812 254.207031 227.738281 253.066406 227.738281 251.320312 C 227.738281 248.882812 229.847656 246.585938 232.335938 246.585938 C 233.699219 246.585938 234.457031 247.265625 234.457031 248.230469 C 234.457031 249.65625 232.96875 250.878906 229.640625 251.066406 "/>
<path style=" stroke:none;fill-rule:nonzero;fill:rgb(92.871094%,13.111877%,17.172241%);fill-opacity:1;" d="M 242.097656 248.453125 C 242.097656 249.136719 241.667969 249.816406 240.988281 249.816406 C 240.414062 249.816406 240.050781 249.4375 240.050781 248.960938 C 240.050781 248.515625 240.320312 248.152344 240.703125 247.882812 C 240.574219 247.660156 240.304688 247.488281 239.832031 247.488281 C 238.246094 247.488281 237.308594 249.914062 237.308594 251.289062 C 237.308594 252.652344 238.039062 253.082031 238.753906 253.082031 C 239.480469 253.082031 240.179688 252.558594 240.8125 251.574219 L 241.492188 252.035156 C 240.8125 253.222656 239.878906 254.207031 238.324219 254.207031 C 236.582031 254.207031 235.40625 253.015625 235.40625 251.289062 C 235.40625 248.816406 237.53125 246.585938 239.796875 246.585938 C 241.128906 246.585938 242.097656 247.328125 242.097656 248.453125 "/>
<g clip-path="url(#clip5)" clip-rule="nonzero">
<path style=" stroke:none;fill-rule:nonzero;fill:rgb(92.871094%,13.111877%,17.172241%);fill-opacity:1;" d="M 246.515625 247.882812 L 245.566406 251.355469 C 245.457031 251.75 245.375 252.113281 245.375 252.304688 C 245.375 252.730469 245.597656 252.875 245.929688 252.875 C 246.5 252.875 246.976562 252.175781 247.417969 251.164062 L 248.179688 251.417969 C 247.402344 253.667969 246.183594 254.207031 245.328125 254.207031 C 244.28125 254.207031 243.539062 253.683594 243.539062 252.605469 C 243.539062 252.144531 243.710938 251.480469 243.824219 251.039062 L 244.679688 247.882812 L 243.285156 247.882812 L 243.539062 246.917969 L 244.933594 246.917969 L 245.457031 245.015625 L 247.339844 244.808594 L 246.769531 246.917969 L 249.019531 246.917969 L 248.765625 247.882812 L 246.515625 247.882812 "/>
</g>
<path style=" stroke:none;fill-rule:nonzero;fill:rgb(12.452698%,9.849548%,8.714294%);fill-opacity:1;" d="M 50.644531 186.359375 L 62.136719 186.359375 L 62.136719 203.339844 L 74.839844 203.339844 L 74.839844 186.359375 L 86.394531 186.359375 L 86.394531 231.046875 L 74.839844 231.046875 L 74.839844 213.808594 L 62.136719 213.808594 L 62.136719 231.046875 L 50.644531 231.046875 L 50.644531 186.359375 "/>
<path style=" stroke:none;fill-rule:nonzero;fill:rgb(12.452698%,9.849548%,8.714294%);fill-opacity:1;" d="M 92.972656 186.359375 L 123.746094 186.359375 L 123.746094 196.445312 L 104.335938 196.445312 L 104.335938 203.785156 L 121.828125 203.785156 L 121.828125 213.296875 L 104.335938 213.296875 L 104.335938 220.957031 L 124 220.957031 L 124 231.046875 L 92.972656 231.046875 L 92.972656 186.359375 "/>
<path style=" stroke:none;fill-rule:nonzero;fill:rgb(12.452698%,9.849548%,8.714294%);fill-opacity:1;" d="M 151.835938 213.808594 L 147.6875 200.722656 L 143.535156 213.808594 Z M 142.003906 186.101562 L 153.625 186.101562 L 169.390625 231.046875 L 157.328125 231.046875 L 154.707031 223 L 140.664062 223 L 138.109375 231.046875 L 126.300781 231.046875 L 142.003906 186.101562 "/>
<path style=" stroke:none;fill-rule:nonzero;fill:rgb(12.452698%,9.849548%,8.714294%);fill-opacity:1;" d="M 177.183594 196.699219 L 166.140625 196.699219 L 166.140625 186.359375 L 199.71875 186.359375 L 199.71875 196.699219 L 188.675781 196.699219 L 188.675781 231.046875 L 177.183594 231.046875 L 177.183594 196.699219 "/>
<path style=" stroke:none;fill-rule:nonzero;fill:rgb(100%,100%,100%);fill-opacity:1;" d="M 113.304688 123.988281 C 112.460938 123.988281 111.664062 123.660156 111.0625 123.058594 L 104.941406 116.933594 C 101.792969 113.789062 100.316406 109.4375 100.890625 104.992188 C 101.285156 101.925781 102.808594 98.929688 105.179688 96.558594 L 113.117188 88.621094 C 113.714844 88.023438 114.511719 87.691406 115.359375 87.691406 C 116.207031 87.691406 117.003906 88.023438 117.605469 88.621094 L 129.164062 100.183594 C 129.765625 100.785156 130.09375 101.582031 130.09375 102.429688 C 130.09375 103.277344 129.765625 104.074219 129.164062 104.671875 L 120.988281 112.835938 C 118.625 115.214844 117.039062 118.1875 116.414062 121.4375 C 116.128906 122.917969 114.820312 123.988281 113.304688 123.988281 "/>
<path style=" stroke:none;fill-rule:nonzero;fill:rgb(94.515991%,29.447937%,14.942932%);fill-opacity:1;" d="M 105.03125 69.992188 C 103.734375 69.992188 102.589844 69.222656 102.121094 68.03125 C 101.457031 66.355469 101.121094 64.585938 101.121094 62.773438 C 101.121094 58.96875 102.601562 55.394531 105.289062 52.703125 L 115.519531 42.488281 C 116.113281 41.890625 116.910156 41.5625 117.753906 41.5625 C 119.265625 41.5625 120.566406 42.628906 120.847656 44.105469 C 121.234375 46.121094 121.980469 48.019531 123.074219 49.75 C 123.878906 51.023438 123.707031 52.648438 122.65625 53.699219 L 107.277344 69.0625 C 106.679688 69.664062 105.882812 69.992188 105.03125 69.992188 "/>
<path style=" stroke:none;fill-rule:nonzero;fill:rgb(92.871094%,13.111877%,17.172241%);fill-opacity:1;" d="M 115.359375 81.59375 C 114.511719 81.59375 113.714844 81.265625 113.117188 80.664062 L 108.378906 75.929688 C 107.144531 74.691406 107.144531 72.679688 108.378906 71.441406 L 124.027344 55.792969 C 124.628906 55.195312 125.425781 54.863281 126.273438 54.863281 C 127.121094 54.863281 127.917969 55.195312 128.515625 55.792969 L 133.253906 60.527344 C 134.488281 61.765625 134.488281 63.78125 133.253906 65.015625 L 117.605469 80.664062 C 117.003906 81.265625 116.207031 81.59375 115.359375 81.59375 "/>
<path style=" stroke:none;fill-rule:nonzero;fill:rgb(95.887756%,46.02356%,8.729553%);fill-opacity:1;" d="M 133.152344 99.371094 C 132.300781 99.371094 131.503906 99.042969 130.90625 98.441406 L 119.34375 86.882812 C 118.746094 86.28125 118.414062 85.484375 118.414062 84.636719 C 118.414062 83.789062 118.746094 82.992188 119.34375 82.390625 L 134.992188 66.757812 C 135.59375 66.15625 136.390625 65.828125 137.238281 65.828125 C 138.085938 65.828125 138.882812 66.15625 139.480469 66.757812 L 144.15625 71.429688 L 144.214844 71.503906 C 146.316406 74.074219 147.425781 77.191406 147.425781 80.511719 C 147.425781 84.300781 145.945312 87.875 143.257812 90.578125 L 135.394531 98.441406 C 134.796875 99.042969 134 99.371094 133.152344 99.371094 "/>
<path style=" stroke:none;fill-rule:nonzero;fill:rgb(92.871094%,13.111877%,17.172241%);fill-opacity:1;" d="M 126.914062 48.121094 C 125.621094 48.121094 124.480469 47.355469 124.007812 46.167969 C 123.339844 44.492188 123 42.71875 123 40.894531 C 123 37.738281 124.019531 34.738281 125.902344 32.273438 L 125.863281 32.234375 L 127.042969 30.882812 C 130.53125 26.886719 132.453125 21.75 132.453125 16.414062 C 132.453125 15.097656 133.445312 14.066406 134.710938 14.066406 C 135.40625 14.066406 136.066406 14.371094 136.671875 14.976562 L 139.015625 17.316406 C 144.503906 22.867188 144.480469 31.875 138.957031 37.398438 L 129.164062 47.191406 C 128.5625 47.789062 127.765625 48.121094 126.914062 48.121094 "/>
<path style=" stroke:none;fill-rule:nonzero;fill:rgb(95.887756%,46.02356%,8.729553%);fill-opacity:1;" d="M 85.25 96.101562 C 84.351562 96.101562 83.65625 95.582031 83.152344 95.128906 C 80.609375 92.855469 78.90625 88.78125 78.90625 84.988281 C 78.90625 81.1875 80.386719 77.609375 83.074219 74.921875 L 93.625 64.371094 C 94.226562 63.769531 95.023438 63.441406 95.867188 63.441406 C 97.382812 63.441406 98.691406 64.511719 98.976562 65.984375 C 99.363281 67.988281 100.109375 69.878906 101.199219 71.609375 C 102 72.886719 101.828125 74.515625 100.773438 75.566406 L 92.246094 84.09375 C 89.621094 86.71875 87.984375 90.054688 87.507812 93.738281 L 87.5 93.796875 C 87.246094 95.992188 85.582031 96.101562 85.25 96.101562 "/>
<path style=" stroke:none;fill-rule:nonzero;fill:rgb(95.954895%,72.164917%,4.994202%);fill-opacity:1;" d="M 144.089844 110.3125 C 143.242188 110.3125 142.445312 109.980469 141.84375 109.382812 L 137.121094 104.660156 C 136.523438 104.0625 136.191406 103.265625 136.191406 102.417969 C 136.191406 101.570312 136.523438 100.769531 137.121094 100.171875 L 144.984375 92.308594 C 147.496094 89.796875 149.113281 86.636719 149.660156 83.167969 C 150.042969 80.753906 151.835938 80.632812 152.191406 80.632812 C 153.464844 80.632812 154.441406 81.59375 155.148438 82.433594 C 159.722656 87.859375 159.292969 96.421875 154.195312 101.519531 L 146.332031 109.382812 C 145.734375 109.980469 144.9375 110.3125 144.089844 110.3125 "/>
<path style=" stroke:none;fill-rule:nonzero;fill:rgb(97.587585%,88.517761%,2.690125%);fill-opacity:1;" d="M 124.671875 135.550781 C 124.183594 135.550781 123.457031 135.410156 122.757812 134.742188 C 120.097656 132.191406 118.609375 128.6875 118.566406 124.875 C 118.527344 121.015625 120.042969 117.261719 122.730469 114.578125 L 130.894531 106.402344 C 131.492188 105.800781 132.289062 105.472656 133.136719 105.472656 C 133.988281 105.472656 134.78125 105.800781 135.382812 106.402344 L 140.105469 111.121094 C 140.703125 111.722656 141.035156 112.519531 141.035156 113.367188 C 141.035156 114.214844 140.703125 115.011719 140.105469 115.609375 L 131.929688 123.785156 C 129.316406 126.398438 127.683594 129.691406 127.199219 133.304688 C 127.027344 134.585938 125.941406 135.550781 124.671875 135.550781 "/>
<path style=" stroke:none;fill-rule:nonzero;fill:rgb(94.515991%,29.447937%,14.942932%);fill-opacity:1;" d="M 95.9375 106.816406 C 95.234375 106.816406 94.542969 106.519531 93.996094 105.980469 C 91.304688 103.320312 89.816406 99.761719 89.804688 95.960938 C 89.796875 92.128906 91.28125 88.53125 93.988281 85.832031 L 102.164062 77.660156 C 102.765625 77.058594 103.5625 76.726562 104.410156 76.726562 C 105.257812 76.726562 106.054688 77.058594 106.652344 77.660156 L 111.386719 82.394531 C 112.625 83.628906 112.625 85.644531 111.386719 86.882812 L 103.210938 95.058594 C 100.601562 97.667969 98.960938 100.960938 98.472656 104.585938 C 98.300781 105.859375 97.210938 106.816406 95.9375 106.816406 "/>
<path style=" stroke:none;fill-rule:nonzero;fill:rgb(95.887756%,46.02356%,8.729553%);fill-opacity:1;" d="M 152.636719 123.628906 C 151.125 123.628906 149.816406 122.558594 149.53125 121.085938 C 149.136719 119.066406 148.386719 117.164062 147.292969 115.433594 C 146.484375 114.15625 146.660156 112.527344 147.710938 111.472656 L 155.9375 103.25 C 158.550781 100.632812 160.183594 97.324219 160.664062 93.671875 C 160.820312 92.484375 161.882812 91.621094 163.195312 91.621094 C 163.960938 91.621094 164.683594 91.925781 165.171875 92.460938 C 167.691406 95.207031 169.140625 98.578125 169.246094 101.953125 C 169.324219 104.449219 168.75 106.929688 167.582031 109.125 C 166.941406 110.335938 166.113281 111.457031 165.121094 112.445312 L 154.882812 122.695312 C 154.28125 123.296875 153.484375 123.628906 152.636719 123.628906 "/>
<path style=" stroke:none;fill-rule:nonzero;fill:rgb(95.887756%,46.02356%,8.729553%);fill-opacity:1;" d="M 135.53125 146.460938 C 134.851562 146.460938 134.1875 146.171875 133.664062 145.648438 C 128.128906 140.085938 128.128906 131.054688 133.667969 125.515625 L 141.175781 118.007812 C 141.988281 117.195312 142.832031 117.023438 143.390625 117.023438 C 144.988281 117.023438 146.152344 118.328125 146.597656 119.625 C 147.117188 121.121094 147.375 122.691406 147.375 124.292969 C 147.375 128.089844 145.90625 131.660156 143.234375 134.34375 L 143.019531 134.5625 L 143.007812 134.566406 L 142.863281 134.714844 C 140.324219 137.246094 138.699219 140.464844 138.171875 144.019531 C 137.964844 145.410156 136.828125 146.460938 135.53125 146.460938 "/>
<path style=" stroke:none;fill-rule:nonzero;fill:rgb(92.871094%,13.111877%,17.172241%);fill-opacity:1;" d="M 137.269531 59.683594 C 136.429688 59.683594 135.636719 59.359375 135.039062 58.765625 L 130.277344 54.0625 C 129.671875 53.460938 129.335938 52.664062 129.332031 51.8125 C 129.328125 50.960938 129.660156 50.160156 130.261719 49.558594 L 140.683594 39.125 C 143.214844 36.585938 144.835938 33.382812 145.371094 29.863281 C 145.582031 28.480469 146.722656 27.4375 148.027344 27.4375 C 148.472656 27.4375 149.144531 27.554688 149.804688 28.128906 C 152.398438 30.371094 154.078125 34.359375 154.078125 38.292969 C 154.078125 42.097656 152.597656 45.671875 149.90625 48.359375 L 139.515625 58.753906 C 138.914062 59.355469 138.117188 59.683594 137.269531 59.683594 "/>
<path style=" stroke:none;fill-rule:nonzero;fill:rgb(12.452698%,9.849548%,8.714294%);fill-opacity:1;" d="M 165.890625 108.226562 C 165.335938 109.269531 164.621094 110.234375 163.765625 111.089844 L 153.527344 121.339844 C 152.824219 122.046875 151.601562 121.695312 151.410156 120.71875 C 150.976562 118.472656 150.132812 116.339844 148.914062 114.410156 C 148.59375 113.90625 148.644531 113.25 149.070312 112.828125 L 157.292969 104.601562 C 160.292969 101.601562 162.050781 97.839844 162.5625 93.921875 C 162.617188 93.507812 163.429688 93.394531 163.757812 93.753906 C 165.847656 96.03125 167.234375 98.917969 167.328125 102.011719 C 167.398438 104.21875 166.894531 106.335938 165.890625 108.226562 Z M 144.980469 108.027344 C 144.488281 108.519531 143.691406 108.519531 143.199219 108.027344 L 138.476562 103.304688 C 137.988281 102.8125 137.988281 102.019531 138.476562 101.527344 L 146.339844 93.664062 C 149.152344 90.851562 150.945312 87.316406 151.554688 83.46875 C 151.644531 82.894531 151.957031 81.621094 153.683594 83.667969 C 157.5625 88.273438 157.339844 95.664062 152.839844 100.164062 Z M 141.875 132.992188 L 141.851562 133.003906 L 141.511719 133.359375 C 138.585938 136.273438 136.84375 139.929688 136.277344 143.738281 C 136.195312 144.28125 135.625 144.898438 135.023438 144.296875 C 130.277344 139.527344 130.21875 131.671875 135.023438 126.871094 L 142.53125 119.363281 C 143.597656 118.296875 144.527344 119.5 144.785156 120.246094 C 145.230469 121.53125 145.460938 122.894531 145.460938 124.292969 C 145.460938 127.574219 144.191406 130.667969 141.875 132.992188 Z M 125.300781 133.050781 C 125.238281 133.511719 124.679688 133.925781 124.085938 133.359375 C 119.28125 128.753906 119.28125 120.734375 124.085938 115.933594 L 132.25 107.757812 C 132.738281 107.265625 133.535156 107.265625 134.027344 107.757812 L 138.75 112.476562 C 139.242188 112.96875 139.242188 113.765625 138.75 114.257812 L 130.574219 122.433594 C 127.664062 125.34375 125.835938 129.042969 125.300781 133.050781 Z M 114.53125 121.074219 C 114.34375 122.054688 113.125 122.410156 112.417969 121.703125 L 106.292969 115.582031 C 103.585938 112.871094 102.292969 109.105469 102.789062 105.238281 C 103.148438 102.449219 104.550781 99.898438 106.535156 97.910156 L 114.46875 89.976562 C 114.960938 89.484375 115.757812 89.484375 116.25 89.976562 L 127.808594 101.539062 C 128.300781 102.03125 128.300781 102.828125 127.808594 103.316406 L 119.632812 111.480469 C 116.980469 114.144531 115.226562 117.46875 114.53125 121.074219 Z M 96.574219 104.328125 C 96.511719 104.785156 95.929688 105.195312 95.34375 104.617188 C 90.503906 99.835938 90.527344 91.992188 95.34375 87.191406 L 103.519531 79.011719 C 104.011719 78.523438 104.804688 78.523438 105.296875 79.011719 L 110.03125 83.746094 C 110.523438 84.238281 110.523438 85.035156 110.03125 85.527344 L 101.855469 93.703125 C 98.945312 96.617188 97.117188 100.316406 96.574219 104.328125 Z M 85.605469 93.492188 C 85.550781 93.914062 85.542969 94.699219 84.429688 93.703125 C 82.34375 91.835938 80.820312 88.28125 80.820312 84.988281 C 80.820312 81.695312 82.105469 78.601562 84.429688 76.277344 L 94.980469 65.726562 C 95.683594 65.023438 96.902344 65.371094 97.09375 66.347656 C 97.523438 68.582031 98.367188 70.707031 99.574219 72.628906 C 99.894531 73.136719 99.84375 73.789062 99.417969 74.210938 L 90.894531 82.738281 C 87.882812 85.75 86.113281 89.558594 85.605469 93.492188 Z M 106.644531 54.058594 L 116.871094 43.84375 C 117.570312 43.148438 118.78125 43.496094 118.964844 44.464844 C 119.394531 46.707031 120.234375 48.84375 121.453125 50.773438 C 121.769531 51.273438 121.71875 51.921875 121.300781 52.34375 L 105.925781 67.707031 C 105.300781 68.328125 104.222656 68.140625 103.902344 67.328125 C 103.335938 65.898438 103.039062 64.355469 103.039062 62.773438 C 103.039062 59.476562 104.320312 56.386719 106.644531 54.058594 Z M 125.382812 57.148438 C 125.875 56.660156 126.671875 56.660156 127.164062 57.148438 L 131.898438 61.882812 C 132.386719 62.375 132.386719 63.171875 131.898438 63.660156 L 116.25 79.308594 C 115.757812 79.800781 114.960938 79.800781 114.46875 79.308594 L 109.734375 74.574219 C 109.246094 74.085938 109.246094 73.289062 109.734375 72.796875 Z M 128.523438 32.183594 L 128.484375 32.144531 C 132.296875 27.78125 134.371094 22.261719 134.371094 16.414062 C 134.371094 16.0625 134.671875 15.6875 135.316406 16.332031 L 137.601562 18.617188 C 137.613281 18.628906 137.640625 18.652344 137.652344 18.667969 C 142.40625 23.46875 142.390625 31.25 137.601562 36.042969 L 127.808594 45.835938 C 127.1875 46.453125 126.113281 46.269531 125.789062 45.457031 C 125.214844 44.027344 124.914062 42.480469 124.914062 40.894531 C 124.914062 37.613281 126.199219 34.507812 128.523438 32.183594 Z M 147.265625 30.152344 C 147.351562 29.589844 147.914062 29.027344 148.554688 29.578125 C 150.75 31.480469 152.160156 35 152.160156 38.292969 C 152.160156 41.574219 150.878906 44.679688 148.554688 47.007812 L 138.160156 57.398438 C 137.667969 57.890625 136.878906 57.890625 136.386719 57.40625 L 131.625 52.699219 C 131.128906 52.207031 131.125 51.40625 131.617188 50.914062 L 142.039062 40.480469 C 144.941406 37.566406 146.691406 33.9375 147.265625 30.152344 Z M 142.730469 72.71875 C 144.53125 74.917969 145.511719 77.632812 145.511719 80.511719 C 145.511719 83.792969 144.226562 86.886719 141.902344 89.226562 L 134.039062 97.089844 C 133.546875 97.578125 132.753906 97.578125 132.261719 97.089844 L 120.699219 85.527344 C 120.210938 85.035156 120.210938 84.238281 120.699219 83.746094 L 136.347656 68.113281 C 136.839844 67.621094 137.632812 67.621094 138.125 68.113281 Z M 168.21875 89.226562 L 142.613281 63.609375 C 142.125 63.121094 142.125 62.324219 142.613281 61.832031 L 153.003906 51.445312 C 156.648438 47.8125 158.582031 42.925781 158.441406 37.765625 C 158.304688 32.839844 156.078125 28.203125 152.597656 24.71875 L 142.039062 14.164062 L 128.234375 0.359375 C 127.75 -0.125 126.960938 -0.125 126.476562 0.359375 L 123.757812 3.078125 C 123.28125 3.550781 123.285156 4.304688 123.730469 4.808594 C 126.933594 8.460938 128.476562 13.226562 128 18.183594 C 127.59375 22.371094 125.578125 26.238281 122.601562 29.214844 L 80.378906 71.4375 C 76.878906 74.9375 74.652344 79.605469 74.539062 84.554688 C 74.421875 89.695312 76.371094 94.53125 79.980469 98.152344 L 142.257812 160.417969 C 142.75 160.910156 143.542969 160.910156 144.035156 160.417969 L 146.699219 157.753906 C 147.1875 157.265625 147.191406 156.472656 146.703125 155.980469 L 145.949219 155.222656 C 143.5 152.773438 142.210938 149.476562 142.351562 145.988281 C 142.484375 142.785156 143.964844 139.78125 146.234375 137.511719 L 146.300781 137.445312 L 168.167969 115.582031 L 168.21875 115.542969 C 171.738281 112.023438 173.660156 107.34375 173.660156 102.378906 C 173.660156 97.410156 171.738281 92.734375 168.21875 89.226562 "/>
</g>
</svg>
